<svg width="121.921" height="26.1793" overflow="visible" style="display: block;" viewBox="0 0 121.921 26.1793" fill="none" xmlns="http://www.w3.org/2000/svg">
<g id="alchemy-logo 1" clip-path="url(#clip0_0_358)">
<path id="Vector" d="M37.9928 13.7322V13.4298C37.9928 12.6696 37.7327 12.0879 37.2125 11.6846C36.7081 11.2657 36.0461 11.0564 35.2265 11.0564C34.5959 11.0564 34.0994 11.1649 33.7368 11.3821C33.39 11.5837 33.059 11.894 32.7438 12.3129C32.6492 12.437 32.5467 12.5222 32.4364 12.5688C32.3261 12.6154 32.1763 12.6386 31.9871 12.6386H31.2778C31.1044 12.6386 30.9468 12.5765 30.8049 12.4524C30.6788 12.3283 30.6236 12.181 30.6394 12.0103C30.6867 11.545 30.9153 11.0874 31.3251 10.6375C31.7507 10.1722 32.3103 9.79207 33.0038 9.49734C33.6974 9.20261 34.4383 9.05524 35.2265 9.05524C36.6924 9.05524 37.8746 9.45859 38.7731 10.2652C39.6874 11.0718 40.1445 12.2042 40.1445 13.6624V20.7593C40.1445 20.93 40.0814 21.0773 39.9553 21.2014C39.8292 21.3255 39.6794 21.3876 39.5061 21.3876H38.6312C38.4578 21.3876 38.3081 21.3255 38.182 21.2014C38.0559 21.0773 37.9928 20.93 37.9928 20.7593V19.8053C37.7406 20.3638 37.2047 20.8059 36.385 21.1316C35.5653 21.4574 34.7456 21.6203 33.926 21.6203C33.1221 21.6203 32.4048 21.4807 31.7743 21.2014C31.1438 20.9067 30.6552 20.5111 30.3084 20.0147C29.9773 19.5183 29.8118 18.9599 29.8118 18.3394C29.8118 17.1759 30.2532 16.2685 31.1359 15.617C32.0187 14.95 33.193 14.5001 34.6589 14.2674L37.9928 13.7322ZM37.9928 15.5937L35.2027 16.0358C34.1782 16.1909 33.3822 16.4469 32.8147 16.8037C32.2472 17.145 31.9635 17.5793 31.9635 18.1067C31.9635 18.4945 32.1448 18.8436 32.5073 19.1538C32.8699 19.4641 33.4215 19.6192 34.1624 19.6192C35.2974 19.6192 36.2195 19.3012 36.9288 18.6652C37.6382 18.0292 37.9928 17.1993 37.9928 16.1754V15.5937Z" fill="var(--fill-0, #EBEBEB)"/>
<path id="Vector_2" d="M45.7457 20.759C45.7457 20.9296 45.6826 21.077 45.5565 21.2011C45.4304 21.3252 45.2807 21.3873 45.1073 21.3873H44.2324C44.0591 21.3873 43.9093 21.3252 43.7832 21.2011C43.6571 21.077 43.594 20.9296 43.594 20.759V5.49479C43.594 5.32415 43.6571 5.17679 43.7832 5.05269C43.9093 4.92859 44.0591 4.86654 44.2324 4.86654H45.1073C45.2807 4.86654 45.4304 4.92859 45.5565 5.05269C45.6826 5.17679 45.7457 5.32415 45.7457 5.49479V20.759Z" fill="var(--fill-0, #EBEBEB)"/>
<path id="Vector_3" d="M54.2628 19.6192C55.8391 19.6192 56.9031 19.0142 57.4548 17.8042C57.5651 17.5715 57.6754 17.4087 57.7858 17.3156C57.8961 17.2225 58.0459 17.1759 58.235 17.1759H58.9443C59.1178 17.1759 59.2675 17.238 59.3936 17.3621C59.5197 17.4708 59.5828 17.6026 59.5828 17.7577C59.5828 18.2851 59.37 18.8513 58.9443 19.4563C58.5188 20.0613 57.904 20.5732 57.1001 20.9921C56.2962 21.4109 55.3504 21.6203 54.2628 21.6203C53.1436 21.6203 52.1742 21.3876 51.3545 20.9222C50.5349 20.4568 49.9043 19.8208 49.463 19.0142C49.0216 18.192 48.7773 17.2768 48.73 16.2685C48.7142 16.0824 48.7063 15.7255 48.7063 15.1982C48.7063 14.8259 48.7142 14.5622 48.73 14.407C48.8718 12.8248 49.4157 11.5372 50.3614 10.5445C51.3072 9.55165 52.6077 9.05524 54.2628 9.05524C55.3504 9.05524 56.2883 9.2647 57.0764 9.68353C57.8804 10.0868 58.4872 10.591 58.8971 11.1959C59.3227 11.7854 59.5513 12.3439 59.5828 12.8713C59.5985 13.0419 59.5355 13.1893 59.3936 13.3134C59.2675 13.4375 59.1178 13.4996 58.9443 13.4996H58.235C58.0459 13.4996 57.8961 13.453 57.7858 13.3599C57.6754 13.2668 57.5651 13.104 57.4548 12.8713C56.9031 11.6613 55.8391 11.0564 54.2628 11.0564C53.3958 11.0564 52.6392 11.3433 51.9929 11.9173C51.3466 12.4913 50.9762 13.3599 50.8816 14.5234C50.8659 14.694 50.8579 14.9732 50.8579 15.361C50.8579 15.7178 50.8659 15.9815 50.8816 16.1522C50.992 17.3156 51.3624 18.1843 51.9929 18.7582C52.6392 19.3322 53.3958 19.6192 54.2628 19.6192Z" fill="var(--fill-0, #EBEBEB)"/>
<path id="Vector_4" d="M73.3365 20.759C73.3365 20.9296 73.2734 21.077 73.1473 21.2011C73.0212 21.3252 72.8715 21.3873 72.6981 21.3873H71.8232C71.6498 21.3873 71.5001 21.3252 71.374 21.2011C71.2479 21.077 71.1849 20.9296 71.1849 20.759V14.6161C71.1849 13.4527 70.8932 12.5684 70.31 11.9635C69.7268 11.3585 68.915 11.056 67.8746 11.056C66.85 11.056 66.0382 11.3585 65.4392 11.9635C64.856 12.5684 64.5644 13.4527 64.5644 14.6161V20.759C64.5644 20.9296 64.5013 21.077 64.3752 21.2011C64.2491 21.3252 64.0994 21.3873 63.926 21.3873H63.0511C62.8778 21.3873 62.728 21.3252 62.6019 21.2011C62.4758 21.077 62.4127 20.9296 62.4127 20.759V5.49479C62.4127 5.32415 62.4758 5.17679 62.6019 5.05269C62.728 4.92859 62.8778 4.86654 63.0511 4.86654H63.926C64.0994 4.86654 64.2491 4.92859 64.3752 5.05269C64.5013 5.17679 64.5644 5.32415 64.5644 5.49479V10.6372C64.9112 10.1873 65.3841 9.81498 65.9831 9.52025C66.5978 9.21003 67.3465 9.05488 68.2293 9.05488C69.2224 9.05488 70.105 9.26434 70.8775 9.68317C71.6499 10.102 72.2488 10.707 72.6744 11.4981C73.1158 12.2737 73.3365 13.1967 73.3365 14.2671V20.759Z" fill="var(--fill-0, #EBEBEB)"/>
<path id="Vector_5" d="M81.6223 9.05524C83.3089 9.05524 84.6409 9.58269 85.6176 10.6375C86.5952 11.6924 87.0843 13.1273 87.0843 14.9422V15.5705C87.0843 15.7411 87.0207 15.8885 86.8951 16.0126C86.7687 16.1367 86.6191 16.1987 86.4456 16.1987H78.3121V16.3383C78.3435 17.3621 78.6584 18.1688 79.2574 18.7582C79.8722 19.3322 80.6605 19.6192 81.6223 19.6192C82.4099 19.6192 83.0172 19.5183 83.4427 19.3167C83.884 19.115 84.2781 18.828 84.6252 18.4558C84.7508 18.3317 84.8615 18.2463 84.9558 18.1998C85.0664 18.1533 85.2078 18.13 85.3813 18.13H86.0911C86.2803 18.13 86.4374 18.192 86.5638 18.3161C86.6901 18.4402 86.7447 18.5876 86.729 18.7582C86.6662 19.1771 86.4299 19.6115 86.02 20.0613C85.6259 20.4956 85.0507 20.868 84.2939 21.1782C83.5534 21.4729 82.6627 21.6203 81.6223 21.6203C80.6134 21.6203 79.7152 21.3953 78.9269 20.9455C78.1386 20.4801 77.5081 19.8441 77.0354 19.0375C76.5777 18.2308 76.3024 17.3234 76.2075 16.315C76.1761 15.8496 76.1603 15.4929 76.1603 15.2447C76.1603 14.9965 76.1761 14.6397 76.2075 14.1743C76.3024 13.2125 76.5777 12.3439 77.0354 11.5682C77.5081 10.7927 78.1303 10.1799 78.9029 9.73006C79.6912 9.28018 80.5977 9.05524 81.6223 9.05524ZM84.9558 14.2441V14.1743C84.9558 13.2281 84.6484 12.4757 84.0336 11.9173C83.4345 11.3433 82.6313 11.0564 81.6223 11.0564C80.7076 11.0564 79.9276 11.3433 79.2814 11.9173C78.6509 12.4913 78.3278 13.2436 78.3121 14.1743V14.2441H84.9558Z" fill="var(--fill-0, #EBEBEB)"/>
<path id="Vector_6" d="M92.0877 10.6375C92.4661 10.1566 92.8917 9.77659 93.3651 9.49734C93.8378 9.20261 94.4683 9.05524 95.2565 9.05524C97.1009 9.05524 98.3933 9.73006 99.1337 11.0796C99.5914 10.4281 100.111 9.93166 100.695 9.5904C101.278 9.23365 102.042 9.05524 102.988 9.05524C104.533 9.05524 105.676 9.51283 106.417 10.4281C107.173 11.3433 107.551 12.6386 107.551 14.314V20.7593C107.551 20.93 107.489 21.0773 107.362 21.2014C107.236 21.3255 107.086 21.3876 106.913 21.3876H106.038C105.865 21.3876 105.715 21.3255 105.589 21.2014C105.463 21.0773 105.4 20.93 105.4 20.7593V14.5466C105.4 12.2198 104.47 11.0564 102.61 11.0564C101.759 11.0564 101.081 11.3355 100.576 11.894C100.072 12.4524 99.8195 13.2823 99.8195 14.3838V20.7593C99.8195 20.93 99.7567 21.0773 99.6303 21.2014C99.5047 21.3255 99.3543 21.3876 99.1816 21.3876H98.3065C98.133 21.3876 97.9834 21.3255 97.857 21.2014C97.7314 21.0773 97.6678 20.93 97.6678 20.7593V14.5466C97.6678 12.2198 96.7382 11.0564 94.8781 11.0564C94.027 11.0564 93.3486 11.3355 92.8445 11.894C92.3405 12.4524 92.0877 13.2823 92.0877 14.3838V20.7593C92.0877 20.93 92.0248 21.0773 91.8984 21.2014C91.7728 21.3255 91.6232 21.3876 91.4497 21.3876H90.5746C90.4011 21.3876 90.2515 21.3255 90.1251 21.2014C89.9995 21.0773 89.9359 20.93 89.9359 20.7593V9.91618C89.9359 9.74554 89.9995 9.59818 90.1251 9.47408C90.2515 9.34998 90.4011 9.28796 90.5746 9.28796H91.4497C91.6232 9.28796 91.7728 9.34998 91.8984 9.47408C92.0248 9.59818 92.0877 9.74554 92.0877 9.91618V10.6375Z" fill="var(--fill-0, #EBEBEB)"/>
<path id="Vector_7" d="M114.173 25.2497C114.031 25.622 113.803 25.8081 113.488 25.8081H112.518C112.361 25.8081 112.227 25.7538 112.117 25.6452C112.006 25.5366 111.951 25.4048 111.951 25.2497C111.951 25.1876 111.959 25.1333 111.975 25.0867L114.244 20.2236L109.563 10.0087C109.547 9.96217 109.539 9.90786 109.539 9.84584C109.539 9.6907 109.595 9.55889 109.705 9.45027C109.815 9.34166 109.949 9.28742 110.107 9.28742H111.076C111.391 9.28742 111.62 9.47354 111.762 9.84584L115.403 17.7572L119.092 9.84584C119.234 9.47354 119.462 9.28742 119.778 9.28742H120.747C120.905 9.28742 121.038 9.34166 121.148 9.45027C121.259 9.55889 121.314 9.6907 121.314 9.84584C121.314 9.90786 121.306 9.96217 121.291 10.0087L114.173 25.2497Z" fill="var(--fill-0, #EBEBEB)"/>
<path id="Vector_8" d="M20.8724 13.69L12.9331 0.220642C12.8946 0.154133 12.839 0.0987305 12.7717 0.0600264C12.7044 0.0213222 12.6279 0.000684584 12.5498 0.000196235C12.4718 -0.000292115 12.3951 0.0193859 12.3273 0.0572447C12.2595 0.0951039 12.2032 0.149804 12.1638 0.215828L9.78608 4.25181C9.70823 4.38392 9.66724 4.53379 9.66724 4.68634C9.66724 4.83889 9.70823 4.98876 9.78608 5.12087L14.963 13.9078C15.041 14.0401 15.1531 14.1499 15.2882 14.2262C15.4232 14.3024 15.5764 14.3425 15.7323 14.3424H20.4878C20.5657 14.3421 20.6421 14.3219 20.7094 14.2837C20.7768 14.2455 20.8328 14.1906 20.8717 14.1245C20.9106 14.0585 20.9312 13.9836 20.9313 13.9074C20.9314 13.8311 20.9111 13.7561 20.8724 13.69Z" fill="var(--fill-0, #EBEBEB)"/>
<path id="Vector_9" d="M0.0612267 20.7295L8.00061 7.26016C8.0395 7.19418 8.09552 7.1394 8.1629 7.10131C8.23036 7.06323 8.3068 7.04317 8.38458 7.04317C8.46237 7.04317 8.53888 7.06323 8.60626 7.10131C8.67365 7.1394 8.72959 7.19418 8.76856 7.26016L11.1476 11.2925C11.2254 11.4248 11.2664 11.5749 11.2664 11.7276C11.2664 11.8804 11.2254 12.0305 11.1476 12.1628L5.97058 20.9498C5.89293 21.082 5.78104 21.1918 5.64618 21.2681C5.51134 21.3444 5.3583 21.3845 5.20257 21.3843H0.445846C0.367486 21.3847 0.290425 21.3647 0.222493 21.3265C0.154561 21.2882 0.0981907 21.233 0.0591116 21.1665C0.0200325 21.0999 -0.000361853 21.0244 1.1072e-05 20.9477C0.000383997 20.8709 0.0215028 20.7957 0.0612267 20.7295Z" fill="var(--fill-0, #EBEBEB)"/>
<path id="Vector_10" d="M8.76735 21.381H24.646C24.724 21.3809 24.8005 21.3608 24.8679 21.3226C24.9353 21.2844 24.9912 21.2294 25.0301 21.1632C25.069 21.0971 25.0894 21.0222 25.0893 20.9459C25.0892 20.8696 25.0685 20.7946 25.0295 20.7286L22.6541 16.6939C22.5762 16.5616 22.4641 16.4518 22.329 16.3755C22.194 16.2993 22.0409 16.2592 21.8849 16.2593H11.5309C11.3751 16.2592 11.2219 16.2993 11.0868 16.3755C10.9518 16.4518 10.8397 16.5616 10.7617 16.6939L8.38397 20.7286C8.34493 20.7946 8.32429 20.8696 8.32421 20.9459C8.32407 21.0222 8.34448 21.0971 8.3833 21.1632C8.42219 21.2294 8.47813 21.2844 8.5456 21.3226C8.61298 21.3608 8.68949 21.3809 8.76735 21.381Z" fill="var(--fill-0, #EBEBEB)"/>
</g>
<defs>
<clipPath id="clip0_0_358">
<rect width="121.921" height="26.1793" fill="white"/>
</clipPath>
</defs>
</svg>
