<svg xmlns="http://www.w3.org/2000/svg" viewBox="0 0 512 512" width="512" height="512"><rect fill="#2A2A2A" width="512" height="512" rx="64"/><g transform="translate(96,102) scale(3.9)"><path d="M39.9695 78.7478H36.8987V48.5382C36.8987 45.6538 34.4539 43.3137 31.4591 43.3137H20.5039V40.3643H31.4591C36.1542 40.3643 39.978 44.0369 39.978 48.5464V78.7559L39.9695 78.7478Z" fill="#E8E8EC"/><path d="M61.4897 38.3917H50.5345C45.8394 38.3917 42.0156 34.7191 42.0156 30.2096V0H45.0865V30.2096C45.0865 33.094 47.5313 35.4341 50.526 35.4341H61.4812V38.3835L61.4897 38.3917Z" fill="#E8E8EC"/><path d="M45.0992 59.0627H42.0283V48.5405C42.0283 44.031 45.8521 40.3584 50.5472 40.3584H82.0001V43.3079H50.5472C47.544 43.3079 45.1076 45.656 45.1076 48.5324V59.0545L45.0992 59.0627Z" fill="#E8E8EC"/><path d="M31.4529 38.3895H0V35.44H31.4529C34.4561 35.44 36.8924 33.0918 36.8924 30.2155V19.6934H39.9633V30.2155C39.9633 34.725 36.1395 38.3976 31.4444 38.3976L31.4529 38.3895Z" fill="#E8E8EC"/><path d="M41.1187 45.6226C41.1187 42.1693 38.2086 39.3743 34.6133 39.3743C38.2086 39.3743 41.1187 36.5792 41.1187 33.126C41.1187 36.5792 44.0289 39.3743 47.6242 39.3743C44.0289 39.3743 41.1187 42.1693 41.1187 45.6226Z" fill="#E8E8EC"/></g></svg>
