<svg width="512" height="512" viewBox="0 0 512 512" fill="none" xmlns="http://www.w3.org/2000/svg">
<g clip-path="url(#clip0_904_17)">
<path d="M448 0H64C28.6538 0 0 28.6538 0 64V448C0 483.346 28.6538 512 64 512H448C483.346 512 512 483.346 512 448V64C512 28.6538 483.346 0 448 0Z" fill="#2A2A2A"/>
<path d="M394.803 263.761C386.57 259.012 377.725 256.355 368.838 255.614C377.725 254.874 386.57 252.26 394.803 247.512C424.625 230.281 434.863 192.139 417.632 162.318C400.401 132.497 362.259 122.259 332.438 139.49C324.204 144.238 317.516 150.599 312.441 157.918C316.231 149.858 318.366 140.862 318.366 131.365C318.366 96.9258 290.44 69 256 69C221.56 69 193.634 96.9258 193.634 131.365C193.634 140.862 195.769 149.858 199.559 157.918C194.484 150.599 187.775 144.238 179.562 139.49C149.741 122.259 111.598 132.497 94.3677 162.318C77.1371 192.139 87.3752 230.281 117.197 247.512C125.431 252.26 134.275 254.874 143.162 255.614C134.275 256.355 125.431 259.012 117.197 263.761C87.3752 280.97 77.1371 319.111 94.3677 348.954C111.598 378.776 149.741 389.013 179.562 371.783C187.796 367.035 194.506 360.695 199.603 353.376C195.791 361.436 193.634 370.411 193.634 379.908C193.634 414.347 221.56 442.272 256 442.272C290.44 442.272 318.366 414.347 318.366 379.908C318.366 370.411 316.209 361.436 312.397 353.376C317.473 360.695 324.204 367.035 332.438 371.783C362.259 389.013 400.401 378.776 417.632 348.954C434.863 319.133 424.625 280.992 394.803 263.761ZM309.609 286.59C299.392 304.277 298.827 324.884 306.298 342.332L256 255.68L205.702 342.332C213.152 324.884 212.608 304.277 202.391 286.59C192.175 268.902 174.596 258.097 155.775 255.855L255.978 255.636L206.073 168.744C217.444 183.926 235.589 193.751 256 193.751C276.412 193.751 294.556 183.926 305.927 168.744L256.022 255.636L356.225 255.855C337.383 258.119 319.826 268.902 309.609 286.59Z" fill="#E8E8EC"/>
</g>
<defs>
<clipPath id="clip0_904_17">
<rect width="512" height="512" fill="white"/>
</clipPath>
</defs>
</svg>
