<?xml version="1.0" encoding="UTF-8"?>
<svg version="1.1" xmlns="http://www.w3.org/2000/svg" width="2000" height="2000" viewBox="0 0 2000 2000">
<path d="M0 0 C660 0 1320 0 2000 0 C2000 660 2000 1320 2000 2000 C1340 2000 680 2000 0 2000 C0 1340 0 680 0 0 Z " fill="#2A2A2A" transform="translate(0,0)"/>
<path d="M0 0 C0.79694275 0.07261047 1.5938855 0.14522095 2.41497803 0.22003174 C46.21857301 4.22583567 90.7589474 11.5923141 132.88378906 24.36328125 C135.63590668 25.19132956 138.39577851 25.99148448 141.15608215 26.79173279 C158.09416854 31.72119011 174.82502893 37.19189275 191.4375 43.125 C192.80122742 43.6112233 192.80122742 43.6112233 194.19250488 44.10726929 C210.09231894 49.79423783 225.60696657 56.04695297 241 63 C243.01016705 63.89509204 245.02057925 64.78963376 247.03125 65.68359375 C275.25862723 78.30250039 302.62485912 92.86868338 329 109 C329.78568359 109.47969238 330.57136719 109.95938477 331.38085938 110.45361328 C362.20257995 129.37047669 391.2071322 150.66136815 419.18261719 173.51904297 C420.80707781 174.8427907 422.43825346 176.15828809 424.0703125 177.47265625 C429.71170713 182.0291673 435.12767045 186.77038886 440.46484375 191.6796875 C442.53325758 193.57281203 444.62405876 195.42251704 446.75 197.25 C458.1006242 207.17614347 468.8310979 217.72864545 479.5 228.375 C480.06612 228.9385318 480.63223999 229.5020636 481.21551514 230.08267212 C486.81880752 235.66576203 492.37536583 241.24913917 497.51464844 247.26953125 C499.88349163 250.02928808 502.38730509 252.66032593 504.875 255.3125 C509.33826707 260.10995628 513.56974429 265.03162373 517.671875 270.14453125 C519.81402 272.77189366 522.01110745 275.33375009 524.23828125 277.88842773 C530.97906753 285.63184065 537.24705565 293.67958026 543.41064453 301.88720703 C544.93133815 303.90872509 546.46210146 305.92215711 547.99609375 307.93359375 C602.60286188 379.76124214 647.3381012 464.53943007 670.88671875 551.94140625 C671.84126887 555.46823503 672.8973194 558.95373222 674 562.4375 C678.70798983 577.56522244 682.21702904 592.97742522 685.48486328 608.47021484 C686.12471185 611.4986362 686.77479297 614.5247373 687.42578125 617.55078125 C694.09580893 648.80873901 698.86771902 681.09494197 701 713 C701.08878418 714.30855957 701.17756836 715.61711914 701.26904297 716.96533203 C703.99212894 758.38274054 704.83072792 800.23479548 700.37158203 841.54638672 C700.05049796 844.53065434 699.76122681 847.51426364 699.49609375 850.50390625 C699.06179726 855.34383457 698.54288224 860.17116052 698 865 C697.87544434 866.13727539 697.75088867 867.27455078 697.62255859 868.44628906 C695.55999755 887.01647534 692.62443778 905.16588473 688.73095703 923.44555664 C687.9496674 927.24475364 687.24595321 931.05552108 686.55078125 934.87109375 C685.05441257 943.00280759 683.21246649 951.03194144 681.25 959.0625 C681.07769867 959.77211884 680.90539734 960.48173767 680.72787476 961.21286011 C677.81811147 973.15863471 674.50726431 984.93418529 670.75097656 996.64404297 C670.08347692 998.73811694 669.43737463 1000.8366092 668.8046875 1002.94140625 C648.02020127 1071.47207238 617.02210992 1137.00306511 578 1197 C577.07985107 1198.41708252 577.07985107 1198.41708252 576.14111328 1199.86279297 C567.98955564 1212.37042085 559.5630124 1224.5130537 550.34863281 1236.25878906 C548.46375796 1238.69233856 546.66673821 1241.1848697 544.875 1243.6875 C536.95425026 1254.65724128 528.37438482 1265.04289043 519.50732422 1275.25439453 C518.01564678 1276.98187975 516.53879474 1278.72090215 515.06640625 1280.46484375 C508.70407573 1287.98742622 502.11828067 1295.2539584 495.359375 1302.421875 C493.3057344 1304.60053994 491.26997659 1306.79153709 489.265625 1309.015625 C483.76981135 1315.11098195 478.105082 1320.99922349 472.3125 1326.8125 C471.6114917 1327.51810059 470.9104834 1328.22370117 470.18823242 1328.95068359 C466.18935682 1332.93779641 462.09458178 1336.74793642 457.79956055 1340.41479492 C455.95326998 1342.04116375 454.22232234 1343.7435825 452.5 1345.5 C448.83717092 1349.21199457 444.95893845 1352.60846641 441 1356 C440.00226563 1356.86367187 439.00453125 1357.72734375 437.9765625 1358.6171875 C423.36879083 1371.23960298 408.47561977 1383.45401591 393 1395 C392.33548828 1395.49757813 391.67097656 1395.99515625 390.98632812 1396.5078125 C362.43445519 1417.78940364 332.14298384 1436.77897473 301 1454 C299.52394287 1454.82032715 299.52394287 1454.82032715 298.01806641 1455.65722656 C254.90726812 1479.56788915 209.44604386 1497.36723443 162.90167236 1513.3470459 C161.25533212 1513.91232972 159.60977133 1514.4798827 157.96435547 1515.04785156 C147.74589163 1518.54535394 137.35291955 1521.27283953 126.875 1523.875 C125.64007812 1524.18614746 124.40515625 1524.49729492 123.1328125 1524.81787109 C113.26011683 1527.19577882 105.49990364 1528.62387933 96.296875 1523.55078125 C90.64250898 1519.73312256 86.90113879 1514.57724986 85 1508 C84.56240314 1503.86412619 84.59392548 1499.74996994 84.61688995 1495.5941267 C84.61193044 1494.33796086 84.60697092 1493.08179501 84.60186112 1491.78756353 C84.58851499 1488.29703051 84.59383783 1484.80673712 84.60219461 1481.31619777 C84.60799689 1477.52014876 84.59645573 1473.72414599 84.58713293 1469.92810947 C84.57320949 1463.27370892 84.57049012 1456.61937637 84.57509232 1449.96496391 C84.58191825 1440.06956419 84.57167467 1430.17423343 84.55813476 1420.27884329 C84.53320511 1401.57826815 84.52870669 1382.87772153 84.53060073 1364.17713245 C84.531973 1349.7375435 84.52816003 1335.29796446 84.52067566 1320.85837746 C84.51962533 1318.78493602 84.51857771 1316.71149459 84.5175328 1314.63805315 C84.51701345 1313.60882814 84.51649411 1312.57960313 84.51595903 1311.51918947 C84.51543888 1310.4880961 84.51491874 1309.45700273 84.51438284 1308.39466411 C84.51385885 1307.36186358 84.51333486 1306.32906306 84.51279498 1305.26496555 C84.49820828 1276.20997491 84.4899307 1247.15498792 84.49454498 1218.09999371 C84.49471694 1217.00430855 84.49488889 1215.90862339 84.49506606 1214.77973566 C84.49595497 1209.22618805 84.49689978 1203.67264044 84.49786407 1198.11909284 C84.4980551 1197.0161129 84.49824613 1195.91313296 84.49844296 1194.77672939 C84.49883005 1192.54623508 84.49922037 1190.31574077 84.49961393 1188.08524646 C84.50558434 1153.37654658 84.49014526 1118.66791336 84.45800781 1083.95922852 C84.42194322 1044.97601496 84.4025965 1005.99284368 84.40754652 967.00961238 C84.40801651 962.8540982 84.40842676 958.69858403 84.40879822 954.54306984 C84.4089006 953.51985507 84.40900299 952.49664029 84.40910848 951.44241901 C84.41030405 935.98610089 84.39832641 920.5298284 84.37965393 905.07352257 C84.35843153 887.49785323 84.35455211 869.92227969 84.37395352 852.3466061 C84.38429153 842.50830246 84.38077968 832.67023239 84.35742267 822.83194979 C84.34320522 816.2614923 84.34713814 809.69120788 84.36586843 803.12076212 C84.37603172 799.37621554 84.37831599 795.63212403 84.35854775 791.88760563 C84.33743751 787.85250716 84.35503581 783.8184936 84.37638092 779.78339672 C84.36410339 778.62284782 84.35182587 777.46229891 84.3391763 776.26658186 C84.43393576 767.71945453 86.35553542 760.83213635 92.3515625 754.52734375 C93.47691406 753.74037109 93.47691406 753.74037109 94.625 752.9375 C95.75808594 752.11572266 95.75808594 752.11572266 96.9140625 751.27734375 C103.01850206 747.53923188 111.10163594 748.40871165 118 749 C121.31583891 750.10198521 123.49461225 751.5921456 126 754 C126.84111328 754.77923828 126.84111328 754.77923828 127.69921875 755.57421875 C134.94492744 763.10063286 135.44085674 772.03463217 135.36914349 782.02397251 C135.37260502 783.21453032 135.37606655 784.40508812 135.37963298 785.63172343 C135.38619379 788.92897523 135.37934929 792.22570032 135.36679858 795.52290152 C135.35646332 799.11262247 135.36361457 802.7023161 135.36853105 806.29204267 C135.37474409 812.58081426 135.36983496 818.86950059 135.35761642 825.15826225 C135.33949852 834.50937857 135.3386102 843.86044124 135.34124239 853.21157191 C135.34518279 868.94223774 135.3351648 884.67286576 135.31719017 900.40352058 C135.29943879 915.97872161 135.28789227 931.55390689 135.28463173 947.12911797 C135.28442551 948.09755571 135.28421929 949.06599345 135.28400682 950.06377779 C135.28299182 954.98198854 135.28208767 959.90019931 135.2812262 964.81841009 C135.27492505 999.65360899 135.25471322 1034.4887873 135.22631836 1069.32397461 C135.19876507 1103.16577037 135.17751422 1137.0075605 135.16479492 1170.84936523 C135.16440034 1171.89252658 135.16400576 1172.93568793 135.16359923 1174.01046022 C135.15964367 1184.48632015 135.15581623 1194.96218012 135.15208265 1205.43804013 C135.14447402 1226.77855354 135.13601027 1248.11906659 135.12702942 1269.45957947 C135.12661755 1270.44078062 135.12620568 1271.42198176 135.12578133 1272.43291628 C135.09817958 1337.95528608 135.050644 1403.47764446 135 1469 C139.4042961 1467.54398106 143.80753083 1466.08480553 148.20991516 1464.62301636 C149.69957442 1464.12883438 151.18949327 1463.63543409 152.67970276 1463.14291382 C204.87264898 1445.88895618 254.83319711 1423.2984766 302 1395 C302.88896973 1394.46793945 303.77793945 1393.93587891 304.69384766 1393.38769531 C340.43184201 1371.90071987 375.09491161 1347.14186789 405.890625 1318.9296875 C407.83789502 1317.14829604 409.81524471 1315.4124023 411.8125 1313.6875 C422.40516375 1304.43167936 432.48593368 1294.67677501 442.41357422 1284.71679688 C444.3904601 1282.73449756 446.37271039 1280.75767367 448.35546875 1278.78125 C454.45012019 1272.68979398 460.44219533 1266.59229409 466 1260 C467.45445517 1258.39231627 468.91220895 1256.78760285 470.375 1255.1875 C474.27363397 1250.86739209 477.97503858 1246.41928619 481.6328125 1241.89453125 C483.68380944 1239.38662905 485.77395095 1236.91923913 487.88671875 1234.46337891 C522.1823589 1194.5050274 550.11933485 1148.78355315 574 1102 C574.38140137 1101.25379395 574.76280273 1100.50758789 575.15576172 1099.73876953 C577.14502965 1095.83452168 579.10380426 1091.9165722 581.03027344 1087.98095703 C581.69466965 1086.62372872 582.36214362 1085.26800394 583.03222656 1083.91357422 C602.20478763 1045.05193103 617.24136052 1003.00172855 628 961 C628.17047852 960.33484375 628.34095703 959.6696875 628.51660156 958.984375 C629.37469109 955.62258873 630.21583815 952.25720838 631.0390625 948.88671875 C631.65250768 946.38005481 632.296146 943.88885058 632.9609375 941.39453125 C635.80369697 930.60341628 637.80492299 919.69505695 639.77734375 908.71484375 C640.49613011 904.7174025 641.24338958 900.73117497 642.06640625 896.75390625 C655.24256569 832.8064632 655.98890203 763.55210651 648.33154297 698.85839844 C648.00057759 696.00497966 647.69157184 693.14957484 647.38575745 690.29336548 C645.38469426 671.6838162 642.77389872 653.34610619 639 635 C638.72471439 633.65137897 638.4494889 632.30274567 638.17431641 630.95410156 C634.81677277 614.5523937 631.39115523 598.16116036 627 582 C626.66162109 580.74002197 626.66162109 580.74002197 626.31640625 579.45458984 C615.93358681 541.2135434 601.81353798 503.86187538 585 468 C584.57460937 467.0836377 584.14921875 466.16727539 583.7109375 465.22314453 C571.65282751 439.31112746 558.31335197 414.14057503 543 390 C542.45778809 389.1426123 541.91557617 388.28522461 541.35693359 387.40185547 C525.77366421 362.85504836 508.89593093 339.08730297 490.37207031 316.671875 C488.54995637 314.45161943 486.77513136 312.19540768 485 309.9375 C475.86624894 298.50112262 466.00051185 287.67752345 456 277 C455.37689941 276.33178223 454.75379883 275.66356445 454.11181641 274.97509766 C438.82028852 258.38270532 438.82028852 258.38270532 422.3125 243.03125 C419.70346029 240.73952593 417.18267906 238.36646253 414.65722656 235.98339844 C408.85811563 230.51205084 403.01045819 225.22498425 396.7734375 220.25 C394.7816112 218.63409585 392.8395771 217.00342809 390.9140625 215.3125 C381.79349605 207.30442882 372.23708654 199.99202499 362.45800781 192.80664062 C360.2242857 191.16485044 357.99837646 189.51303158 355.7734375 187.859375 C346.30851774 180.87738747 336.58670416 174.28777585 326.8125 167.75 C326.18909729 167.33174957 325.56569458 166.91349915 324.92340088 166.48257446 C275.65730698 133.47755399 221.91473831 107.56437013 166 88 C164.15535156 87.35417969 164.15535156 87.35417969 162.2734375 86.6953125 C135.6229915 77.43778915 108.61705174 69.6491883 81.04101562 63.66308594 C78.05990036 63.01306113 75.08472524 62.33991757 72.109375 61.6640625 C57.31687945 58.37232247 42.45775375 56.31602211 27.42871094 54.45336914 C24.18051515 54.02386903 20.95547499 53.51601543 17.72265625 52.984375 C10.33510635 51.82623578 2.92534114 51.20585206 -4.52539062 50.62231445 C-6.83783457 50.44042334 -9.14935275 50.2491084 -11.4609375 50.05664062 C-31.73080847 48.40704254 -51.98004379 47.81772313 -72.3125 47.875 C-73.33791901 47.87688324 -74.36333801 47.87876648 -75.41983032 47.88070679 C-90.96506076 47.91405496 -106.48162922 47.99881479 -122 49 C-123.28084473 49.08088867 -124.56168945 49.16177734 -125.88134766 49.24511719 C-157.29324583 51.29223834 -189.04763061 54.78641679 -219.67773438 62.21044922 C-223.84453496 63.20070738 -228.02333931 64.13276288 -232.203125 65.06640625 C-262.13311113 71.69334883 -262.13311113 71.69334883 -291.328125 80.94921875 C-295.29776769 82.41712677 -299.2840232 83.72660032 -303.3359375 84.94921875 C-347.38229701 98.3058394 -390.87663641 118.23534622 -430.50341797 141.53857422 C-432.94002839 142.96489438 -435.39032984 144.36363599 -437.84765625 145.75390625 C-455.45190041 155.74486755 -472.48731073 166.61575801 -488.890625 178.47607422 C-491.11975679 180.08651873 -493.35626108 181.68634653 -495.59375 183.28515625 C-518.69213276 199.82650072 -541.03109762 217.47503622 -561.67602539 237.01733398 C-564.58431835 239.76772158 -567.51726011 242.45317607 -570.56640625 245.046875 C-576.37531055 250.09672484 -581.75135715 255.60252694 -587.18188477 261.05151367 C-589.05829475 262.93328274 -590.93998969 264.80964738 -592.82226562 266.68554688 C-598.23413529 272.09441433 -603.60470279 277.48771967 -608.56518555 283.32006836 C-610.91177618 286.06753988 -613.4038321 288.67755747 -615.875 291.3125 C-621.17351957 297.01460648 -626.13300067 302.92415181 -631 309 C-632.02995495 310.26277613 -633.06129754 311.52442127 -634.09375 312.78515625 C-640.87940202 321.07672838 -647.5875445 329.41496629 -654 338 C-654.46277344 338.61939453 -654.92554688 339.23878906 -655.40234375 339.87695312 C-682.06547132 375.76962485 -704.88777288 414.10971117 -725 454 C-725.4935498 454.97630371 -725.98709961 455.95260742 -726.49560547 456.95849609 C-740.08584578 484.03766501 -751.23237279 512.34340437 -761 541 C-761.638846 542.83870744 -762.27814481 544.67725763 -762.91796875 546.515625 C-774.72965206 580.79737795 -782.85244643 616.30238211 -789 652 C-789.19045898 653.08700195 -789.38091797 654.17400391 -789.57714844 655.29394531 C-792.02652491 669.44540612 -793.703948 683.65818432 -795.1875 697.9375 C-795.27235657 698.74599396 -795.35721313 699.55448792 -795.44464111 700.38748169 C-797.85991537 723.62776762 -798.24599658 746.77762359 -798.25 770.125 C-798.25029457 770.91326298 -798.25058914 771.70152596 -798.25089264 772.51367569 C-798.25332495 812.87925258 -795.13534911 852.08624427 -789 892 C-788.89471985 892.68884277 -788.7894397 893.37768555 -788.68096924 894.08740234 C-784.39583433 921.95791275 -778.33587798 950.14233845 -769.63671875 976.98779297 C-768.80451317 979.61779234 -768.06329642 982.26963936 -767.31884766 984.92553711 C-742.79590606 1071.66097131 -698.00013962 1155.11329717 -633.44433594 1235.23535156 C-632.1440022 1236.82406222 -630.85634753 1238.42313025 -629.5703125 1240.0234375 C-624.84752486 1245.88910614 -619.90357106 1251.47289293 -614.7734375 1256.98046875 C-612.67258401 1259.24510979 -610.63238205 1261.55569773 -608.60546875 1263.88671875 C-596.5429596 1277.72649874 -583.8119635 1291.56889979 -569.77734375 1303.4375 C-567.8132692 1305.16415895 -566.00882333 1306.99870715 -564.1875 1308.875 C-560.32104546 1312.8018679 -556.13881026 1316.2107621 -551.84375 1319.65625 C-549.03029056 1321.97503525 -546.35766512 1324.39331712 -543.6875 1326.875 C-537.95085917 1332.14650779 -531.90071582 1336.92494058 -525.72900391 1341.66943359 C-524.11007395 1342.91529186 -522.49813076 1344.1702143 -520.88671875 1345.42578125 C-505.67587882 1357.23495939 -490.16097039 1368.52450442 -474 1379 C-473.16130371 1379.54624023 -472.32260742 1380.09248047 -471.45849609 1380.65527344 C-422.54528391 1412.44206156 -370.37667363 1438.79849094 -315.3125 1458.125 C-314.56166138 1458.38908661 -313.81082275 1458.65317322 -313.03723145 1458.92526245 C-305.14552699 1461.68766332 -297.22637552 1464.24615659 -289.20280457 1466.59518433 C-288.41343805 1466.82678977 -287.62407153 1467.05839521 -286.81078482 1467.297019 C-284.8740095 1467.86520096 -282.93702551 1468.43267155 -281 1469 C-281.00116985 1468.08950663 -281.00116985 1468.08950663 -281.00236334 1467.16061945 C-281.08708536 1401.0837286 -281.1656138 1335.00683153 -281.2117157 1268.92990112 C-281.21240598 1267.94305568 -281.21309627 1266.95621023 -281.21380747 1265.93946038 C-281.22877159 1244.4932682 -281.24262256 1223.04707545 -281.25532665 1201.60088182 C-281.2615634 1191.08385598 -281.26804616 1180.5668303 -281.2746582 1170.04980469 C-281.2756389 1168.47993898 -281.2756389 1168.47993898 -281.2766394 1166.87835882 C-281.29795069 1132.94846593 -281.33551062 1099.01861465 -281.3814861 1065.08874697 C-281.42864142 1030.22488193 -281.45942544 995.36103992 -281.46957495 960.49714353 C-281.47101575 955.57421537 -281.47264393 950.65128728 -281.47438622 945.72835922 C-281.47472333 944.75944497 -281.47506045 943.79053071 -281.47540778 942.79225541 C-281.48131912 927.18787769 -281.50451681 911.58357111 -281.53416017 895.97922241 C-281.56358489 880.29613032 -281.57484279 864.61310886 -281.56750689 848.92999013 C-281.56370056 839.6093815 -281.57387311 830.28903111 -281.60398772 820.96846905 C-281.62273035 814.74286462 -281.62332323 808.51742939 -281.60915907 802.2918133 C-281.60160705 798.74408329 -281.60194552 795.19684181 -281.62441591 791.6491641 C-281.64845135 787.82530847 -281.6336988 784.00215408 -281.61523914 780.17825508 C-281.63494175 778.53069105 -281.63494175 778.53069105 -281.65504238 776.84984291 C-281.56558292 768.67097627 -279.66208575 761.97656372 -274.02413179 755.85445607 C-268.98701507 751.1016043 -263.72630444 747.95766095 -256.6875 747.5625 C-248.82277642 747.85776266 -241.35292427 751.27361589 -236 757 C-231.07616792 764.45225292 -230.28221309 770.99931673 -230.3707943 779.77501678 C-230.36352709 781.03464416 -230.35625989 782.29427154 -230.34877247 783.59206945 C-230.3293696 787.07848244 -230.34091488 790.56419963 -230.35766223 794.0506008 C-230.37037477 797.84724756 -230.35403477 801.64378974 -230.34144557 805.44042158 C-230.32340148 812.09122978 -230.32392595 818.741835 -230.33668137 825.39265251 C-230.35559751 835.28262548 -230.34592323 845.17242728 -230.33063983 855.0623991 C-230.30430956 872.72603451 -230.30659368 890.3895795 -230.32103439 908.05322351 C-230.33360968 923.51091012 -230.33689684 938.96856359 -230.33092117 954.42625427 C-230.33034828 955.96397075 -230.33034828 955.96397075 -230.32976382 957.53275221 C-230.32820714 961.69409463 -230.32661514 965.85543704 -230.324965 970.01677942 C-230.30966827 1009.05737518 -230.32354006 1048.09791334 -230.35044949 1087.13850021 C-230.37417772 1121.82755313 -230.37205459 1156.51651428 -230.34814453 1191.20556641 C-230.32137429 1230.17452481 -230.31075308 1269.14343231 -230.32620585 1308.11239862 C-230.32780945 1312.26618098 -230.32937365 1316.41996335 -230.33092117 1320.57374573 C-230.33131656 1321.596521 -230.33171195 1322.61929627 -230.33211931 1323.67306473 C-230.33780789 1339.12144819 -230.33115305 1354.56979486 -230.31852341 1370.01817322 C-230.30423529 1387.58279919 -230.30778377 1405.14732057 -230.33492713 1422.71193349 C-230.349619 1432.5435797 -230.35055209 1442.37499945 -230.33169625 1452.20663983 C-230.32049186 1458.77256623 -230.32744832 1465.33831093 -230.3492201 1471.90421038 C-230.36112232 1475.64610523 -230.36516476 1479.38754991 -230.34719019 1483.12943071 C-230.32801839 1487.16165649 -230.34753119 1491.19277932 -230.3707943 1495.22498322 C-230.35323555 1496.96452026 -230.35323555 1496.96452026 -230.33532208 1498.73919946 C-230.43002472 1506.92568984 -232.13514562 1513.68492217 -237.70945623 1519.90859368 C-242.90650455 1524.86528928 -248.75943075 1527.08655714 -255.875 1527.5 C-263.33727325 1527.26552967 -270.31675379 1524.89992623 -277.40673828 1522.76074219 C-280.01985451 1521.99417561 -282.64260539 1521.2898873 -285.27734375 1520.6015625 C-333.70458853 1507.82558321 -380.39138696 1488.62197369 -425 1466 C-426.68488525 1465.14921875 -426.68488525 1465.14921875 -428.40380859 1464.28125 C-488.70796983 1433.7132471 -545.51276664 1394.74101659 -595.0859375 1348.66796875 C-597.24056867 1346.69529705 -599.41435138 1344.78012401 -601.62915039 1342.87792969 C-606.22284463 1338.8627619 -610.54052442 1334.60364114 -614.84765625 1330.28515625 C-615.66318466 1329.47058456 -616.47871307 1328.65601288 -617.31895447 1327.8167572 C-619.03198008 1326.10440807 -620.74375965 1324.39081158 -622.4543457 1322.67602539 C-625.05503552 1320.06997985 -627.66101956 1317.46931478 -630.26757812 1314.86914062 C-631.94042486 1313.19563301 -633.61296134 1311.52181518 -635.28515625 1309.84765625 C-636.05513443 1309.0797023 -636.82511261 1308.31174835 -637.61842346 1307.52052307 C-642.28017096 1302.83876766 -646.69524593 1298.01021061 -651 1293 C-652.45445517 1291.39231627 -653.91220895 1289.78760285 -655.375 1288.1875 C-659.62648533 1283.47156669 -663.65047079 1278.60234542 -667.64257812 1273.66650391 C-669.19372936 1271.76215888 -670.75988929 1269.87076869 -672.328125 1267.98046875 C-679.40193135 1259.45105907 -686.34609609 1250.86303856 -693 1242 C-693.5043457 1241.33371582 -694.00869141 1240.66743164 -694.52832031 1239.98095703 C-709.08582337 1220.71725224 -722.30971422 1200.53308497 -735 1180 C-735.38140137 1179.38495605 -735.76280273 1178.76991211 -736.15576172 1178.13623047 C-772.44278808 1119.39122363 -799.90467994 1055.534759 -819.04931641 989.25927734 C-819.86522825 986.46204489 -820.70926341 983.67686974 -821.57421875 980.89453125 C-834.61569279 938.31497679 -841.68599135 893.23602399 -846 849 C-846.08463501 848.13407227 -846.16927002 847.26814453 -846.25646973 846.37597656 C-851.12026811 795.649069 -851.78290058 742.66987872 -846 692 C-845.92503296 691.33055359 -845.85006592 690.66110718 -845.77282715 689.97137451 C-844.7190783 680.61545645 -843.43801348 671.3040485 -842 662 C-841.71769531 660.16550293 -841.71769531 660.16550293 -841.4296875 658.29394531 C-837.8946836 635.64046197 -833.70343649 613.0688506 -828.4375 590.75 C-828.26412109 590.01450928 -828.09074219 589.27901855 -827.91210938 588.52124023 C-810.41535027 516.58397841 -782.26010878 445.01052732 -743.68701172 381.76660156 C-741.90258258 378.84024107 -740.13977952 375.90152534 -738.37890625 372.9609375 C-731.86151124 362.11579648 -725.19476958 351.40896304 -718 341 C-717.20360107 339.84636963 -717.20360107 339.84636963 -716.39111328 338.66943359 C-708.76781331 327.65274368 -701.03014609 316.72441031 -693 306 C-692.59894043 305.46391113 -692.19788086 304.92782227 -691.78466797 304.37548828 C-678.50609693 286.70147689 -664.17736809 269.72507859 -649.2265625 253.4453125 C-647.2980008 251.32727807 -645.42280484 249.17770283 -643.5625 247 C-639.87635031 242.74742069 -635.86730252 238.8351307 -631.84375 234.90625 C-629.66529973 232.7362867 -627.65309058 230.46334695 -625.65234375 228.12890625 C-622.03187157 223.95113539 -618.11921933 220.18708601 -614.0625 216.4375 C-612.56508714 215.04168493 -611.06769175 213.64585112 -609.5703125 212.25 C-608.81395508 211.54746094 -608.05759766 210.84492188 -607.27832031 210.12109375 C-605.05040627 208.04692774 -602.83204545 205.96309501 -600.6171875 203.875 C-599.91456787 203.21314697 -599.21194824 202.55129395 -598.48803711 201.86938477 C-597.16796119 200.62569376 -595.84841961 199.38143525 -594.52954102 198.13647461 C-575.95471898 180.68680381 -555.97515692 164.65790003 -535.35400391 149.70996094 C-533.10819416 148.07859281 -530.87143081 146.43558578 -528.63671875 144.7890625 C-516.36379426 135.78410115 -503.73792612 127.33074811 -491 119 C-490.18450684 118.4652002 -489.36901367 117.93040039 -488.52880859 117.37939453 C-416.18942888 70.15209182 -334.72662634 37.22131714 -243.828125 15.66821289 C-241.73985853 15.17480946 -239.65724911 14.65731878 -237.578125 14.12670898 C-223.95442383 10.69783849 -210.12211344 8.59262609 -196.25 6.4375 C-194.9776651 6.23857147 -193.7053302 6.03964294 -192.3944397 5.83468628 C-174.29468863 3.01319291 -156.2791564 0.32113012 -138 -1 C-136.7718457 -1.09861328 -135.54369141 -1.19722656 -134.27832031 -1.29882812 C-89.6578169 -4.79977066 -44.54395109 -4.14225567 0 0 Z " fill="#E7E7EB" transform="translate(1073,233)"/>
<path d="M0 0 C1.1164964 -0.00175304 2.2329928 -0.00350607 3.38332242 -0.00531223 C7.12134256 -0.00996096 10.85932361 -0.00750961 14.59734535 -0.00507832 C17.30584173 -0.00639547 20.0143361 -0.00920797 22.72283137 -0.01194364 C28.61024594 -0.01708751 34.4976523 -0.0185166 40.38506889 -0.01748753 C49.14046281 -0.01596091 57.89584765 -0.02012816 66.6512398 -0.02536215 C83.2011215 -0.03502936 99.7510001 -0.03784618 116.30088429 -0.03841921 C129.08556359 -0.03887897 141.87024167 -0.04093847 154.65492058 -0.04411983 C158.33672066 -0.0450174 162.01852075 -0.04590722 165.70032084 -0.04679471 C166.6156725 -0.04701576 167.53102417 -0.04723681 168.47411376 -0.04746456 C194.22003182 -0.05361838 219.96594946 -0.05756517 245.71186829 -0.05712128 C247.16770457 -0.05709791 247.16770457 -0.05709791 248.65295168 -0.05707407 C253.5719736 -0.05699096 258.49099551 -0.05689192 263.41001742 -0.05678936 C264.87537785 -0.05675944 264.87537785 -0.05675944 266.37034152 -0.05672892 C268.34588706 -0.05668848 270.3214326 -0.05664669 272.29697813 -0.05660353 C303.01857541 -0.05599107 333.74016164 -0.06349214 364.46175575 -0.07717609 C398.99130739 -0.0925499 433.52085177 -0.1011415 468.05040705 -0.10021287 C471.73535069 -0.10013824 475.42029432 -0.10008954 479.10523796 -0.10005856 C480.46618729 -0.10004107 480.46618729 -0.10004107 481.85463054 -0.10002324 C496.43177839 -0.09999251 511.00891663 -0.1063683 525.58606162 -0.11499082 C540.2487071 -0.12348424 554.91133856 -0.12444408 569.57398514 -0.1178815 C578.2748002 -0.11419683 586.97557259 -0.11598567 595.67638308 -0.12582384 C601.5012753 -0.1318512 607.32613682 -0.13049796 613.15102766 -0.12335334 C616.46140234 -0.11949486 619.77162837 -0.11975561 623.08200745 -0.12681069 C643.39319249 -0.16720915 662.96715185 0.37548789 682.5491581 6.12863445 C683.55849403 6.41480633 684.56782997 6.7009782 685.60775185 6.99582195 C714.87309968 15.96999917 738.6057436 35.126358 753.42342567 61.84323406 C765.74540273 85.23312041 768.63106593 113.36303806 763.5491581 139.12863445 C763.37771278 140.2578532 763.20626747 141.38707195 763.02962685 142.55050945 C758.16725207 171.78749846 740.76770883 200.72367887 716.87337685 218.36593914 C705.11067886 226.68346768 692.45571261 232.3562029 678.5491581 236.12863445 C677.41993935 236.48828289 676.2907206 236.84793133 675.1272831 237.2184782 C668.6030221 238.82065617 661.78865299 238.47607901 655.1116581 238.44113445 C654.03926888 238.43840023 654.03926888 238.43840023 652.94521523 238.43561077 C625.29874158 238.31662202 601.12066261 230.85630966 580.7835331 211.49582195 C562.40682749 192.16082189 555.93414608 169.23157014 556.27962685 143.2262907 C556.97940451 120.86442997 568.82710705 100.81598083 584.70931435 85.5700407 C602.74310326 70.0664395 624.29179582 62.30899714 648.0413456 62.8434782 C655.07769265 63.41547523 660.73929063 65.77681009 665.5491581 71.12863445 C670.83136529 77.41432165 671.53552861 84.36054431 671.09993935 92.3044157 C670.30697985 97.81014159 668.37917723 101.17591448 664.5491581 105.12863445 C664.05802528 105.63781414 663.56689247 106.14699383 663.06087685 106.6716032 C657.17243134 112.08389409 652.09123552 113.20391614 644.3616581 113.50363445 C633.37565195 114.06757554 623.20806126 118.00111771 615.5491581 126.12863445 C608.08491718 136.96654358 606.45258922 146.22079369 607.5491581 159.12863445 C608.36302417 162.58872794 609.58154127 165.18640369 611.5491581 168.12863445 C611.97325966 168.80925945 612.39736122 169.48988445 612.83431435 170.19113445 C618.90408636 179.11826432 627.16935838 184.45044684 637.5491581 187.12863445 C642.08743903 187.63791192 646.54954811 187.64536437 651.1116581 187.56613445 C652.8431913 187.57676922 652.8431913 187.57676922 654.60970497 187.58761883 C670.44739707 187.47083494 682.40485476 181.71117172 693.8382206 170.98019695 C703.54542415 160.93941252 709.22440117 148.5922541 712.5491581 135.12863445 C712.72358437 134.46452557 712.89801064 133.80041668 713.07772255 133.11618328 C717.28597044 116.07042571 715.08877272 98.86000521 707.2991581 83.25363445 C697.6771858 67.47842596 682.76858135 58.8517086 665.3616581 53.98800945 C656.13324929 51.90783534 647.26733027 50.83350473 637.80981255 50.87415886 C636.12474372 50.86934914 636.12474372 50.86934914 634.40563309 50.86444226 C630.65624183 50.85616711 626.90701134 50.86205793 623.15761757 50.86793804 C620.43629212 50.86602142 617.71497387 50.86110717 614.99365211 50.85634547 C609.08450897 50.84760461 603.1754005 50.84626382 597.26625252 50.84984875 C588.4787976 50.85516574 579.69137611 50.84905042 570.90392483 50.84076581 C554.29469246 50.82553711 537.68547536 50.8238196 521.07623747 50.82628884 C508.24866412 50.82812259 495.42109576 50.82636018 482.59352303 50.8220644 C480.74959073 50.82146199 478.90565843 50.8208608 477.06172614 50.8202608 C474.2829763 50.81935353 471.50422646 50.81844486 468.72547662 50.81752845 C442.89452871 50.80910053 417.06358268 50.80476209 391.23263359 50.80893517 C389.77239546 50.80916973 389.77239546 50.80916973 388.28265758 50.80940903 C383.34879237 50.8102148 378.41492717 50.81106057 373.48106197 50.81192233 C372.50120902 50.81209342 371.52135608 50.81226451 370.51181062 50.81244078 C368.5303105 50.81278744 366.54881038 50.81313597 364.56731026 50.81348637 C333.73800603 50.81884307 302.90873042 50.81091393 272.07943153 50.79245281 C237.4290441 50.77172779 202.77867438 50.76101108 168.1282804 50.7650283 C164.43220568 50.76542363 160.73613096 50.76578518 157.04005623 50.76612568 C156.13001368 50.76621641 155.21997114 50.76630714 154.28235155 50.76640062 C140.55601522 50.76756565 126.8296968 50.76092551 113.10336494 50.75031376 C97.48855021 50.73825422 81.87377489 50.73671149 66.25895956 50.74910393 C57.52616998 50.75572476 48.79347469 50.7541194 40.06069268 50.74051541 C34.21966104 50.7322522 28.3786998 50.7349927 22.53767384 50.74649068 C19.21478513 50.7527287 15.89222932 50.7527223 12.5693281 50.74262735 C-13.7489792 50.66824126 -40.42577208 52.92510596 -60.4508419 72.12863445 C-72.34872378 86.06747852 -76.86294841 103.88809924 -75.66666222 122.00021648 C-73.62058822 142.1785797 -65.34646282 161.13788771 -50.4508419 175.12863445 C-39.04993994 184.27146304 -27.84481424 187.83120403 -13.3258419 187.56613445 C-11.67261925 187.57676922 -11.67261925 187.57676922 -9.98599815 187.58761883 C1.95282458 187.49556385 12.65301212 184.49735052 21.59212685 176.2419157 C29.8796136 167.24760705 32.03174965 158.41265577 31.82650185 146.44113445 C31.5922156 141.0607101 30.26664371 136.77987942 27.5491581 132.12863445 C27.14825966 131.42480633 26.74736122 130.7209782 26.33431435 129.99582195 C22.36250341 123.94024934 16.825181 120.53794372 10.5491581 117.12863445 C9.90204872 116.77672039 9.25493935 116.42480633 8.5882206 116.0622282 C4.16833819 114.06459576 -0.00567424 113.94682755 -4.8258419 113.75363445 C-13.96379088 113.27221169 -20.16340304 110.91663258 -26.4508419 104.19113445 C-31.66547047 98.08650919 -31.96054415 91.34671857 -31.82193565 83.6091032 C-31.1735354 77.52779135 -28.9658181 73.43444431 -24.47818565 69.3200407 C-22.51914185 67.79308507 -20.57403806 66.41605956 -18.4508419 65.12863445 C-17.87463097 64.75093914 -17.29842003 64.37324383 -16.70474815 63.9841032 C-13.33644253 62.70566485 -10.00258487 62.83281814 -6.4508419 62.87863445 C-5.69045616 62.88612713 -4.93007042 62.8936198 -4.14664268 62.90133953 C19.69887833 63.35187239 41.16587862 73.30830658 58.3616581 89.56613445 C76.98747248 109.33885859 83.19554437 132.00720519 82.62484169 158.59738445 C82.10997131 175.81730731 74.04071554 191.77399632 63.5491581 205.12863445 C63.01032997 205.84922039 62.47150185 206.56980633 61.9163456 207.3122282 C47.34609182 225.50674109 24.19633346 235.33936837 1.5491581 238.12863445 C-3.17507006 238.35698737 -7.89747621 238.39872024 -12.62637901 238.42380047 C-14.11833813 238.43523372 -15.61025922 238.45554573 -17.10196495 238.48532391 C-45.24099573 239.04466722 -69.24128225 227.19837768 -89.4508419 208.12863445 C-108.07103367 189.48010146 -120.23747644 165.03403632 -124.4508419 139.12863445 C-124.70136314 137.91047039 -124.70136314 137.91047039 -124.95694542 136.66769695 C-126.35493324 129.72939691 -126.80136888 123.07444851 -126.7633419 116.00363445 C-126.75842735 114.91195965 -126.7535128 113.82028484 -126.74844933 112.69552898 C-126.33352916 83.78729602 -115.1901749 56.30726063 -95.2008419 35.37863445 C-69.56137072 10.88827122 -34.99128213 -0.07025514 0 0 Z " fill="#E6E6EA" transform="translate(680.4508419036865,772.8713655471802)"/>
<path d="M0 0 C1.84613932 -0.00529263 1.84613932 -0.00529263 3.72957438 -0.01069218 C5.08985467 -0.00957114 6.45013489 -0.00835786 7.81041503 -0.00706255 C9.26570171 -0.00931982 10.72098777 -0.01201159 12.17627293 -0.01509839 C16.18902885 -0.02233004 20.20176606 -0.02332767 24.21452761 -0.02332116 C28.57500109 -0.0243908 32.93546626 -0.03118172 37.29593515 -0.03722787 C45.95046757 -0.04830181 54.60499592 -0.05395168 63.25953418 -0.05793675 C73.62329279 -0.06294599 83.98704354 -0.0736734 94.35079752 -0.08441848 C119.39944555 -0.1100467 144.44809664 -0.12508273 169.49675402 -0.13792895 C177.79135703 -0.14218325 186.08595981 -0.14674896 194.38056254 -0.15151227 C238.47177663 -0.17676886 282.56299108 -0.19881969 326.65421081 -0.21124041 C336.86928218 -0.21416179 347.08435354 -0.2171293 357.29942489 -0.22014582 C359.20308422 -0.22070219 359.20308422 -0.22070219 361.14520132 -0.22126979 C402.31026598 -0.23343046 443.47528794 -0.26438381 484.64033254 -0.30606735 C526.95005594 -0.34883196 569.25975678 -0.37547836 611.56950238 -0.38071512 C617.54221817 -0.3814556 623.51493393 -0.38236628 629.48764968 -0.3833729 C631.25091142 -0.38365882 631.25091142 -0.38365882 633.04979461 -0.38395052 C651.98449582 -0.38746712 670.9191436 -0.40777864 689.85382517 -0.43416954 C708.87664446 -0.46028407 727.89940188 -0.4680543 746.92223653 -0.45706825 C758.22913044 -0.45108176 769.53581479 -0.45905404 780.84267707 -0.48689909 C788.39207918 -0.50411802 795.94133798 -0.50323002 803.49074306 -0.4875314 C807.79442903 -0.47909985 812.09771439 -0.47860687 816.40136364 -0.50014286 C820.3181885 -0.51958594 824.23429244 -0.51592214 828.15109795 -0.49398937 C829.55766229 -0.49013181 830.96428127 -0.49461781 832.37078164 -0.50857639 C841.73247881 -0.59545059 849.57199966 0.33591453 856.71151824 6.87070171 C862.33928868 12.85977563 864.40698636 19.2095103 864.16124129 27.35260808 C863.27172709 34.37977026 859.81475954 40.23862292 854.80967879 45.12995183 C849.32754884 48.48372545 844.43737027 50.25404756 837.97912902 50.25990367 C836.75224452 50.26343209 835.52536002 50.26696051 834.2612972 50.27059585 C832.88981516 50.26947459 831.51833319 50.26826129 830.1468513 50.26696622 C828.69165026 50.2692215 827.23644984 50.27191262 825.78125033 50.27500206 C821.75474595 50.28225814 817.72826017 50.28323133 813.70175014 50.28322483 C809.3315881 50.2842918 804.96143441 50.29107934 800.59127694 50.29713154 C791.91109889 50.30822125 783.23092488 50.31385928 774.55074099 50.31784041 C764.15870452 50.32284393 753.76667593 50.33357056 743.37464411 50.34432215 C718.25356571 50.3699694 693.13248426 50.38499078 668.01139653 50.39783262 C659.69275307 50.4020857 651.37410983 50.40665138 643.05546665 50.41141593 C598.84672579 50.43667408 554.63798457 50.45872732 510.42923808 50.47114408 C500.18341166 50.47406552 489.93758526 50.47703302 479.69175887 50.48004949 C478.4188143 50.4804204 477.14586974 50.48079131 475.83435109 50.48117346 C434.55223371 50.49333195 393.27015894 50.52428019 351.98806158 50.56597102 C309.56526061 50.60873585 267.14248215 50.63538218 224.71965903 50.64061879 C218.73073516 50.64135927 212.74181132 50.64226996 206.75288749 50.64327657 C205.57417386 50.64346719 204.39546023 50.6436578 203.18102801 50.64385419 C184.1931615 50.64737105 165.20534827 50.66768407 146.21750134 50.69407321 C127.13942579 50.72018839 108.06141194 50.72795774 88.98332106 50.71697192 C77.64311599 50.71098533 66.30311984 50.71895816 54.96294629 50.74680276 C47.39123353 50.76402156 39.81966366 50.76313379 32.24794793 50.74743507 C27.93146658 50.73900334 23.61538467 50.73851116 19.29893994 50.76004653 C15.37046806 50.77948903 11.44271499 50.77582639 7.51426242 50.75389304 C6.10347466 50.75003533 4.69263243 50.75452202 3.28190845 50.76848006 C-6.11290588 50.85539741 -13.88339926 49.90055465 -21.09200591 43.42045196 C-26.23512063 38.05234971 -28.2974141 32.09611099 -28.69032121 24.75495183 C-28.47200539 17.91122549 -26.10543013 12.27280364 -21.44032121 7.24323308 C-14.85537433 1.3820627 -8.78030121 0.00798395 0 0 Z " fill="#E6E6EA" transform="translate(582.1903212070465,677.8700481653214)"/>
<path d="M0 0 C0.70487549 0.00241699 1.40975098 0.00483398 2.13598633 0.00732422 C8.61902423 0.23558444 12.59541198 2.11296017 17.1875 6.5625 C17.69667969 7.05363281 18.20585938 7.54476562 18.73046875 8.05078125 C25.34275353 15.24479197 25.62344346 22.35512696 25.57061005 31.64040852 C25.57556956 32.86111851 25.58052908 34.08182851 25.58563888 35.33952972 C25.59636706 38.73071821 25.59366368 42.1214155 25.58530539 45.51257888 C25.57950197 49.20083502 25.591045 52.88904361 25.60036707 56.5772869 C25.61428911 63.04242799 25.61701028 69.50749909 25.61240768 75.97265244 C25.60558115 85.58662656 25.61582609 95.20052972 25.62936524 104.814494 C25.65429364 122.98331864 25.65879337 141.15211393 25.65689927 159.32095293 C25.65552694 173.35007282 25.65934022 187.37918251 25.66682434 201.4083004 C25.66787467 203.42287053 25.66892229 205.43744067 25.6699672 207.45201081 C25.67048655 208.45201459 25.67100589 209.45201837 25.67154097 210.48232529 C25.67206112 211.48414541 25.67258126 212.48596553 25.67311716 213.51814383 C25.67364115 214.52162391 25.67416514 215.52510399 25.67470502 216.55899256 C25.68929153 244.78877049 25.69756938 273.01854468 25.69295502 301.2483263 C25.69278306 302.31287139 25.69261111 303.37741648 25.69243394 304.47422052 C25.69154503 309.86992059 25.69060022 315.26562066 25.68963593 320.66132072 C25.68934938 322.26876303 25.68934938 322.26876303 25.68905704 323.90867893 C25.68866995 326.07577236 25.68827963 328.24286579 25.68788607 330.40995922 C25.68191571 364.13181399 25.69735461 397.85360015 25.72949219 431.57543945 C25.76555778 469.45116128 25.78490336 507.32683959 25.77995348 545.20257968 C25.77948349 549.24013722 25.77907324 553.27769476 25.77870178 557.3152523 C25.7785994 558.30942092 25.77849701 559.30358953 25.77839152 560.32788447 C25.77719601 575.34464012 25.78917279 590.36134881 25.80784607 605.37809181 C25.82906973 622.45420205 25.83294659 639.53021367 25.81354648 656.60632829 C25.80320946 666.16468951 25.80671781 675.72281032 25.83007733 685.28114988 C25.84429693 691.66500575 25.84035923 698.04868351 25.82163157 704.43252732 C25.81147026 708.07049923 25.8091786 711.70800282 25.82895225 715.34594569 C25.85007013 719.26655339 25.83245886 723.18644946 25.81111908 727.10706806 C25.82339661 728.23392571 25.83567413 729.36078336 25.8483237 730.52178821 C25.75409665 738.78462769 23.91390078 745.51757341 18.21190867 751.7069612 C12.95256187 756.67177631 7.63600385 759.63834549 0.3125 760 C-7.03156731 759.76525812 -13.55404157 756.67071676 -18.8125 751.5625 C-24.73227293 743.78222701 -25.103883 737.03635163 -25.06976891 727.58643532 C-25.07327498 726.3645916 -25.07678105 725.14274788 -25.08039337 723.88387859 C-25.08810713 720.48495926 -25.08684989 717.08625576 -25.08183783 713.68734539 C-25.07857338 709.99238152 -25.08685191 706.29744066 -25.09365618 702.60248411 C-25.10396968 696.12406895 -25.10679764 689.64568368 -25.10474396 683.16726112 C-25.1016975 673.53363594 -25.11001001 663.9000439 -25.12049321 654.26642515 C-25.13985014 636.06111948 -25.14546205 617.85582507 -25.14660732 599.65051033 C-25.14752582 585.59417753 -25.15163944 571.53784915 -25.15800858 557.48151779 C-25.15980361 553.43786888 -25.16158324 549.39421996 -25.16335833 545.35057104 C-25.16380043 544.34535918 -25.16424252 543.34014733 -25.16469802 542.30447451 C-25.17700885 514.02432653 -25.18489889 485.74418009 -25.18401146 457.46402931 C-25.1839803 456.39748491 -25.18394914 455.3309405 -25.18391704 454.23207657 C-25.18375082 448.8261732 -25.18355274 443.42026983 -25.18334763 438.01436646 C-25.18330774 436.94070058 -25.18326785 435.8670347 -25.18322675 434.76083349 C-25.18314587 432.58961943 -25.18306228 430.41840538 -25.18297596 428.24719132 C-25.18175016 394.45839681 -25.19676813 360.66964241 -25.22412109 326.88085938 C-25.25482636 288.93521741 -25.27205456 250.9896018 -25.27019465 213.04394662 C-25.27004538 208.999669 -25.26994797 204.95539137 -25.26988602 200.91111374 C-25.26986271 199.91528063 -25.2698394 198.91944752 -25.26981538 197.89343765 C-25.26975378 181.85199147 -25.28253787 165.81058007 -25.29975055 149.76914424 C-25.31668455 133.65441793 -25.31869838 117.53974263 -25.3055319 101.42501236 C-25.29812804 91.84627001 -25.30184349 82.26768236 -25.32141658 72.68895632 C-25.33338211 66.29403619 -25.33086386 59.89922855 -25.31647559 53.50431366 C-25.30868351 49.85840933 -25.30724378 46.21280517 -25.32339029 42.56692155 C-25.34062415 38.64121537 -25.3269923 34.71596334 -25.31027794 30.79024696 C-25.3202143 29.65624509 -25.33015066 28.52224323 -25.34038812 27.35387766 C-25.27035068 19.61470116 -23.9239213 14.57609141 -19.1015625 8.35546875 C-18.55242187 7.82566406 -18.00328125 7.29585937 -17.4375 6.75 C-16.89351562 6.20730469 -16.34953125 5.66460938 -15.7890625 5.10546875 C-10.82296501 1.22877209 -6.2246901 -0.02221781 0 0 Z " fill="#E7E7EB" transform="translate(1060.8125,931.4375)"/>
<path d="M0 0 C6.79377873 4.01811037 12.17652507 10.52833299 14.3828125 18.125 C14.81705689 22.15297162 14.78717784 26.15753525 14.76312923 30.20570183 C14.76778915 31.42671142 14.77244907 32.64772102 14.7772502 33.9057309 C14.78714808 37.2977555 14.78360868 40.68928545 14.77441652 44.08128024 C14.76771129 47.77042242 14.77837054 51.45952113 14.78681237 55.1486541 C14.79919404 61.61532786 14.80038524 68.08192907 14.79426193 74.54861069 C14.78518063 84.16480411 14.79319505 93.78093031 14.80455317 103.39711857 C14.82423674 120.57104213 14.82656425 137.74493553 14.82135797 154.91886768 C14.8168037 169.9491622 14.81739635 184.97944478 14.82319832 200.00973892 C14.82395518 202.0246007 14.82471116 204.03946247 14.82546626 206.05432425 C14.82661144 209.09041102 14.82776131 212.1264978 14.82892551 215.16258457 C14.8396333 243.39593679 14.84435289 271.62928503 14.83645535 299.86263847 C14.83615817 300.92730878 14.835861 301.99197909 14.83555482 303.08891214 C14.8331058 311.73520382 14.83049425 320.38149546 14.82787069 329.0277871 C14.81776776 362.75633661 14.8261234 396.48483634 14.84936523 430.21337891 C14.87542678 468.09531555 14.88828871 505.97722223 14.88117748 543.85916817 C14.88046141 547.89698862 14.87978702 551.93480908 14.87913704 555.97262955 C14.87896723 556.96686558 14.87879742 557.96110162 14.87862247 558.98546602 C14.87631772 574.00576265 14.88430484 589.02603148 14.89742851 604.04632187 C14.91232393 621.12501335 14.91320419 638.20363961 14.8953576 655.28232966 C14.88577872 664.84308961 14.88726178 674.40369755 14.90459229 683.96444742 C14.91505831 690.34862721 14.91101455 696.73269084 14.89511225 703.11685914 C14.88645572 706.75578689 14.88411575 710.39441613 14.89938157 714.03332888 C14.91567123 717.95324425 14.90104433 721.8726986 14.88338375 725.79261589 C14.89303426 726.92210055 14.90268477 728.05158522 14.91262773 729.21529669 C14.83679405 737.37925885 13.34138267 743.62143006 8.0078125 749.9375 C1.3482891 755.48710283 -4.18446168 758.69038532 -12.921875 758.5078125 C-19.87102085 757.52083236 -26.33521198 753.6303971 -30.6171875 748.125 C-35.35742585 740.65804105 -36.33719123 734.41193626 -36.2463932 725.677948 C-36.25729401 723.8416907 -36.25729401 723.8416907 -36.26841503 721.9683373 C-36.28348076 718.58110135 -36.27627739 715.19526063 -36.25952527 711.80812255 C-36.24680915 708.11926812 -36.26315414 704.43052114 -36.27574193 700.74168205 C-36.29378344 694.28013196 -36.29326316 687.81879081 -36.28050613 681.35723114 C-36.26158761 671.74868286 -36.2712655 662.14031072 -36.28654767 652.53176361 C-36.31287609 635.37062013 -36.31059455 618.20956972 -36.29615311 601.04841739 C-36.28357719 586.03045757 -36.28029095 571.01253187 -36.28626633 555.99456787 C-36.28664825 554.99853683 -36.28703018 554.0025058 -36.28742368 552.976292 C-36.28898036 548.93311547 -36.29057236 544.88993896 -36.2922225 540.84676247 C-36.3075188 502.91575021 -36.29364813 464.98479723 -36.26673801 427.05379412 C-36.24300983 393.35158619 -36.24513296 359.64947273 -36.26904297 325.94726562 C-36.29581395 288.08579878 -36.30643401 250.22438432 -36.29098165 212.36290932 C-36.28937805 208.3270836 -36.28781385 204.29125787 -36.28626633 200.25543213 C-36.28587094 199.26170302 -36.28547555 198.2679739 -36.28506819 197.24413179 C-36.27937992 182.23531096 -36.28603388 167.22652799 -36.29866409 152.2177124 C-36.31295305 135.15264528 -36.30940195 118.08768581 -36.28226037 101.02263212 C-36.2675699 91.47092855 -36.26663338 81.91945807 -36.28549125 72.3677605 C-36.29669734 65.98843549 -36.28973612 59.60929747 -36.2679674 53.23000018 C-36.25606751 49.59468018 -36.25201781 45.95982347 -36.26999731 42.32451797 C-36.28917606 38.40678255 -36.26965049 34.48977744 -36.2463932 30.572052 C-36.25809903 29.4460519 -36.26980487 28.32005179 -36.28186542 27.15993047 C-36.18149026 18.72446124 -34.07657985 12.14485257 -28.51953125 5.6875 C-27.87113281 5.171875 -27.22273437 4.65625 -26.5546875 4.125 C-25.57822266 3.320625 -25.57822266 3.320625 -24.58203125 2.5 C-17.79099945 -2.25237215 -7.85306675 -2.62550291 0 0 Z " fill="#E7E7EB" transform="translate(949.6171875,932.875)"/>
<path d="M0 0 C0.64687776 -0.00410527 1.29375551 -0.00821054 1.96023563 -0.0124402 C4.13682194 -0.02378642 6.3131554 -0.02086508 8.48976612 -0.01802826 C10.06248081 -0.02319521 11.63519288 -0.02922143 13.2079013 -0.03603506 C17.5369028 -0.052186 21.865838 -0.0557548 26.19486606 -0.05723 C30.86101462 -0.06092924 35.52712869 -0.07602302 40.19325733 -0.08950043 C50.39990603 -0.1166762 60.60653902 -0.12871801 70.81321788 -0.13752174 C77.18538258 -0.14304524 83.55754121 -0.15151972 89.92970181 -0.16053009 C107.56952216 -0.18491697 125.20933765 -0.20551507 142.8491745 -0.21228027 C143.97839746 -0.21271941 145.10762041 -0.21315854 146.27106224 -0.21361098 C147.40300084 -0.21404753 148.53493944 -0.21448409 149.70117921 -0.21493387 C151.99495073 -0.21582081 154.28872226 -0.21671393 156.58249378 -0.21761322 C157.72028582 -0.21805608 158.85807787 -0.21849894 160.03034846 -0.21895522 C178.46662058 -0.22685122 196.9027346 -0.26175861 215.33894565 -0.30833226 C234.26343973 -0.35575383 253.18785447 -0.38068373 272.11240894 -0.38301611 C282.73934716 -0.38484999 293.36607942 -0.39636371 303.99296093 -0.43265533 C313.04222087 -0.46345012 322.09121119 -0.47370278 331.14051356 -0.45717913 C335.75744204 -0.44936316 340.37382754 -0.45123795 344.99068928 -0.47929382 C349.21953459 -0.50475667 353.44742853 -0.50239259 357.67627237 -0.4781124 C359.20390275 -0.47419551 360.73160034 -0.48036961 362.25913628 -0.49780113 C371.08946577 -0.59216756 377.90240714 -0.09767448 384.56711292 6.26285553 C389.94158951 12.23350889 393.09353233 17.83603947 392.80930042 26.12613678 C392.01834525 33.10440259 389.3577144 38.11579855 384.87180042 43.43863678 C376.74077733 49.87454828 368.08702759 49.8346442 358.15034962 49.7707901 C356.58497843 49.77540354 355.01961158 49.78175942 353.45425373 49.78969908 C349.16871752 49.80635466 344.88353888 49.79816331 340.5980016 49.7857542 C335.97012736 49.77669063 331.34231389 49.79067987 326.71445179 49.80167389 C317.65506796 49.81944931 308.59581679 49.81562359 299.53642779 49.80402333 C292.17352257 49.794986 284.8106545 49.7937663 277.44774532 49.79811859 C276.39941261 49.79873152 275.35107989 49.79934446 274.27097951 49.79997596 C272.14125616 49.80125487 270.01153281 49.80255173 267.88180948 49.80386633 C247.91732697 49.81526912 227.95291795 49.80216283 207.98844749 49.78066486 C190.85976597 49.76279155 173.73119288 49.76590051 156.60251331 49.7843399 C136.70741667 49.8057474 116.81238442 49.81417326 96.91727787 49.80189085 C94.79574018 49.80061666 92.67420247 49.79935918 90.55266476 49.79811859 C89.50884755 49.79750149 88.46503035 49.79688439 87.38958232 49.79624858 C80.03541274 49.79279552 72.68128403 49.79862304 65.32712078 49.8080368 C56.36507989 49.81925669 47.40317914 49.8162168 38.44115429 49.79491383 C33.8689956 49.78440372 29.29707054 49.78028097 24.7249136 49.79351044 C20.53841711 49.80544079 16.35237053 49.79886132 12.16591478 49.77760023 C10.65259704 49.77313692 9.13924119 49.7753944 7.625948 49.78510338 C-1.50444015 49.83918271 -8.37237468 49.52622526 -15.63991833 43.40348053 C-21.2994704 36.73870388 -24.16662317 30.7279471 -23.83913708 21.84488678 C-22.60851991 14.02336808 -18.37575644 8.56232812 -12.39773083 3.63785553 C-8.14949132 0.66493245 -5.23662745 0.01131245 0 0 Z " fill="#E7E7EB" transform="translate(815.4328870773315,857.7371444702148)"/>
<path d="M0 0 C0.74268855 -0.0060911 1.4853771 -0.01218221 2.25057137 -0.01845789 C4.72857578 -0.03505005 7.20606421 -0.03031762 9.68411255 -0.0255127 C11.46510347 -0.03285525 13.24608964 -0.04144202 15.02706909 -0.05117798 C19.85771759 -0.07338343 24.68819546 -0.07632513 29.518888 -0.07443047 C33.55462345 -0.07431072 37.59032281 -0.08287671 41.62604821 -0.09120798 C51.14900824 -0.1104387 60.67188061 -0.11332712 70.19485474 -0.10656738 C80.01179085 -0.09992707 89.82835119 -0.12279136 99.6452111 -0.15988111 C108.08022884 -0.19059112 116.51512578 -0.20193672 124.95019829 -0.1980443 C129.98517243 -0.1959781 135.01985414 -0.20143618 140.05477524 -0.22593689 C144.79095869 -0.24822283 149.5265318 -0.24631083 154.2627182 -0.22600937 C155.99770457 -0.22260256 157.73273218 -0.22767426 159.46766281 -0.24199295 C169.75647514 -0.32102758 176.40514594 0.02691957 184.41116333 7.16784668 C189.64577196 13.49878927 192.10262481 19.24722389 191.82913208 27.55456543 C190.70062855 35.44323914 186.5131004 40.95389414 180.58303833 46.01940918 C175.59137454 49.19674309 170.77687471 49.64688363 164.95965576 49.66183472 C163.86399892 49.66863139 163.86399892 49.66863139 162.74620759 49.67556536 C160.309754 49.68817961 157.87352478 49.68659094 155.43704224 49.68493652 C153.68561009 49.69092359 151.93418057 49.69772955 150.18275452 49.70529175 C145.43271 49.72293973 140.68273757 49.72764659 135.93266344 49.72892332 C132.96328388 49.73034604 129.99392259 49.7346179 127.02454758 49.73991776 C116.66056914 49.75841332 106.2966421 49.76658887 95.93264771 49.76501465 C86.27936362 49.76381304 76.62630304 49.78492042 66.97307551 49.81650198 C58.67819533 49.84267034 50.38338814 49.85338172 42.088467 49.85210383 C37.13736508 49.85159441 32.18646188 49.85726689 27.23540115 49.87845993 C22.57808988 49.89785198 17.92116675 49.89796018 13.26384163 49.88342667 C11.55788034 49.88133874 9.8518947 49.88603849 8.14597511 49.89814758 C-9.09547313 50.01257364 -9.09547313 50.01257364 -16.78414917 43.53503418 C-22.80518681 36.4445665 -25.23230343 30.46125527 -24.92086792 21.06628418 C-23.96000908 13.59779047 -19.4060463 7.94465959 -13.57711792 3.39440918 C-8.99017885 0.67373886 -5.24004347 -0.04074402 0 0 Z " fill="#E7E7EB" transform="translate(916.5771179199219,1720.6055908203125)"/>
<path d="M0 0 C2.36902669 2.16320873 3.77472871 4.19498053 5.17651367 7.07250977 C5.57670212 7.88667862 5.97689056 8.70084747 6.38920593 9.53968811 C6.81119766 10.4147551 7.23318939 11.28982208 7.66796875 12.19140625 C8.10764481 13.0924559 8.54732086 13.99350555 9.00032043 14.92185974 C9.92693362 16.82430951 10.85050306 18.72824437 11.77124023 20.63354492 C13.18548871 23.55834046 14.6105207 26.47769132 16.03710938 29.39648438 C16.93553944 31.24447891 17.83334744 33.09277602 18.73046875 34.94140625 C19.37256538 36.25704308 19.37256538 36.25704308 20.02763367 37.59925842 C20.61373161 38.81578346 20.61373161 38.81578346 21.21166992 40.05688477 C21.55791916 40.77175552 21.9041684 41.48662628 22.26091003 42.22315979 C23 44 23 44 23 46 C23.89755005 46.12060791 23.89755005 46.12060791 24.81323242 46.24365234 C41.29061339 48.46215692 57.6723191 50.85603064 74 54 C70.26419752 58.52505652 66.39207315 62.65553999 62.08447266 66.63867188 C60.61177258 68.00117901 59.15508838 69.38114237 57.71240234 70.77539062 C54.23794212 74.11821401 50.88085327 77.18568775 46.82421875 79.8046875 C42.74383107 82.6403435 39.52304651 85.11760294 38 90 C37.77402226 99.56460797 40.03120217 108.97239417 42.15673828 118.24658203 C43.85371537 125.79994791 45.35283959 133.23752897 45 141 C37.35653962 137.28218392 29.79033643 133.45135825 22.32421875 129.38671875 C21.16776855 128.75717285 20.01131836 128.12762695 18.81982422 127.47900391 C16.50184079 126.21239038 14.18699058 124.94002406 11.87548828 123.66162109 C10.79895996 123.0733252 9.72243164 122.4850293 8.61328125 121.87890625 C7.65204346 121.3485376 6.69080566 120.81816895 5.70043945 120.27172852 C2.133424 118.59189997 -0.43573653 117.4952318 -4.28564453 118.73754883 C-5.06020996 119.13997803 -5.83477539 119.54240723 -6.6328125 119.95703125 C-7.51283936 120.40578613 -8.39286621 120.85454102 -9.29956055 121.31689453 C-10.23195557 121.81044434 -11.16435059 122.30399414 -12.125 122.8125 C-13.57096558 123.55669189 -13.57096558 123.55669189 -15.04614258 124.31591797 C-18.03923883 125.86161161 -21.02078779 127.42773339 -24 129 C-25.40403076 129.73790771 -25.40403076 129.73790771 -26.83642578 130.49072266 C-31.97280981 133.18975138 -31.97280981 133.18975138 -37.09619141 135.91333008 C-38.19906494 136.50150513 -38.19906494 136.50150513 -39.32421875 137.1015625 C-40.2846106 137.61710693 -40.2846106 137.61710693 -41.2644043 138.14306641 C-43 139 -43 139 -46 140 C-46.13207431 134.98319584 -45.67289427 130.44320782 -44.72265625 125.51953125 C-44.59185165 124.82542648 -44.46104706 124.13132172 -44.32627869 123.41618347 C-43.91102443 121.21376212 -43.48778724 119.01300444 -43.0625 116.8125 C-42.2324501 112.51585554 -41.41833669 108.22241268 -40.70874023 103.90405273 C-40 100 -40 100 -39.01196289 96.87915039 C-38.11976522 93.3546532 -37.99284358 91.52463906 -39 88 C-43.42257983 81.43677467 -49.56181803 76.17804723 -55.3125 70.8125 C-56.89287178 69.2888072 -58.47038102 67.76213944 -60.04492188 66.23242188 C-66.48058811 59.39267861 -66.48058811 59.39267861 -74 54 C-74 53.34 -74 52.68 -74 52 C-73.41847168 51.92483154 -72.83694336 51.84966309 -72.23779297 51.7722168 C-61.13383243 50.33506753 -50.03216402 48.88241692 -38.9375 47.375 C-37.5750415 47.19070435 -37.5750415 47.19070435 -36.18505859 47.00268555 C-35.3286377 46.88578369 -34.4722168 46.76888184 -33.58984375 46.6484375 C-32.84597412 46.54708496 -32.10210449 46.44573242 -31.33569336 46.34130859 C-30.17952515 46.17236084 -30.17952515 46.17236084 -29 46 C-28.02595215 46.02143066 -27.0519043 46.04286133 -26.04833984 46.06494141 C-21.75532173 44.56517006 -20.96309143 42.16511337 -18.99162292 38.20385742 C-18.32094536 36.7726355 -18.32094536 36.7726355 -17.63671875 35.3125 C-16.92054131 33.85324097 -16.92054131 33.85324097 -16.18989563 32.36450195 C-14.66811055 29.25270765 -13.17739439 26.12717 -11.6875 23 C-10.17297026 19.87647721 -8.65240093 16.75594478 -7.13154602 13.63549805 C-6.18705543 11.69155934 -5.24763251 9.7451491 -4.31364441 7.79614258 C-3.89262955 6.91853271 -3.47161469 6.04092285 -3.0378418 5.13671875 C-2.667332 4.36030029 -2.2968222 3.58388184 -1.91508484 2.78393555 C-1 1 -1 1 0 0 Z " fill="#E6E6EA" transform="translate(721,466)"/>
<path d="M0 0 C2.57091741 2.30053904 3.92272233 4.54317033 5.3828125 7.65625 C5.82318848 8.58800049 6.26356445 9.51975098 6.71728516 10.47973633 C7.18183105 11.47642334 7.64637695 12.47311035 8.125 13.5 C8.61145996 14.51924561 9.09791992 15.53849121 9.59912109 16.58862305 C11.9726007 21.57789273 14.26983604 26.58021816 16.40625 31.67578125 C16.78249512 32.54460937 17.15874023 33.4134375 17.54638672 34.30859375 C18.24850125 35.93849114 18.92363201 37.58036665 19.56689453 39.234375 C21.38886747 43.43519161 21.38886747 43.43519161 25.06762695 45.91381836 C27.38608438 46.44936918 29.63306121 46.76982302 32 47 C33.01964844 47.17402344 34.03929687 47.34804688 35.08984375 47.52734375 C36.02957031 47.66269531 36.96929688 47.79804687 37.9375 47.9375 C42.57872439 48.62387825 47.20478263 49.36755426 51.82885742 50.15917969 C58.87817888 51.36459104 65.86508414 52.42460356 73 53 C73 56 73 56 71.66162109 57.5871582 C70.72697021 58.43540161 70.72697021 58.43540161 69.7734375 59.30078125 C69.07758545 59.94184814 68.3817334 60.58291504 67.66479492 61.2434082 C66.9091626 61.9262085 66.15353027 62.60900879 65.375 63.3125 C63.81460784 64.74804764 62.25604445 66.18558537 60.69921875 67.625 C59.51851807 68.71554687 59.51851807 68.71554687 58.31396484 69.828125 C54.25811613 73.63492287 50.35802304 77.59420203 46.46826172 81.56958008 C42.25987626 85.8423081 42.25987626 85.8423081 39.5859375 87.46484375 C37.66597098 88.97151265 37.66597098 88.97151265 37.87109375 91.921875 C38.05800781 93.18515625 38.24492188 94.4484375 38.4375 95.75 C38.53587158 96.45793701 38.63424316 97.16587402 38.7355957 97.89526367 C39.40354606 102.54044661 40.18977133 107.16724121 40.95359802 111.79745483 C41.18309067 113.18897782 41.41197938 114.58060053 41.64027405 115.97232056 C42.21618391 119.4792424 42.80225766 122.98378219 43.40991211 126.48535156 C43.7387439 128.43586426 43.7387439 128.43586426 44.07421875 130.42578125 C44.27619873 131.59536377 44.47817871 132.76494629 44.6862793 133.9699707 C44.97116425 136.72149375 44.90485554 138.42244871 44 141 C39.32202902 138.52929199 34.64472932 136.05731925 29.96801758 133.58422852 C28.38063143 132.74502274 26.79306996 131.9061485 25.20532227 131.06762695 C23.66299877 130.25304339 22.1209519 129.43793582 20.57919312 128.62228394 C19.07794507 127.82846312 17.57585605 127.03623059 16.07290649 126.24563599 C11.56751408 123.8668768 7.14705298 121.39471742 2.83959961 118.66870117 C-0.64561877 117.40181157 -3.44822526 118.76031572 -6.71630859 120.17993164 C-7.68391113 120.66840576 -8.65151367 121.15687988 -9.6484375 121.66015625 C-10.72996094 122.20333496 -11.81148437 122.74651367 -12.92578125 123.30615234 C-14.06402344 123.88574707 -15.20226563 124.4653418 -16.375 125.0625 C-17.53644531 125.64725098 -18.69789062 126.23200195 -19.89453125 126.83447266 C-27.49401855 130.67551787 -35.01257639 134.63660538 -42.4375 138.8046875 C-43.283125 139.19914063 -44.12875 139.59359375 -45 140 C-45.66 139.67 -46.32 139.34 -47 139 C-46.89977539 138.43481155 -46.79955078 137.86962311 -46.69628906 137.28730774 C-45.6530784 131.3995471 -44.61583342 125.51075764 -43.58203125 119.62133789 C-43.19553771 117.42412859 -42.8075288 115.22718527 -42.41796875 113.03051758 C-41.85797991 109.87129484 -41.30346482 106.71115261 -40.75 103.55078125 C-40.57500977 102.57039383 -40.40001953 101.59000641 -40.21972656 100.57991028 C-40.05956055 99.65933334 -39.89939453 98.73875641 -39.734375 97.7902832 C-39.52119629 96.5811602 -39.52119629 96.5811602 -39.30371094 95.34761047 C-38.55916471 90.38587808 -38.55916471 90.38587808 -40.43359375 85.98291016 C-41.09488281 85.34144043 -41.75617188 84.6999707 -42.4375 84.0390625 C-43.53384766 82.96011719 -43.53384766 82.96011719 -44.65234375 81.859375 C-45.42707031 81.12203125 -46.20179687 80.3846875 -47 79.625 C-47.74378906 78.89539063 -48.48757813 78.16578125 -49.25390625 77.4140625 C-53.44755159 73.32981661 -57.76109405 69.4190362 -62.1875 65.58984375 C-64.71635213 63.37164803 -67.11193632 61.05713726 -69.5 58.6875 C-70.3559375 57.84574219 -71.211875 57.00398437 -72.09375 56.13671875 C-74 54 -74 54 -74 52 C-73.20118408 51.89453857 -72.40236816 51.78907715 -71.5793457 51.68041992 C-68.49817481 51.27308917 -65.41713969 50.86474784 -62.33618164 50.45581055 C-60.39413985 50.19832425 -58.45195574 49.94191198 -56.50976562 49.68554688 C-54.53542883 49.42329161 -52.56092488 49.15981172 -50.59298706 48.85321045 C-46.59647359 48.24846299 -42.77015172 47.96381225 -38.72509766 47.97167969 C-29.06813294 47.80895404 -29.06813294 47.80895404 -21.03189087 43.04855347 C-16.52998731 36.87470075 -13.68585928 29.88482513 -10.75 22.875 C-9.80172935 20.77396151 -8.84605428 18.67624835 -7.8828125 16.58203125 C-5.79001473 12.00639128 -3.77120953 7.40572838 -1.81414795 2.77047729 C-1 1 -1 1 0 0 Z " fill="#E6E6EA" transform="translate(1318,466)"/>
<path d="M0 0 C3.045437 2.60222581 4.43373935 5.59351989 6.14453125 9.1796875 C6.43680099 9.7882962 6.72907074 10.39690491 7.03019714 11.0239563 C7.96357337 12.97152754 8.88804349 14.92318172 9.8125 16.875 C10.42196643 18.14870543 11.03198765 19.42214554 11.64257812 20.6953125 C12.24770951 21.96078755 12.85252835 23.22641211 13.45703125 24.4921875 C13.90400864 25.42743507 13.90400864 25.42743507 14.36001587 26.38157654 C15.840868 29.49741938 17.28423768 32.62318546 18.66357422 35.78540039 C19.18064941 36.9583667 19.69772461 38.13133301 20.23046875 39.33984375 C20.90758911 40.91560181 20.90758911 40.91560181 21.59838867 42.52319336 C22.89169506 45.35761406 22.89169506 45.35761406 26.5 46.6875 C27.99636909 46.83491182 29.49783912 46.93394407 31 47 C32.96009117 47.27960955 34.91822906 47.57302918 36.875 47.875 C38.05449219 48.03742188 39.23398438 48.19984375 40.44921875 48.3671875 C46.53426619 49.20699522 52.61166775 50.09615031 58.6875 51 C59.84685059 51.16612793 61.00620117 51.33225586 62.20068359 51.50341797 C63.2933252 51.66729004 64.3859668 51.83116211 65.51171875 52 C66.49615967 52.144375 67.48060059 52.28875 68.49487305 52.4375 C71 53 71 53 74 55 C72.6701338 56.35757174 71.33586929 57.71083496 70 59.0625 C69.2575 59.81660156 68.515 60.57070313 67.75 61.34765625 C65.62398077 63.39817763 63.47913835 65.33098143 61.2421875 67.25390625 C56.64407288 71.24243052 52.389551 75.53563231 48.125 79.875 C46.62991839 81.39550816 45.13263356 82.91385411 43.6328125 84.4296875 C42.98199707 85.09210449 42.33118164 85.75452148 41.66064453 86.43701172 C40 88 40 88 38 89 C38.6213277 94.96246243 39.4088026 100.85233649 40.41015625 106.76171875 C40.68047305 108.39125373 40.95065129 110.02081171 41.22070312 111.65039062 C41.64241748 114.17846109 42.06565989 116.7062561 42.49145508 119.23364258 C42.90608045 121.70065159 43.31472822 124.16859476 43.72265625 126.63671875 C43.85076187 127.38684738 43.97886749 128.13697601 44.1108551 128.90983582 C44.7806118 132.98500888 45.13306544 136.87090215 45 141 C35.54829615 136.33587909 26.16033712 131.55664366 16.8125 126.6875 C15.82113037 126.17219727 14.82976074 125.65689453 13.80834961 125.12597656 C12.86741455 124.63452148 11.92647949 124.14306641 10.95703125 123.63671875 C10.12147705 123.20061279 9.28592285 122.76450684 8.42504883 122.31518555 C6 121 6 121 3.50268555 119.27270508 C0.38280866 117.68613614 -0.68105702 118.10193878 -4 119 C-6.17901312 119.8973586 -6.17901312 119.8973586 -8.31542969 121.04125977 C-9.13267517 121.46162003 -9.94992065 121.88198029 -10.79193115 122.31507874 C-12.09375336 122.99636086 -12.09375336 122.99636086 -13.421875 123.69140625 C-14.32246643 124.15610825 -15.22305786 124.62081024 -16.15093994 125.09959412 C-19.02035372 126.58140052 -21.88533445 128.07153793 -24.75 129.5625 C-27.6296774 131.05556838 -30.51024383 132.54688491 -33.39190674 134.03611755 C-35.18388351 134.96280536 -36.97456617 135.89200054 -38.76385498 136.8238678 C-39.97081024 137.44967995 -39.97081024 137.44967995 -41.20214844 138.08813477 C-41.9132074 138.4581813 -42.62426636 138.82822784 -43.35687256 139.20948792 C-45 140 -45 140 -46 140 C-45.50943093 129.9837655 -43.90787408 120.42576559 -41.9375 110.625 C-41.51191097 108.50262601 -41.08876244 106.37992615 -40.67372131 104.25546265 C-40.30035959 102.34437147 -39.91793185 100.43505788 -39.53491211 98.52587891 C-38.27227282 91.43175871 -38.27227282 91.43175871 -41.07617188 85.11328125 C-42.02237593 84.16146049 -42.98791788 83.22859673 -43.96875 82.3125 C-44.48248169 81.80630127 -44.99621338 81.30010254 -45.5255127 80.77856445 C-47.16792371 79.16855229 -48.83320372 77.58471188 -50.5 76 C-51.59009061 74.93648116 -52.67864877 73.8713892 -53.765625 72.8046875 C-58.84038679 67.84998377 -63.9949753 63.00211204 -69.39648438 58.40234375 C-71.01430373 56.98749077 -72.56762892 55.60408173 -74 54 C-74 53.34 -74 52.68 -74 52 C-73.1300943 51.89057823 -73.1300943 51.89057823 -72.24261475 51.77894592 C-66.20775928 51.01936361 -60.1733389 50.25639434 -54.13916016 49.49145508 C-51.88699146 49.20640534 -49.63471319 48.92221998 -47.38232422 48.63891602 C-44.14521571 48.23160245 -40.90851371 47.82118417 -37.671875 47.41015625 C-36.66445251 47.28407486 -35.65703003 47.15799347 -34.61907959 47.02809143 C-33.67840637 46.90804245 -32.73773315 46.78799347 -31.76855469 46.66430664 C-30.94248718 46.5599379 -30.11641968 46.45556915 -29.26531982 46.34803772 C-28.51776428 46.23318527 -27.77020874 46.11833282 -27 46 C-26.29233994 45.9066185 -25.58467987 45.813237 -24.85557556 45.71702576 C-22.22624081 44.70100637 -21.76533873 43.36939538 -20.54223633 40.86328125 C-20.1053096 39.98567139 -19.66838287 39.10806152 -19.21821594 38.20385742 C-18.53205452 36.7726355 -18.53205452 36.7726355 -17.83203125 35.3125 C-17.35174973 34.33966064 -16.8714682 33.36682129 -16.37663269 32.36450195 C-14.84197808 29.24931689 -13.32683727 26.1251047 -11.8125 23 C-10.28337772 19.87703322 -8.75040302 16.75598738 -7.2162323 13.63549805 C-6.26195467 11.69093004 -5.3114385 9.74451101 -4.36494446 7.79614258 C-3.93747421 6.91853271 -3.51000397 6.04092285 -3.06958008 5.13671875 C-2.69303787 4.36030029 -2.31649567 3.58388184 -1.92854309 2.78393555 C-1 1 -1 1 0 0 Z " fill="#E6E6EA" transform="translate(1000,395)"/>
</svg>
