<svg xmlns="http://www.w3.org/2000/svg" viewBox="0 0 512 512" width="512" height="512"><rect fill="#2A2A2A" width="512" height="512" rx="64"/><path fill="#E8E8EC" transform="translate(96 96) scale(16)" d="M10.0303 1.66797C5.41119 1.66797 1.6665 5.39883 1.6665 10.0013C1.6665 14.6038 5.41098 18.3346 10.0303 18.3346C14.6495 18.3346 18.394 14.6038 18.394 10.0013C18.394 5.39883 14.6495 1.66797 10.0303 1.66797ZM12.4543 17.1453C11.1429 13.7385 6.9881 12.4379 3.9567 14.4851C6.80322 12.1896 6.76103 7.85069 3.87005 5.61086C6.94074 7.59889 11.0693 6.2179 12.314 2.78644C11.3652 6.31063 13.9592 9.79607 17.6193 9.91517C13.9623 10.1052 11.4368 13.6403 12.4541 17.1453H12.4543Z"/></svg>
