<svg xmlns="http://www.w3.org/2000/svg" viewBox="0 0 512 512" width="512" height="512"><rect fill="#2A2A2A" width="512" height="512" rx="64"/><svg x="96" y="96" width="320" height="320" viewBox="0 0 67.72 77.82"><g><polygon points="33.86 21.42 33.86 21.42 18.64 30.17 33.86 38.91 49.07 30.17 33.86 21.42" style="fill:#E8E8EC;"/><polygon points="49.07 47.65 33.86 56.4 33.86 56.4 33.86 77.82 67.72 58.36 49.07 47.65" style="fill:#E8E8EC;"/><polygon points="18.64 30.17 18.64 47.65 33.86 56.4 33.86 38.91 18.64 30.17" style="fill:#E8E8EC;"/><polygon points="49.07 30.17 33.86 38.91 33.86 56.4 33.86 56.4 49.07 47.65 49.07 30.17" style="fill:#E8E8EC;"/><polygon points="33.86 21.42 18.64 30.17 18.64 30.17 33.86 38.91 49.07 30.17 49.07 30.17 33.86 21.42" style="fill:none;"/><polygon points="49.07 30.17 49.07 30.17 67.72 19.45 33.86 0 33.86 21.42 49.07 30.17" style="fill:#E8E8EC;"/><polygon points="18.64 30.17 33.86 21.42 33.86 0 0 19.45 18.64 30.17 18.64 30.17" style="fill:#E8E8EC;"/><polygon points="18.64 47.65 0 58.36 33.86 77.82 33.86 56.4 18.64 47.65" style="fill:#E8E8EC;"/><polygon points="67.72 58.36 67.72 19.45 67.72 19.45 49.07 30.17 49.07 47.65 49.07 47.65 67.72 58.36 67.72 58.36" style="fill:#E8E8EC;"/><polygon points="18.64 47.65 18.64 30.17 0 19.45 0 58.36 0 58.36 18.64 47.65 18.64 47.65" style="fill:#E8E8EC;"/></g></svg></svg>