<?xml version="1.0" encoding="UTF-8"?><svg id="Layer_2" xmlns="http://www.w3.org/2000/svg" viewBox="0 0 69.31 80.03"><g id="Layer_1-2"><polygon points="19.08 31.02 19.08 49.01 34.65 58 34.65 40.02 19.08 31.02" style="fill:#ff2c9b;"/><polygon points="34.65 22.03 34.65 22.03 19.08 31.02 34.65 40.02 50.23 31.02 34.65 22.03" style="fill:#ff5e48;"/><polygon points="50.23 31.02 34.65 40.02 34.65 58 34.65 58 50.23 49.01 50.23 31.02" style="fill:#f9923e;"/><polygon points="34.65 22.03 19.08 31.02 19.08 31.02 34.65 40.02 50.23 31.02 50.23 31.02 34.65 22.03" style="fill:none;"/><polygon points="50.23 31.02 50.23 31.02 69.31 20.01 34.65 0 34.65 22.03 50.23 31.02" style="fill:#f35236;"/><polygon points="19.08 31.02 34.65 22.03 34.65 0 0 20.01 19.08 31.02 19.08 31.02" style="fill:#fa3d38;"/><polygon points="19.08 49.01 0 60.02 34.65 80.03 34.65 58 19.08 49.01" style="fill:#e62789;"/><polygon points="50.23 49.01 34.65 58 34.65 58 34.65 80.03 69.31 60.02 50.23 49.01" style="fill:#fc7e05;"/><polygon points="69.31 60.02 69.31 20.01 69.31 20.01 50.23 31.02 50.23 49.01 50.23 49.01 69.31 60.02 69.31 60.02" style="fill:#f86f17;"/><polygon points="19.08 49.01 19.08 31.02 0 20.01 0 60.02 0 60.02 19.08 49.01 19.08 49.01" style="fill:#f9286e;"/></g></svg>