<?xml version="1.0" encoding="UTF-8"?><svg id="Layer_2" xmlns="http://www.w3.org/2000/svg" viewBox="0 0 67.72 77.82"><g id="Layer_1-2"><polygon points="33.86 21.42 33.86 21.42 18.64 30.17 33.86 38.91 49.07 30.17 33.86 21.42" style="fill:#f9a51e;"/><polygon points="49.07 47.65 33.86 56.4 33.86 56.4 33.86 77.82 67.72 58.36 49.07 47.65" style="fill:#8c4c1c;"/><polygon points="18.64 30.17 18.64 47.65 33.86 56.4 33.86 38.91 18.64 30.17" style="fill:#ffae39;"/><polygon points="49.07 30.17 33.86 38.91 33.86 56.4 33.86 56.4 49.07 47.65 49.07 30.17" style="fill:#ea971f;"/><polygon points="33.86 21.42 18.64 30.17 18.64 30.17 33.86 38.91 49.07 30.17 49.07 30.17 33.86 21.42" style="fill:none;"/><polygon points="49.07 30.17 49.07 30.17 67.72 19.45 33.86 0 33.86 21.42 49.07 30.17" style="fill:#b56a1f;"/><polygon points="18.64 30.17 33.86 21.42 33.86 0 0 19.45 18.64 30.17 18.64 30.17" style="fill:#c1741f;"/><polygon points="18.64 47.65 0 58.36 33.86 77.82 33.86 56.4 18.64 47.65" style="fill:#dd8c1f;"/><polygon points="67.72 58.36 67.72 19.45 67.72 19.45 49.07 30.17 49.07 47.65 49.07 47.65 67.72 58.36 67.72 58.36" style="fill:#a0591f;"/><polygon points="18.64 47.65 18.64 30.17 0 19.45 0 58.36 0 58.36 18.64 47.65 18.64 47.65" style="fill:#ce7f20;"/></g></svg>