<svg xmlns="http://www.w3.org/2000/svg" viewBox="0 0 512 512" width="512" height="512"><rect fill="#2A2A2A" width="512" height="512" rx="64"/><svg x="96" y="96" width="320" height="320" viewBox="0 0 67.88 78.38"><g><polygon points="18.69 30.38 18.69 48 33.94 56.8 33.94 39.19 18.69 30.38" style="fill:#E8E8EC;"/><polygon points="33.94 21.58 33.94 21.58 18.69 30.38 33.94 39.19 49.19 30.38 33.94 21.58" style="fill:#E8E8EC;"/><polygon points="49.19 30.38 33.94 39.19 33.94 56.8 33.94 56.8 49.19 48 49.19 30.38" style="fill:#E8E8EC;"/><polygon points="33.94 21.58 18.69 30.38 18.69 30.38 33.94 39.19 49.19 30.38 49.19 30.38 33.94 21.58" style="fill:#E8E8EC;"/><polygon points="49.19 30.38 49.19 30.38 67.88 19.6 33.94 0 33.94 21.58 49.19 30.38" style="fill:#E8E8EC;"/><polygon points="18.69 30.38 33.94 21.58 33.94 0 0 19.6 18.69 30.38 18.69 30.38" style="fill:#E8E8EC;"/><polygon points="18.69 48 0 58.79 33.94 78.38 33.94 56.8 18.69 48" style="fill:#E8E8EC;"/><polygon points="49.19 48 33.94 56.8 33.94 56.8 33.94 78.38 67.88 58.79 49.19 48" style="fill:#E8E8EC;"/><polygon points="67.88 58.79 67.88 19.6 67.88 19.6 49.19 30.38 49.19 48 49.19 48 67.88 58.79 67.88 58.79" style="fill:#E8E8EC;"/><polygon points="18.69 48 18.69 30.38 0 19.6 0 58.79 0 58.79 18.69 48 18.69 48" style="fill:#E8E8EC;"/></g></svg></svg>