<svg xmlns="http://www.w3.org/2000/svg" viewBox="0 0 512 512" width="512" height="512"><rect fill="#2A2A2A" width="512" height="512" rx="64"/><svg x="96" y="96" width="320" height="320" viewBox="0 0 69.31 80.03"><g><polygon points="19.08 31.02 19.08 49.01 34.65 58 34.65 40.02 19.08 31.02" style="fill:#E8E8EC;"/><polygon points="34.65 22.03 34.65 22.03 19.08 31.02 34.65 40.02 50.23 31.02 34.65 22.03" style="fill:#E8E8EC;"/><polygon points="50.23 31.02 34.65 40.02 34.65 58 34.65 58 50.23 49.01 50.23 31.02" style="fill:#E8E8EC;"/><polygon points="34.65 22.03 19.08 31.02 19.08 31.02 34.65 40.02 50.23 31.02 50.23 31.02 34.65 22.03" style="fill:none;"/><polygon points="50.23 31.02 50.23 31.02 69.31 20.01 34.65 0 34.65 22.03 50.23 31.02" style="fill:#E8E8EC;"/><polygon points="19.08 31.02 34.65 22.03 34.65 0 0 20.01 19.08 31.02 19.08 31.02" style="fill:#E8E8EC;"/><polygon points="19.08 49.01 0 60.02 34.65 80.03 34.65 58 19.08 49.01" style="fill:#E8E8EC;"/><polygon points="50.23 49.01 34.65 58 34.65 58 34.65 80.03 69.31 60.02 50.23 49.01" style="fill:#E8E8EC;"/><polygon points="69.31 60.02 69.31 20.01 69.31 20.01 50.23 31.02 50.23 49.01 50.23 49.01 69.31 60.02 69.31 60.02" style="fill:#E8E8EC;"/><polygon points="19.08 49.01 19.08 31.02 0 20.01 0 60.02 0 60.02 19.08 49.01 19.08 49.01" style="fill:#E8E8EC;"/></g></svg></svg>