<svg xmlns="http://www.w3.org/2000/svg" viewBox="0 0 512 512" width="512" height="512"><rect fill="#2A2A2A" width="512" height="512" rx="64"/><svg x="96" y="96" width="320" height="320" viewBox="0 0 70.07 80.91"><g><polygon points="19.29 31.36 19.29 49.54 35.03 58.64 35.03 40.45 19.29 31.36" style="fill:#E8E8EC;"/><polygon points="35.03 22.27 35.03 22.27 19.29 31.36 35.03 40.45 50.78 31.36 35.03 22.27" style="fill:#E8E8EC;"/><polygon points="50.78 31.36 35.03 40.45 35.03 58.64 35.03 58.64 50.78 49.54 50.78 31.36" style="fill:#E8E8EC;"/><polygon points="50.78 31.36 50.78 31.36 70.07 20.23 35.03 0 35.03 22.27 50.78 31.36" style="fill:#E8E8EC;"/><polygon points="19.29 31.36 35.03 22.27 35.03 0 0 20.23 19.29 31.36 19.29 31.36" style="fill:#E8E8EC;"/><polygon points="19.29 49.55 0 60.68 35.03 80.91 35.03 58.63 19.29 49.55" style="fill:#E8E8EC;"/><polygon points="50.78 49.54 35.03 58.63 35.03 58.63 35.03 80.91 70.07 60.68 50.78 49.54" style="fill:#E8E8EC;"/><polygon points="70.07 60.68 70.07 20.23 70.07 20.23 50.78 31.36 50.78 49.54 50.78 49.54 70.07 60.68 70.07 60.68" style="fill:#E8E8EC;"/><polygon points="19.29 49.54 19.29 31.36 0 20.23 0 60.68 0 60.68 19.29 49.55 19.29 49.54" style="fill:#E8E8EC;"/></g></svg></svg>