<?xml version="1.0" encoding="UTF-8"?><svg id="Layer_2" xmlns="http://www.w3.org/2000/svg" viewBox="0 0 68.27 78.83"><g id="Layer_1-2"><polygon points="18.79 30.56 18.79 48.27 34.14 57.13 34.14 39.42 18.79 30.56" style="fill:#abe233;"/><polygon points="34.14 21.7 34.14 21.7 18.79 30.56 34.14 39.42 49.48 30.56 34.14 21.7" style="fill:#92cc2b;"/><polygon points="49.48 30.56 34.14 39.42 34.14 57.13 34.14 57.13 49.48 48.27 49.48 30.56" style="fill:#7ac410;"/><polygon points="34.14 21.7 18.79 30.56 18.79 30.56 34.14 39.42 49.48 30.56 49.48 30.56 34.14 21.7" style="fill:none;"/><polygon points="49.48 30.56 49.48 30.56 68.27 19.71 34.14 0 34.14 21.7 49.48 30.56" style="fill:#598700;"/><polygon points="18.79 30.56 34.14 21.7 34.14 0 0 19.71 18.79 30.56 18.79 30.56" style="fill:#5e9900;"/><polygon points="18.8 48.27 0 59.12 34.14 78.83 34.14 57.13 18.8 48.27" style="fill:#6eb512;"/><polygon points="49.48 48.27 34.14 57.13 34.14 57.13 34.14 78.83 68.27 59.12 49.48 48.27" style="fill:#506d00;"/><polygon points="68.27 59.12 68.27 19.71 68.27 19.71 49.48 30.56 49.48 48.27 49.48 48.27 68.27 59.12 68.27 59.12" style="fill:#547700;"/><polygon points="18.79 48.27 18.79 30.56 0 19.71 0 59.12 0 59.12 18.8 48.27 18.79 48.27" style="fill:#64aa00;"/></g></svg>