<svg width="68" height="78" viewBox="0 0 68 78" fill="none" xmlns="http://www.w3.org/2000/svg">
<path d="M33.86 21.42L18.64 30.17L33.86 38.91L49.07 30.17L33.86 21.42Z" fill="#F9A51E"/>
<path d="M49.07 47.65L33.86 56.4V77.82L67.72 58.36L49.07 47.65Z" fill="#8C4C1C"/>
<path d="M18.64 30.17V47.65L33.86 56.4V38.91L18.64 30.17Z" fill="#FFAE39"/>
<path d="M49.07 30.17L33.86 38.91V56.4L49.07 47.65V30.17Z" fill="#EA971F"/>
<path d="M49.07 30.17L67.72 19.45L33.86 0V21.42L49.07 30.17Z" fill="#B56A1F"/>
<path d="M18.64 30.17L33.86 21.42V0L0 19.45L18.64 30.17Z" fill="#C1741F"/>
<path d="M18.64 47.65L0 58.36L33.86 77.82V56.4L18.64 47.65Z" fill="#DD8C1F"/>
<path d="M67.7199 58.36V19.45L49.0699 30.17V47.65L67.7199 58.36Z" fill="#A0591F"/>
<path d="M18.64 47.65V30.17L0 19.45V58.36L18.64 47.65Z" fill="#CE7F20"/>
<rect width="67.72" height="77.82" fill="black" style="mix-blend-mode:saturation"/>
</svg>
