<?xml version="1.0" encoding="UTF-8"?><svg id="Layer_2" xmlns="http://www.w3.org/2000/svg" viewBox="0 0 67.88 78.38"><g id="Layer_1-2"><polygon points="18.69 30.38 18.69 48 33.94 56.8 33.94 39.19 18.69 30.38" style="fill:#a1a1ff;"/><polygon points="33.94 21.58 33.94 21.58 18.69 30.38 33.94 39.19 49.19 30.38 33.94 21.58" style="fill:#9b51a8;"/><polygon points="49.19 30.38 33.94 39.19 33.94 56.8 33.94 56.8 49.19 48 49.19 30.38" style="fill:#8080ff;"/><polygon points="33.94 21.58 18.69 30.38 18.69 30.38 33.94 39.19 49.19 30.38 49.19 30.38 33.94 21.58" style="fill:#9292ff;"/><polygon points="49.19 30.38 49.19 30.38 67.88 19.6 33.94 0 33.94 21.58 49.19 30.38" style="fill:#5552ef;"/><polygon points="18.69 30.38 33.94 21.58 33.94 0 0 19.6 18.69 30.38 18.69 30.38" style="fill:#5a5aff;"/><polygon points="18.69 48 0 58.79 33.94 78.38 33.94 56.8 18.69 48" style="fill:#7171ff;"/><polygon points="49.19 48 33.94 56.8 33.94 56.8 33.94 78.38 67.88 58.79 49.19 48" style="fill:#5443d1;"/><polygon points="67.88 58.79 67.88 19.6 67.88 19.6 49.19 30.38 49.19 48 49.19 48 67.88 58.79 67.88 58.79" style="fill:#564be2;"/><polygon points="18.69 48 18.69 30.38 0 19.6 0 58.79 0 58.79 18.69 48 18.69 48" style="fill:#6464ff;"/></g></svg>