<svg xmlns="http://www.w3.org/2000/svg" viewBox="0 0 512 512" width="512" height="512"><rect fill="#2A2A2A" width="512" height="512" rx="64"/><svg x="96" y="96" width="320" height="320" viewBox="0 0 68.27 78.83"><g><polygon points="18.79 30.56 18.79 48.27 34.13 57.13 34.13 39.42 18.79 30.56" style="fill:#E8E8EC;"/><polygon points="34.13 21.7 34.13 21.7 18.79 30.56 34.13 39.42 49.48 30.56 34.13 21.7" style="fill:#E8E8EC;"/><polygon points="49.48 30.56 34.13 39.42 34.13 57.13 34.13 57.13 49.48 48.27 49.48 30.56" style="fill:#E8E8EC;"/><polygon points="34.13 21.7 18.79 30.56 18.79 30.56 34.13 39.42 49.48 30.56 49.48 30.56 34.13 21.7" style="fill:none;"/><polygon points="49.48 30.56 49.48 30.56 68.27 19.71 34.13 0 34.13 21.7 49.48 30.56" style="fill:gray;"/><polygon points="18.79 30.56 34.13 21.7 34.13 0 0 19.71 18.79 30.56 18.79 30.56" style="fill:#E8E8EC;"/><polygon points="18.79 48.27 0 59.12 34.13 78.83 34.13 57.13 18.79 48.27" style="fill:#E8E8EC;"/><polygon points="49.48 48.27 34.13 57.13 34.13 57.13 34.13 78.83 68.27 59.12 49.48 48.27" style="fill:#E8E8EC;"/><polygon points="68.27 59.12 68.27 19.71 68.27 19.71 49.48 30.56 49.48 48.27 49.48 48.27 68.27 59.12 68.27 59.12" style="fill:#E8E8EC;"/><polygon points="18.79 48.27 18.79 30.56 0 19.71 0 59.12 0 59.12 18.79 48.27 18.79 48.27" style="fill:#E8E8EC;"/></g></svg></svg>