<?xml version="1.0" encoding="UTF-8"?><svg id="Layer_2" xmlns="http://www.w3.org/2000/svg" viewBox="0 0 68.56 79.16"><g id="Layer_1-2"><polygon points="18.87 30.69 18.87 48.48 34.28 57.37 34.28 39.58 18.87 30.69" style="fill:#a3e5ef;"/><polygon points="34.28 21.79 34.28 21.79 18.87 30.69 34.28 39.58 49.68 30.69 34.28 21.79" style="fill:#8bdef2;"/><polygon points="49.68 30.69 34.28 39.58 34.28 57.37 34.28 57.37 49.68 48.48 49.68 30.69" style="fill:#76d9f4;"/><polygon points="34.28 21.79 18.87 30.69 18.87 30.69 34.28 39.58 49.68 30.69 49.68 30.69 34.28 21.79" style="fill:none;"/><polygon points="49.68 30.69 49.68 30.69 68.56 19.79 34.28 0 34.28 21.79 49.68 30.69" style="fill:#229def;"/><polygon points="18.87 30.69 34.28 21.79 34.28 0 0 19.79 18.87 30.69 18.87 30.69" style="fill:#37aced;"/><polygon points="18.87 48.48 0 59.37 34.28 79.16 34.28 57.37 18.87 48.48" style="fill:#5dc4e8;"/><polygon points="49.68 48.48 34.28 57.37 34.28 57.37 34.28 79.16 68.56 59.37 49.68 48.48" style="fill:#007af4;"/><polygon points="68.56 59.37 68.56 19.79 68.56 19.79 49.68 30.69 49.68 48.48 49.68 48.48 68.56 59.37 68.56 59.37" style="fill:#148df2;"/><polygon points="18.87 48.48 18.87 30.69 0 19.79 0 59.37 0 59.37 18.87 48.48 18.87 48.48" style="fill:#4bb9ea;"/></g></svg>