<?xml version="1.0" encoding="UTF-8"?><svg id="Layer_2" xmlns="http://www.w3.org/2000/svg" viewBox="0 0 70.07 80.91"><g id="Layer_1-2"><polygon points="19.29 31.36 19.29 49.54 35.03 58.64 35.03 40.45 19.29 31.36" style="fill:#ff9494;"/><polygon points="35.03 22.27 35.03 22.27 19.29 31.36 35.03 40.45 50.78 31.36 35.03 22.27" style="fill:#ff8080;"/><polygon points="50.78 31.36 35.03 40.45 35.03 58.64 35.03 58.64 50.78 49.54 50.78 31.36" style="fill:#ff6e6e;"/><polygon points="50.78 31.36 50.78 31.36 70.07 20.23 35.03 0 35.03 22.27 50.78 31.36" style="fill:#fc1010;"/><polygon points="19.29 31.36 35.03 22.27 35.03 0 0 20.23 19.29 31.36 19.29 31.36" style="fill:#ff2c2c;"/><polygon points="19.29 49.55 0 60.68 35.03 80.91 35.03 58.63 19.29 49.55" style="fill:#ff5a5a;"/><polygon points="50.78 49.54 35.03 58.63 35.03 58.63 35.03 80.91 70.07 60.68 50.78 49.54" style="fill:#e00a0a;"/><polygon points="70.07 60.68 70.07 20.23 70.07 20.23 50.78 31.36 50.78 49.54 50.78 49.54 70.07 60.68 70.07 60.68" style="fill:#f40c0c;"/><polygon points="19.29 49.54 19.29 31.36 0 20.23 0 60.68 0 60.68 19.29 49.55 19.29 49.54" style="fill:#ff4545;"/></g></svg>