<svg width="22" height="22" viewBox="0 0 22 22" fill="none" xmlns="http://www.w3.org/2000/svg">
<path d="M7.80572 10.6571L12.3772 3H13.4743V19H11.7372V7.41143L7.73715 13.9943L3.73714 7.41143V19H2V3H3.09714L7.80572 10.6571Z" fill="white" stroke="black" stroke-opacity="0.2" stroke-width="0.2"/>
<path d="M9.00884 10.6571L13.5803 3H14.6774V19H12.9403V7.41143L8.94027 13.9943L4.94027 7.41143V19H3.20312V3H4.30027L9.00884 10.6571Z" fill="white" stroke="black" stroke-opacity="0.3" stroke-width="0.2"/>
<path d="M10.2115 10.6571L14.7829 3H15.8801V19H14.1429V7.41143L10.1429 13.9943L6.14291 7.41143V19H4.40576V3H5.50291L10.2115 10.6571Z" fill="white" stroke="black" stroke-opacity="0.4" stroke-width="0.2"/>
<path d="M11.4146 10.6571L15.986 3H17.0832V19H15.346V7.41143L11.346 13.9943L7.34603 7.41143V19H5.60889V3H6.70603L11.4146 10.6571Z" fill="white" stroke="black" stroke-opacity="0.5" stroke-width="0.2"/>
<path d="M12.6177 10.6571L17.1892 3H18.2863V19H16.5492V7.41143L12.5492 13.9943L8.54916 7.41143V19H6.81201V3H7.90916L12.6177 10.6571Z" fill="white" stroke="black" stroke-opacity="0.6" stroke-width="0.2"/>
<path d="M13.8209 10.6571L18.3923 3H19.4894V19H17.7523V7.41143L13.7523 13.9943L9.75228 7.41143V19H8.01514V3H9.11228L13.8209 10.6571Z" fill="black" stroke="black" stroke-width="0.2"/>
</svg>
