<svg width="384" height="98" viewBox="0 0 384 98" fill="none" xmlns="http://www.w3.org/2000/svg">
<path d="M0 97.5237V76.6865H14.0385C18.1097 76.6865 20.6366 79.5739 20.6366 83.0567C20.6366 87.2837 17.8289 89.3972 14.0385 89.3972H3.98694V97.5237H0ZM3.95887 85.9144H13.3366C15.6389 85.9144 16.6497 85.0809 16.6497 83.0567C16.6497 81.0325 15.6389 80.1693 13.3366 80.1693H3.95887V85.9144Z" fill="currentColor"/>
<path d="M16.9713 97.5237L28.9321 76.6865H33.7614L45.7503 97.5237H41.1456L38.7029 93.1181H23.9905L21.5759 97.5237H16.9713ZM25.9279 89.546H36.7656L31.3748 79.6334L25.9279 89.546Z" fill="currentColor"/>
<path d="M49.2713 97.5237V90.7963L38.8266 76.6865H43.7121L51.2648 87.0753L58.7894 76.6865H63.6749L53.2583 90.7665V97.5237H49.2713Z" fill="currentColor"/>
<path d="M64.4577 97.5237V76.6865H68.557L76.8397 91.3321L85.1224 76.6865H89.2217V97.5237H85.2347V83.4139L77.2047 97.5237H76.4466L68.4447 83.5032V97.5237H64.4577Z" fill="currentColor"/>
<path d="M92.7892 97.5237V76.6865H111.741V80.2288H96.7762V84.7832H110.085V88.0577H96.7762V93.9516H111.741V97.5237H92.7892Z" fill="currentColor"/>
<path d="M114.732 97.5237V76.6865H118.354L133.066 91.6893V76.6865H137.053V97.5237H133.403L118.719 82.5209V97.5237H114.732Z" fill="currentColor"/>
<path d="M147.235 97.5237V80.2288H138.531V76.6865H159.954V80.2288H151.222V97.5237H147.235Z" fill="currentColor"/>
<path d="M170.744 98C164.034 98 159.794 95.0828 159.85 90.826H164.006C163.978 92.9991 166.476 94.4279 170.576 94.4279C175.208 94.4279 177.763 93.5349 177.763 91.5702C177.763 85.9442 160.384 92.4632 160.384 82.7888C160.384 78.532 164.623 76.2102 170.716 76.2102C177.118 76.2102 181.329 79.0679 181.357 83.3841H177.286C177.286 81.1814 174.815 79.7525 170.828 79.7525C166.757 79.7525 164.427 80.6455 164.427 82.4316C164.427 87.6707 181.778 81.5981 181.778 91.3916C181.778 95.7377 177.426 98 170.744 98Z" fill="currentColor"/>
<path d="M199.797 97.5237V76.6865H213.835C217.907 76.6865 220.434 79.5739 220.434 83.0567C220.434 87.2837 217.626 89.3972 213.835 89.3972H203.784V97.5237H199.797ZM203.756 85.9144H213.133C215.436 85.9144 216.447 85.0809 216.447 83.0567C216.447 81.0325 215.436 80.1693 213.133 80.1693H203.756V85.9144Z" fill="currentColor"/>
<path d="M222.343 97.5237V76.6865H237.785C241.857 76.6865 244.103 79.0083 244.103 82.1934C244.103 85.5274 241.492 87.4325 237.785 87.4325L235.708 87.4623V87.5218C240.34 87.8493 242.25 90.7367 245.591 97.5237H240.958C237.308 90.5879 236.353 88.6828 232.844 88.6828H226.302L226.33 97.5237H222.343ZM226.302 85.2297H236.803C239.133 85.2297 240.116 84.3367 240.116 82.8186C240.116 80.973 239.105 80.1693 236.803 80.1693H226.274L226.302 85.2297Z" fill="currentColor"/>
<path d="M257.422 98C250.29 98 245.573 93.6539 245.573 87.1051C245.573 80.5562 250.29 76.2102 257.422 76.2102C264.525 76.2102 269.27 80.5562 269.27 87.1051C269.27 93.6539 264.525 98 257.422 98ZM257.422 94.4279C262.139 94.4279 265.283 91.6298 265.283 87.1051C265.283 82.5804 262.139 79.7525 257.422 79.7525C252.705 79.7525 249.56 82.5804 249.56 87.1051C249.56 91.6298 252.705 94.4279 257.422 94.4279Z" fill="currentColor"/>
<path d="M277.035 97.5237V80.2288H268.331V76.6865H289.754V80.2288H281.022V97.5237H277.035Z" fill="currentColor"/>
<path d="M300.649 98C293.518 98 288.801 93.6539 288.801 87.1051C288.801 80.5562 293.518 76.2102 300.649 76.2102C307.753 76.2102 312.498 80.5562 312.498 87.1051C312.498 93.6539 307.753 98 300.649 98ZM300.649 94.4279C305.366 94.4279 308.511 91.6298 308.511 87.1051C308.511 82.5804 305.366 79.7525 300.649 79.7525C295.932 79.7525 292.788 82.5804 292.788 87.1051C292.788 91.6298 295.932 94.4279 300.649 94.4279Z" fill="currentColor"/>
<path d="M326.295 98C319.192 98 314.447 93.6539 314.447 87.1051C314.447 80.5562 319.192 76.2102 326.295 76.2102C333.427 76.2102 338.144 80.0204 338.144 85.7656H334.1C333.932 82.0446 330.815 79.7525 326.295 79.7525C321.578 79.7525 318.434 82.5804 318.434 87.1051C318.434 91.6298 321.578 94.4279 326.295 94.4279C330.844 94.4279 333.96 92.1656 334.1 88.4446H338.144C338.144 94.1898 333.427 98 326.295 98Z" fill="currentColor"/>
<path d="M351.883 98C344.752 98 340.035 93.6539 340.035 87.1051C340.035 80.5562 344.752 76.2102 351.883 76.2102C358.987 76.2102 363.732 80.5562 363.732 87.1051C363.732 93.6539 358.987 98 351.883 98ZM351.883 94.4279C356.6 94.4279 359.745 91.6298 359.745 87.1051C359.745 82.5804 356.6 79.7525 351.883 79.7525C347.166 79.7525 344.022 82.5804 344.022 87.1051C344.022 91.6298 347.166 94.4279 351.883 94.4279Z" fill="currentColor"/>
<path d="M366.311 97.5237V76.6865H370.298V93.9516H384V97.5237H366.311Z" fill="currentColor"/>
<path d="M0 49.5782V1.10789H10.0214L30.2702 35.1756L50.519 1.10789H60.5405V49.5782H50.7936V16.7569L31.1626 49.5782H29.3093L9.74688 16.9646V49.5782H0Z" fill="currentColor"/>
<path d="M63.0737 49.5782L92.3144 1.10789H104.12L133.43 49.5782H122.173L116.201 39.3302H80.2337L74.3307 49.5782H63.0737ZM84.9699 31.021H111.465L98.286 7.96297L84.9699 31.021Z" fill="currentColor"/>
<path d="M159.513 50.6861C142.147 50.6861 130.547 40.5765 130.547 25.343C130.547 10.1095 142.147 0 159.513 0C176.948 0 188.479 8.86314 188.479 22.2271H178.595C178.183 13.5717 170.564 8.23995 159.513 8.23995C147.981 8.23995 140.294 14.8181 140.294 25.343C140.294 35.868 147.981 42.3769 159.513 42.3769C170.633 42.3769 178.252 37.1144 178.595 28.459H188.479C188.479 41.8229 176.948 50.6861 159.513 50.6861Z" fill="currentColor"/>
<path d="M194.782 49.5782V1.10789H204.529V19.6651H236.858V1.10789H246.605V49.5782H236.858V27.9743H204.529V49.5782H194.782Z" fill="currentColor"/>
<path d="M255.33 49.5782V1.10789H265.077V49.5782H255.33Z" fill="currentColor"/>
<path d="M273.849 49.5782V1.10789H282.704L318.671 36.0065V1.10789H328.418V49.5782H319.495L283.596 14.6796V49.5782H273.849Z" fill="currentColor"/>
<path d="M337.213 49.5782V1.10789H383.545V9.34784H346.96V19.9421H379.495V27.5588H346.96V41.269H383.545V49.5782H337.213Z" fill="currentColor"/>
</svg>
