<svg width="151" height="51" viewBox="0 0 151 51" fill="none" xmlns="http://www.w3.org/2000/svg">
<g clip-path="url(#clip0_1_33)">
<path fill-rule="evenodd" clip-rule="evenodd" d="M101.912 0.0996094H133.248C143.688 0.0996298 150.168 7.08391 150.168 15.5078C150.168 25.7318 142.968 30.8437 133.248 30.8438H107.472V50.5H97.248V30.7998C97.7655 30.7998 96.7456 30.8288 97.248 30.7998L63.7158 30.8438V50.5H53.248V16.6133L32.9434 50.2002H30.9844L10.3037 16.5566V50.2002H0V0.200195H10.5938L32 35.3428L53.1221 0.200195H53.248V0.0996094H82.9121H101.912ZM63.7158 22.4199H87.4482C93.3521 22.4199 95.9443 20.4037 95.9443 15.5078C95.9443 10.612 93.352 8.52447 87.4482 8.52441H63.7158V22.4199ZM107.4 22.4199H131.448C137.352 22.4199 139.944 20.4037 139.944 15.5078C139.944 10.612 137.352 8.52447 131.448 8.52441H107.4V22.4199Z" fill="white"/>
</g>
<defs>
<clipPath id="clip0_1_33">
<rect width="151" height="51" fill="white"/>
</clipPath>
</defs>
</svg>
