<svg width="32" height="14" viewBox="0 0 32 14" fill="none" xmlns="http://www.w3.org/2000/svg">
<path d="M5.0262 6.56539L8.8262 0.200386H9.7382V13.5004H8.2942V3.86739L4.9692 9.33939L1.6442 3.86739V13.5004H0.200195V0.200386H1.1122L5.0262 6.56539Z" fill="black"/>
<path d="M13.2691 13.5004H11.8251V0.200386H18.6461L20.6411 2.19539V5.95739L18.6461 7.95239H13.2691V13.5004ZM13.2691 1.64439V6.50839H17.9811L19.1971 5.29239V2.86039L17.9811 1.64439H13.2691Z" fill="black"/>
<path d="M23.5209 13.5004H22.0769V0.200386H28.8979L30.8929 2.19539V5.95739L28.8979 7.95239H23.5209V13.5004ZM23.5209 1.64439V6.50839H28.2329L29.4489 5.29239V2.86039L28.2329 1.64439H23.5209Z" fill="black"/>
<path d="M12.4652 12.5004V13.5004H8.96519V12.5004H12.4652Z" fill="black"/>
<path d="M27.9652 0.200196V1.60059L17.9652 1.60059V0.200195L27.9652 0.200196Z" fill="black"/>
<path d="M1.22363 0L1.28223 0.0957031L5.02344 6.17969L8.6543 0.0976562L8.71289 0H9.93848V12.3008H11.625V0H28.9805L31.0928 2.1123V6.04004L28.9805 8.15234H23.7207V13.7002H21.877V1.80078H20.5293L20.8408 2.1123V6.04004L18.7285 8.15234H13.4688V13.7002H8.09375V4.58203L4.96875 9.72461L1.84375 4.58008V13.7002H0V0H1.22363ZM28.165 1.44434H28.3154L29.5908 2.71875L29.6484 2.77734V5.375L29.5908 5.43359L28.3154 6.70801H23.3213V1.80078H22.2773V13.3008H23.3213V7.75195H28.8154L30.6934 5.87402V2.27832L28.8154 0.400391H28.165V1.44434ZM12.0254 12.3008H12.665V13.3008H13.0693V7.75195H18.5635L20.4414 5.87402V2.27832L19.9639 1.80078H18.4199L19.3975 2.77734V5.375L18.0635 6.70801H13.0693V1.44434H17.7656V0.400391H12.0254V12.3008ZM12.0254 13.3008H12.2656V12.7002H12.0254V13.3008ZM9.93848 13.3008H11.625V12.7002H9.93848V13.3008ZM9.16504 13.3008H9.53809V12.7002H9.16504V13.3008ZM0.400391 13.3008H1.44434V3.15332L4.96875 8.95312L8.49414 3.15332V13.3008H8.76562V12.3008H9.53809V0.400391H8.93945L5.19824 6.66797L5.02832 6.95117L1 0.400391H0.400391V13.3008ZM23.7207 6.30859H28.1504L29.249 5.20996V2.94336L28.1504 1.84473H23.7207V6.30859ZM13.4688 6.30859H17.8984L18.9971 5.20996V2.94336L17.8984 1.84473H13.4688V6.30859ZM22.2773 1.40039H27.7656V0.400391H22.2773V1.40039ZM20.1289 1.40039H21.877V0.400391H19.1289L20.1289 1.40039ZM18.165 1.40039H19.5635L18.5635 0.400391H18.165V1.40039Z" fill="black"/>
</svg>
