<svg width="479" height="135" viewBox="0 0 479 135" fill="none" xmlns="http://www.w3.org/2000/svg">
<path fill-rule="evenodd" clip-rule="evenodd" d="M425.029 0C458.33 5.46822e-05 479 18.7078 479 41.2717C479 68.6571 456.034 82.3497 425.029 82.3497H342.809V135H310.198V82.232C311.849 82.232 308.595 82.3097 310.198 82.232L203.238 82.3497V135H169.849V44.2327L105.081 134.197H98.8328L32.8664 44.081V134.197H0V0.269425H33.7915L102.072 94.4006L169.447 0.269425H169.849V0H425.029ZM203.238 59.7861H278.939C297.771 59.7859 306.04 54.3857 306.04 41.2717C306.039 28.158 297.771 22.5664 278.939 22.5663H203.238V59.7861ZM342.582 59.7861H419.289C438.12 59.7859 446.389 54.3857 446.389 41.2717C446.389 28.158 438.12 22.5664 419.289 22.5663H342.582V59.7861Z" fill="white"/>
</svg>
