<svg width="239" height="239" viewBox="0 0 239 239" fill="none" xmlns="http://www.w3.org/2000/svg">
<path d="M131.905 52.5557V121.413H158.376V19.2044H131.905H131.602L80.8658 90.614L29.4468 19.2044H4V120.804H28.7501V52.4406L78.4262 120.804H83.1318L131.905 52.5557Z" fill="#1a1a1a"/>
<path fill-rule="evenodd" clip-rule="evenodd" d="M194.687 120.288C219.561 120.288 235 134.245 235 151.078C235 171.507 217.846 181.722 194.687 181.722H133.274V221H108.915V181.634L29.0224 181.722V221H4V120.288H194.687ZM29.0224 137.123V164.889H85.5664C99.6325 164.889 105.808 160.861 105.809 151.078C105.808 141.295 99.6324 137.123 85.5664 137.123H29.0224ZM133.103 137.123V164.889H190.399C204.465 164.889 210.642 160.861 210.642 151.078C210.642 141.295 204.465 137.123 190.399 137.123H133.103Z" fill="#1a1a1a"/>
</svg>
