<svg width="188" height="53" viewBox="0 0 188 53" fill="none" xmlns="http://www.w3.org/2000/svg">
<path fill-rule="evenodd" clip-rule="evenodd" d="M166.817 0C179.887 2.14678e-05 188 7.34454 188 16.2029C188 26.9543 178.986 32.3299 166.817 32.3299H134.547V53H121.748V32.2837C121.119 32.3142 122.396 32.2837 121.748 32.2837L79.7678 32.3299V53H66.6629V17.3654L41.2428 52.6847H38.7903L12.8995 17.3059V52.6847H0V0.105774H13.2626L40.0618 37.061L66.5052 0.105774H66.6629V0H166.817ZM79.7678 23.4716H109.479C116.87 23.4715 120.116 21.3514 120.116 16.2029C120.116 11.0546 116.87 8.85941 109.479 8.85935H79.7678V23.4716ZM134.458 23.4716H164.564C171.955 23.4715 175.201 21.3514 175.201 16.2029C175.201 11.0546 171.955 8.85941 164.564 8.85935H134.458V23.4716Z" fill="currentColor"/>
</svg>
