<svg width="89" height="25" viewBox="0 0 89 25" fill="none" xmlns="http://www.w3.org/2000/svg">
<g opacity="0.35">
<path d="M5.06086 6.46498L8.86086 0.0999756H9.77286V13.4H8.32886V3.76698L5.00386 9.23898L1.67886 3.76698V13.4H0.234863V0.0999756H1.14686L5.06086 6.46498Z" fill="none"/>
<path d="M21.5307 13.4H19.9537L18.8517 10.075H13.6457L12.5437 13.4H10.9667L15.4317 0.0999756H17.0657L21.5307 13.4ZM16.2487 2.28498L14.1397 8.63098H18.3577L16.2487 2.28498Z" fill="none"/>
<path d="M29.1972 13.4H24.3712L22.3762 11.405V2.09498L24.3712 0.0999756H29.1972L31.1922 2.09498V4.90698H29.7482V2.75998L28.5322 1.54398H25.0362L23.8202 2.75998V10.74L25.0362 11.956H28.5322L29.7482 10.74V8.59298H31.1922V11.405L29.1972 13.4Z" fill="none"/>
<path d="M34.563 13.4H33.119V0.0999756H34.563V6.02798H40.491V0.0999756H41.935V13.4H40.491V7.47198H34.563V13.4Z" fill="none"/>
<path d="M45.6542 13.4H44.2102V0.0999756H45.6542V13.4Z" fill="none"/>
<path d="M55.0603 9.59998V0.0999756H56.5043V13.4H55.8203L49.3793 3.82398V13.4H47.9353V0.0999756H48.6193L55.0603 9.59998Z" fill="none"/>
<path d="M67.9813 13.4H58.7853V0.0999756H67.9813V1.54398H60.2293V5.64798H64.1243V7.09198H60.2293V11.956H67.9813V13.4Z" fill="none"/>
<path d="M5.06086 6.46498L8.86086 0.0999756H9.77286V13.4H8.32886V3.76698L5.00386 9.23898L1.67886 3.76698V13.4H0.234863V0.0999756H1.14686L5.06086 6.46498Z" stroke="white" stroke-opacity="0.03" stroke-width="0.2"/>
<path d="M21.5307 13.4H19.9537L18.8517 10.075H13.6457L12.5437 13.4H10.9667L15.4317 0.0999756H17.0657L21.5307 13.4ZM16.2487 2.28498L14.1397 8.63098H18.3577L16.2487 2.28498Z" stroke="white" stroke-opacity="0.03" stroke-width="0.2"/>
<path d="M29.1972 13.4H24.3712L22.3762 11.405V2.09498L24.3712 0.0999756H29.1972L31.1922 2.09498V4.90698H29.7482V2.75998L28.5322 1.54398H25.0362L23.8202 2.75998V10.74L25.0362 11.956H28.5322L29.7482 10.74V8.59298H31.1922V11.405L29.1972 13.4Z" stroke="white" stroke-opacity="0.03" stroke-width="0.2"/>
<path d="M34.563 13.4H33.119V0.0999756H34.563V6.02798H40.491V0.0999756H41.935V13.4H40.491V7.47198H34.563V13.4Z" stroke="white" stroke-opacity="0.03" stroke-width="0.2"/>
<path d="M45.6542 13.4H44.2102V0.0999756H45.6542V13.4Z" stroke="white" stroke-opacity="0.03" stroke-width="0.2"/>
<path d="M55.0603 9.59998V0.0999756H56.5043V13.4H55.8203L49.3793 3.82398V13.4H47.9353V0.0999756H48.6193L55.0603 9.59998Z" stroke="white" stroke-opacity="0.03" stroke-width="0.2"/>
<path d="M67.9813 13.4H58.7853V0.0999756H67.9813V1.54398H60.2293V5.64798H64.1243V7.09198H60.2293V11.956H67.9813V13.4Z" stroke="white" stroke-opacity="0.03" stroke-width="0.2"/>
<path d="M6.06086 6.46498L9.86086 0.0999756H10.7729V13.4H9.32886V3.76698L6.00386 9.23898L2.67886 3.76698V13.4H1.23486V0.0999756H2.14686L6.06086 6.46498Z" fill="none"/>
<path d="M22.5307 13.4H20.9537L19.8517 10.075H14.6457L13.5437 13.4H11.9667L16.4317 0.0999756H18.0657L22.5307 13.4ZM17.2487 2.28498L15.1397 8.63098H19.3577L17.2487 2.28498Z" fill="none"/>
<path d="M30.1972 13.4H25.3712L23.3762 11.405V2.09498L25.3712 0.0999756H30.1972L32.1922 2.09498V4.90698H30.7482V2.75998L29.5322 1.54398H26.0362L24.8202 2.75998V10.74L26.0362 11.956H29.5322L30.7482 10.74V8.59298H32.1922V11.405L30.1972 13.4Z" fill="none"/>
<path d="M35.563 13.4H34.119V0.0999756H35.563V6.02798H41.491V0.0999756H42.935V13.4H41.491V7.47198H35.563V13.4Z" fill="none"/>
<path d="M46.6542 13.4H45.2102V0.0999756H46.6542V13.4Z" fill="none"/>
<path d="M56.0603 9.59998V0.0999756H57.5043V13.4H56.8203L50.3793 3.82398V13.4H48.9353V0.0999756H49.6193L56.0603 9.59998Z" fill="none"/>
<path d="M68.9813 13.4H59.7853V0.0999756H68.9813V1.54398H61.2293V5.64798H65.1243V7.09198H61.2293V11.956H68.9813V13.4Z" fill="none"/>
<path d="M6.06086 6.46498L9.86086 0.0999756H10.7729V13.4H9.32886V3.76698L6.00386 9.23898L2.67886 3.76698V13.4H1.23486V0.0999756H2.14686L6.06086 6.46498Z" stroke="white" stroke-opacity="0.06" stroke-width="0.2"/>
<path d="M22.5307 13.4H20.9537L19.8517 10.075H14.6457L13.5437 13.4H11.9667L16.4317 0.0999756H18.0657L22.5307 13.4ZM17.2487 2.28498L15.1397 8.63098H19.3577L17.2487 2.28498Z" stroke="white" stroke-opacity="0.06" stroke-width="0.2"/>
<path d="M30.1972 13.4H25.3712L23.3762 11.405V2.09498L25.3712 0.0999756H30.1972L32.1922 2.09498V4.90698H30.7482V2.75998L29.5322 1.54398H26.0362L24.8202 2.75998V10.74L26.0362 11.956H29.5322L30.7482 10.74V8.59298H32.1922V11.405L30.1972 13.4Z" stroke="white" stroke-opacity="0.06" stroke-width="0.2"/>
<path d="M35.563 13.4H34.119V0.0999756H35.563V6.02798H41.491V0.0999756H42.935V13.4H41.491V7.47198H35.563V13.4Z" stroke="white" stroke-opacity="0.06" stroke-width="0.2"/>
<path d="M46.6542 13.4H45.2102V0.0999756H46.6542V13.4Z" stroke="white" stroke-opacity="0.06" stroke-width="0.2"/>
<path d="M56.0603 9.59998V0.0999756H57.5043V13.4H56.8203L50.3793 3.82398V13.4H48.9353V0.0999756H49.6193L56.0603 9.59998Z" stroke="white" stroke-opacity="0.06" stroke-width="0.2"/>
<path d="M68.9813 13.4H59.7853V0.0999756H68.9813V1.54398H61.2293V5.64798H65.1243V7.09198H61.2293V11.956H68.9813V13.4Z" stroke="white" stroke-opacity="0.06" stroke-width="0.2"/>
<path d="M7.06086 6.46498L10.8609 0.0999756H11.7729V13.4H10.3289V3.76698L7.00386 9.23898L3.67886 3.76698V13.4H2.23486V0.0999756H3.14686L7.06086 6.46498Z" fill="none"/>
<path d="M23.5307 13.4H21.9537L20.8517 10.075H15.6457L14.5437 13.4H12.9667L17.4317 0.0999756H19.0657L23.5307 13.4ZM18.2487 2.28498L16.1397 8.63098H20.3577L18.2487 2.28498Z" fill="none"/>
<path d="M31.1972 13.4H26.3712L24.3762 11.405V2.09498L26.3712 0.0999756H31.1972L33.1922 2.09498V4.90698H31.7482V2.75998L30.5322 1.54398H27.0362L25.8202 2.75998V10.74L27.0362 11.956H30.5322L31.7482 10.74V8.59298H33.1922V11.405L31.1972 13.4Z" fill="none"/>
<path d="M36.563 13.4H35.119V0.0999756H36.563V6.02798H42.491V0.0999756H43.935V13.4H42.491V7.47198H36.563V13.4Z" fill="none"/>
<path d="M47.6542 13.4H46.2102V0.0999756H47.6542V13.4Z" fill="none"/>
<path d="M57.0603 9.59998V0.0999756H58.5043V13.4H57.8203L51.3793 3.82398V13.4H49.9353V0.0999756H50.6193L57.0603 9.59998Z" fill="none"/>
<path d="M69.9813 13.4H60.7853V0.0999756H69.9813V1.54398H62.2293V5.64798H66.1243V7.09198H62.2293V11.956H69.9813V13.4Z" fill="none"/>
<path d="M7.06086 6.46498L10.8609 0.0999756H11.7729V13.4H10.3289V3.76698L7.00386 9.23898L3.67886 3.76698V13.4H2.23486V0.0999756H3.14686L7.06086 6.46498Z" stroke="white" stroke-opacity="0.09" stroke-width="0.2"/>
<path d="M23.5307 13.4H21.9537L20.8517 10.075H15.6457L14.5437 13.4H12.9667L17.4317 0.0999756H19.0657L23.5307 13.4ZM18.2487 2.28498L16.1397 8.63098H20.3577L18.2487 2.28498Z" stroke="white" stroke-opacity="0.09" stroke-width="0.2"/>
<path d="M31.1972 13.4H26.3712L24.3762 11.405V2.09498L26.3712 0.0999756H31.1972L33.1922 2.09498V4.90698H31.7482V2.75998L30.5322 1.54398H27.0362L25.8202 2.75998V10.74L27.0362 11.956H30.5322L31.7482 10.74V8.59298H33.1922V11.405L31.1972 13.4Z" stroke="white" stroke-opacity="0.09" stroke-width="0.2"/>
<path d="M36.563 13.4H35.119V0.0999756H36.563V6.02798H42.491V0.0999756H43.935V13.4H42.491V7.47198H36.563V13.4Z" stroke="white" stroke-opacity="0.09" stroke-width="0.2"/>
<path d="M47.6542 13.4H46.2102V0.0999756H47.6542V13.4Z" stroke="white" stroke-opacity="0.09" stroke-width="0.2"/>
<path d="M57.0603 9.59998V0.0999756H58.5043V13.4H57.8203L51.3793 3.82398V13.4H49.9353V0.0999756H50.6193L57.0603 9.59998Z" stroke="white" stroke-opacity="0.09" stroke-width="0.2"/>
<path d="M69.9813 13.4H60.7853V0.0999756H69.9813V1.54398H62.2293V5.64798H66.1243V7.09198H62.2293V11.956H69.9813V13.4Z" stroke="white" stroke-opacity="0.09" stroke-width="0.2"/>
<path d="M8.06086 6.46498L11.8609 0.0999756H12.7729V13.4H11.3289V3.76698L8.00386 9.23898L4.67886 3.76698V13.4H3.23486V0.0999756H4.14686L8.06086 6.46498Z" fill="none"/>
<path d="M24.5307 13.4H22.9537L21.8517 10.075H16.6457L15.5437 13.4H13.9667L18.4317 0.0999756H20.0657L24.5307 13.4ZM19.2487 2.28498L17.1397 8.63098H21.3577L19.2487 2.28498Z" fill="none"/>
<path d="M32.1972 13.4H27.3712L25.3762 11.405V2.09498L27.3712 0.0999756H32.1972L34.1922 2.09498V4.90698H32.7482V2.75998L31.5322 1.54398H28.0362L26.8202 2.75998V10.74L28.0362 11.956H31.5322L32.7482 10.74V8.59298H34.1922V11.405L32.1972 13.4Z" fill="none"/>
<path d="M37.563 13.4H36.119V0.0999756H37.563V6.02798H43.491V0.0999756H44.935V13.4H43.491V7.47198H37.563V13.4Z" fill="none"/>
<path d="M48.6542 13.4H47.2102V0.0999756H48.6542V13.4Z" fill="none"/>
<path d="M58.0603 9.59998V0.0999756H59.5043V13.4H58.8203L52.3793 3.82398V13.4H50.9353V0.0999756H51.6193L58.0603 9.59998Z" fill="none"/>
<path d="M70.9813 13.4H61.7853V0.0999756H70.9813V1.54398H63.2293V5.64798H67.1243V7.09198H63.2293V11.956H70.9813V13.4Z" fill="none"/>
<path d="M8.06086 6.46498L11.8609 0.0999756H12.7729V13.4H11.3289V3.76698L8.00386 9.23898L4.67886 3.76698V13.4H3.23486V0.0999756H4.14686L8.06086 6.46498Z" stroke="white" stroke-opacity="0.12" stroke-width="0.2"/>
<path d="M24.5307 13.4H22.9537L21.8517 10.075H16.6457L15.5437 13.4H13.9667L18.4317 0.0999756H20.0657L24.5307 13.4ZM19.2487 2.28498L17.1397 8.63098H21.3577L19.2487 2.28498Z" stroke="white" stroke-opacity="0.12" stroke-width="0.2"/>
<path d="M32.1972 13.4H27.3712L25.3762 11.405V2.09498L27.3712 0.0999756H32.1972L34.1922 2.09498V4.90698H32.7482V2.75998L31.5322 1.54398H28.0362L26.8202 2.75998V10.74L28.0362 11.956H31.5322L32.7482 10.74V8.59298H34.1922V11.405L32.1972 13.4Z" stroke="white" stroke-opacity="0.12" stroke-width="0.2"/>
<path d="M37.563 13.4H36.119V0.0999756H37.563V6.02798H43.491V0.0999756H44.935V13.4H43.491V7.47198H37.563V13.4Z" stroke="white" stroke-opacity="0.12" stroke-width="0.2"/>
<path d="M48.6542 13.4H47.2102V0.0999756H48.6542V13.4Z" stroke="white" stroke-opacity="0.12" stroke-width="0.2"/>
<path d="M58.0603 9.59998V0.0999756H59.5043V13.4H58.8203L52.3793 3.82398V13.4H50.9353V0.0999756H51.6193L58.0603 9.59998Z" stroke="white" stroke-opacity="0.12" stroke-width="0.2"/>
<path d="M70.9813 13.4H61.7853V0.0999756H70.9813V1.54398H63.2293V5.64798H67.1243V7.09198H63.2293V11.956H70.9813V13.4Z" stroke="white" stroke-opacity="0.12" stroke-width="0.2"/>
<path d="M9.06086 6.46498L12.8609 0.0999756H13.7729V13.4H12.3289V3.76698L9.00386 9.23898L5.67886 3.76698V13.4H4.23486V0.0999756H5.14686L9.06086 6.46498Z" fill="none"/>
<path d="M25.5307 13.4H23.9537L22.8517 10.075H17.6457L16.5437 13.4H14.9667L19.4317 0.0999756H21.0657L25.5307 13.4ZM20.2487 2.28498L18.1397 8.63098H22.3577L20.2487 2.28498Z" fill="none"/>
<path d="M33.1972 13.4H28.3712L26.3762 11.405V2.09498L28.3712 0.0999756H33.1972L35.1922 2.09498V4.90698H33.7482V2.75998L32.5322 1.54398H29.0362L27.8202 2.75998V10.74L29.0362 11.956H32.5322L33.7482 10.74V8.59298H35.1922V11.405L33.1972 13.4Z" fill="none"/>
<path d="M38.563 13.4H37.119V0.0999756H38.563V6.02798H44.491V0.0999756H45.935V13.4H44.491V7.47198H38.563V13.4Z" fill="none"/>
<path d="M49.6542 13.4H48.2102V0.0999756H49.6542V13.4Z" fill="none"/>
<path d="M59.0603 9.59998V0.0999756H60.5043V13.4H59.8203L53.3793 3.82398V13.4H51.9353V0.0999756H52.6193L59.0603 9.59998Z" fill="none"/>
<path d="M71.9813 13.4H62.7853V0.0999756H71.9813V1.54398H64.2293V5.64798H68.1243V7.09198H64.2293V11.956H71.9813V13.4Z" fill="none"/>
<path d="M9.06086 6.46498L12.8609 0.0999756H13.7729V13.4H12.3289V3.76698L9.00386 9.23898L5.67886 3.76698V13.4H4.23486V0.0999756H5.14686L9.06086 6.46498Z" stroke="white" stroke-opacity="0.15" stroke-width="0.2"/>
<path d="M25.5307 13.4H23.9537L22.8517 10.075H17.6457L16.5437 13.4H14.9667L19.4317 0.0999756H21.0657L25.5307 13.4ZM20.2487 2.28498L18.1397 8.63098H22.3577L20.2487 2.28498Z" stroke="white" stroke-opacity="0.15" stroke-width="0.2"/>
<path d="M33.1972 13.4H28.3712L26.3762 11.405V2.09498L28.3712 0.0999756H33.1972L35.1922 2.09498V4.90698H33.7482V2.75998L32.5322 1.54398H29.0362L27.8202 2.75998V10.74L29.0362 11.956H32.5322L33.7482 10.74V8.59298H35.1922V11.405L33.1972 13.4Z" stroke="white" stroke-opacity="0.15" stroke-width="0.2"/>
<path d="M38.563 13.4H37.119V0.0999756H38.563V6.02798H44.491V0.0999756H45.935V13.4H44.491V7.47198H38.563V13.4Z" stroke="white" stroke-opacity="0.15" stroke-width="0.2"/>
<path d="M49.6542 13.4H48.2102V0.0999756H49.6542V13.4Z" stroke="white" stroke-opacity="0.15" stroke-width="0.2"/>
<path d="M59.0603 9.59998V0.0999756H60.5043V13.4H59.8203L53.3793 3.82398V13.4H51.9353V0.0999756H52.6193L59.0603 9.59998Z" stroke="white" stroke-opacity="0.15" stroke-width="0.2"/>
<path d="M71.9813 13.4H62.7853V0.0999756H71.9813V1.54398H64.2293V5.64798H68.1243V7.09198H64.2293V11.956H71.9813V13.4Z" stroke="white" stroke-opacity="0.15" stroke-width="0.2"/>
<path d="M10.0609 6.46498L13.8609 0.0999756H14.7729V13.4H13.3289V3.76698L10.0039 9.23898L6.67886 3.76698V13.4H5.23486V0.0999756H6.14686L10.0609 6.46498Z" fill="none"/>
<path d="M26.5307 13.4H24.9537L23.8517 10.075H18.6457L17.5437 13.4H15.9667L20.4317 0.0999756H22.0657L26.5307 13.4ZM21.2487 2.28498L19.1397 8.63098H23.3577L21.2487 2.28498Z" fill="none"/>
<path d="M34.1972 13.4H29.3712L27.3762 11.405V2.09498L29.3712 0.0999756H34.1972L36.1922 2.09498V4.90698H34.7482V2.75998L33.5322 1.54398H30.0362L28.8202 2.75998V10.74L30.0362 11.956H33.5322L34.7482 10.74V8.59298H36.1922V11.405L34.1972 13.4Z" fill="none"/>
<path d="M39.563 13.4H38.119V0.0999756H39.563V6.02798H45.491V0.0999756H46.935V13.4H45.491V7.47198H39.563V13.4Z" fill="none"/>
<path d="M50.6542 13.4H49.2102V0.0999756H50.6542V13.4Z" fill="none"/>
<path d="M60.0603 9.59998V0.0999756H61.5043V13.4H60.8203L54.3793 3.82398V13.4H52.9353V0.0999756H53.6193L60.0603 9.59998Z" fill="none"/>
<path d="M72.9813 13.4H63.7853V0.0999756H72.9813V1.54398H65.2293V5.64798H69.1243V7.09198H65.2293V11.956H72.9813V13.4Z" fill="none"/>
<path d="M10.0609 6.46498L13.8609 0.0999756H14.7729V13.4H13.3289V3.76698L10.0039 9.23898L6.67886 3.76698V13.4H5.23486V0.0999756H6.14686L10.0609 6.46498Z" stroke="white" stroke-opacity="0.18" stroke-width="0.2"/>
<path d="M26.5307 13.4H24.9537L23.8517 10.075H18.6457L17.5437 13.4H15.9667L20.4317 0.0999756H22.0657L26.5307 13.4ZM21.2487 2.28498L19.1397 8.63098H23.3577L21.2487 2.28498Z" stroke="white" stroke-opacity="0.18" stroke-width="0.2"/>
<path d="M34.1972 13.4H29.3712L27.3762 11.405V2.09498L29.3712 0.0999756H34.1972L36.1922 2.09498V4.90698H34.7482V2.75998L33.5322 1.54398H30.0362L28.8202 2.75998V10.74L30.0362 11.956H33.5322L34.7482 10.74V8.59298H36.1922V11.405L34.1972 13.4Z" stroke="white" stroke-opacity="0.18" stroke-width="0.2"/>
<path d="M39.563 13.4H38.119V0.0999756H39.563V6.02798H45.491V0.0999756H46.935V13.4H45.491V7.47198H39.563V13.4Z" stroke="white" stroke-opacity="0.18" stroke-width="0.2"/>
<path d="M50.6542 13.4H49.2102V0.0999756H50.6542V13.4Z" stroke="white" stroke-opacity="0.18" stroke-width="0.2"/>
<path d="M60.0603 9.59998V0.0999756H61.5043V13.4H60.8203L54.3793 3.82398V13.4H52.9353V0.0999756H53.6193L60.0603 9.59998Z" stroke="white" stroke-opacity="0.18" stroke-width="0.2"/>
<path d="M72.9813 13.4H63.7853V0.0999756H72.9813V1.54398H65.2293V5.64798H69.1243V7.09198H65.2293V11.956H72.9813V13.4Z" stroke="white" stroke-opacity="0.18" stroke-width="0.2"/>
<path d="M11.0609 6.46498L14.8609 0.0999756H15.7729V13.4H14.3289V3.76698L11.0039 9.23898L7.67886 3.76698V13.4H6.23486V0.0999756H7.14686L11.0609 6.46498Z" fill="none"/>
<path d="M27.5307 13.4H25.9537L24.8517 10.075H19.6457L18.5437 13.4H16.9667L21.4317 0.0999756H23.0657L27.5307 13.4ZM22.2487 2.28498L20.1397 8.63098H24.3577L22.2487 2.28498Z" fill="none"/>
<path d="M35.1972 13.4H30.3712L28.3762 11.405V2.09498L30.3712 0.0999756H35.1972L37.1922 2.09498V4.90698H35.7482V2.75998L34.5322 1.54398H31.0362L29.8202 2.75998V10.74L31.0362 11.956H34.5322L35.7482 10.74V8.59298H37.1922V11.405L35.1972 13.4Z" fill="none"/>
<path d="M40.563 13.4H39.119V0.0999756H40.563V6.02798H46.491V0.0999756H47.935V13.4H46.491V7.47198H40.563V13.4Z" fill="none"/>
<path d="M51.6542 13.4H50.2102V0.0999756H51.6542V13.4Z" fill="none"/>
<path d="M61.0603 9.59998V0.0999756H62.5043V13.4H61.8203L55.3793 3.82398V13.4H53.9353V0.0999756H54.6193L61.0603 9.59998Z" fill="none"/>
<path d="M73.9813 13.4H64.7853V0.0999756H73.9813V1.54398H66.2293V5.64798H70.1243V7.09198H66.2293V11.956H73.9813V13.4Z" fill="none"/>
<path d="M11.0609 6.46498L14.8609 0.0999756H15.7729V13.4H14.3289V3.76698L11.0039 9.23898L7.67886 3.76698V13.4H6.23486V0.0999756H7.14686L11.0609 6.46498Z" stroke="white" stroke-opacity="0.21" stroke-width="0.2"/>
<path d="M27.5307 13.4H25.9537L24.8517 10.075H19.6457L18.5437 13.4H16.9667L21.4317 0.0999756H23.0657L27.5307 13.4ZM22.2487 2.28498L20.1397 8.63098H24.3577L22.2487 2.28498Z" stroke="white" stroke-opacity="0.21" stroke-width="0.2"/>
<path d="M35.1972 13.4H30.3712L28.3762 11.405V2.09498L30.3712 0.0999756H35.1972L37.1922 2.09498V4.90698H35.7482V2.75998L34.5322 1.54398H31.0362L29.8202 2.75998V10.74L31.0362 11.956H34.5322L35.7482 10.74V8.59298H37.1922V11.405L35.1972 13.4Z" stroke="white" stroke-opacity="0.21" stroke-width="0.2"/>
<path d="M40.563 13.4H39.119V0.0999756H40.563V6.02798H46.491V0.0999756H47.935V13.4H46.491V7.47198H40.563V13.4Z" stroke="white" stroke-opacity="0.21" stroke-width="0.2"/>
<path d="M51.6542 13.4H50.2102V0.0999756H51.6542V13.4Z" stroke="white" stroke-opacity="0.21" stroke-width="0.2"/>
<path d="M61.0603 9.59998V0.0999756H62.5043V13.4H61.8203L55.3793 3.82398V13.4H53.9353V0.0999756H54.6193L61.0603 9.59998Z" stroke="white" stroke-opacity="0.21" stroke-width="0.2"/>
<path d="M73.9813 13.4H64.7853V0.0999756H73.9813V1.54398H66.2293V5.64798H70.1243V7.09198H66.2293V11.956H73.9813V13.4Z" stroke="white" stroke-opacity="0.21" stroke-width="0.2"/>
<path d="M12.0609 6.46498L15.8609 0.0999756H16.7729V13.4H15.3289V3.76698L12.0039 9.23898L8.67886 3.76698V13.4H7.23486V0.0999756H8.14686L12.0609 6.46498Z" fill="none"/>
<path d="M28.5307 13.4H26.9537L25.8517 10.075H20.6457L19.5437 13.4H17.9667L22.4317 0.0999756H24.0657L28.5307 13.4ZM23.2487 2.28498L21.1397 8.63098H25.3577L23.2487 2.28498Z" fill="none"/>
<path d="M36.1972 13.4H31.3712L29.3762 11.405V2.09498L31.3712 0.0999756H36.1972L38.1922 2.09498V4.90698H36.7482V2.75998L35.5322 1.54398H32.0362L30.8202 2.75998V10.74L32.0362 11.956H35.5322L36.7482 10.74V8.59298H38.1922V11.405L36.1972 13.4Z" fill="none"/>
<path d="M41.563 13.4H40.119V0.0999756H41.563V6.02798H47.491V0.0999756H48.935V13.4H47.491V7.47198H41.563V13.4Z" fill="none"/>
<path d="M52.6542 13.4H51.2102V0.0999756H52.6542V13.4Z" fill="none"/>
<path d="M62.0603 9.59998V0.0999756H63.5043V13.4H62.8203L56.3793 3.82398V13.4H54.9353V0.0999756H55.6193L62.0603 9.59998Z" fill="none"/>
<path d="M74.9813 13.4H65.7853V0.0999756H74.9813V1.54398H67.2293V5.64798H71.1243V7.09198H67.2293V11.956H74.9813V13.4Z" fill="none"/>
<path d="M12.0609 6.46498L15.8609 0.0999756H16.7729V13.4H15.3289V3.76698L12.0039 9.23898L8.67886 3.76698V13.4H7.23486V0.0999756H8.14686L12.0609 6.46498Z" stroke="white" stroke-opacity="0.24" stroke-width="0.2"/>
<path d="M28.5307 13.4H26.9537L25.8517 10.075H20.6457L19.5437 13.4H17.9667L22.4317 0.0999756H24.0657L28.5307 13.4ZM23.2487 2.28498L21.1397 8.63098H25.3577L23.2487 2.28498Z" stroke="white" stroke-opacity="0.24" stroke-width="0.2"/>
<path d="M36.1972 13.4H31.3712L29.3762 11.405V2.09498L31.3712 0.0999756H36.1972L38.1922 2.09498V4.90698H36.7482V2.75998L35.5322 1.54398H32.0362L30.8202 2.75998V10.74L32.0362 11.956H35.5322L36.7482 10.74V8.59298H38.1922V11.405L36.1972 13.4Z" stroke="white" stroke-opacity="0.24" stroke-width="0.2"/>
<path d="M41.563 13.4H40.119V0.0999756H41.563V6.02798H47.491V0.0999756H48.935V13.4H47.491V7.47198H41.563V13.4Z" stroke="white" stroke-opacity="0.24" stroke-width="0.2"/>
<path d="M52.6542 13.4H51.2102V0.0999756H52.6542V13.4Z" stroke="white" stroke-opacity="0.24" stroke-width="0.2"/>
<path d="M62.0603 9.59998V0.0999756H63.5043V13.4H62.8203L56.3793 3.82398V13.4H54.9353V0.0999756H55.6193L62.0603 9.59998Z" stroke="white" stroke-opacity="0.24" stroke-width="0.2"/>
<path d="M74.9813 13.4H65.7853V0.0999756H74.9813V1.54398H67.2293V5.64798H71.1243V7.09198H67.2293V11.956H74.9813V13.4Z" stroke="white" stroke-opacity="0.24" stroke-width="0.2"/>
<path d="M13.0609 6.46498L16.8609 0.0999756H17.7729V13.4H16.3289V3.76698L13.0039 9.23898L9.67886 3.76698V13.4H8.23486V0.0999756H9.14686L13.0609 6.46498Z" fill="none"/>
<path d="M29.5307 13.4H27.9537L26.8517 10.075H21.6457L20.5437 13.4H18.9667L23.4317 0.0999756H25.0657L29.5307 13.4ZM24.2487 2.28498L22.1397 8.63098H26.3577L24.2487 2.28498Z" fill="none"/>
<path d="M37.1972 13.4H32.3712L30.3762 11.405V2.09498L32.3712 0.0999756H37.1972L39.1922 2.09498V4.90698H37.7482V2.75998L36.5322 1.54398H33.0362L31.8202 2.75998V10.74L33.0362 11.956H36.5322L37.7482 10.74V8.59298H39.1922V11.405L37.1972 13.4Z" fill="none"/>
<path d="M42.563 13.4H41.119V0.0999756H42.563V6.02798H48.491V0.0999756H49.935V13.4H48.491V7.47198H42.563V13.4Z" fill="none"/>
<path d="M53.6542 13.4H52.2102V0.0999756H53.6542V13.4Z" fill="none"/>
<path d="M63.0603 9.59998V0.0999756H64.5043V13.4H63.8203L57.3793 3.82398V13.4H55.9353V0.0999756H56.6193L63.0603 9.59998Z" fill="none"/>
<path d="M75.9813 13.4H66.7853V0.0999756H75.9813V1.54398H68.2293V5.64798H72.1243V7.09198H68.2293V11.956H75.9813V13.4Z" fill="none"/>
<path d="M13.0609 6.46498L16.8609 0.0999756H17.7729V13.4H16.3289V3.76698L13.0039 9.23898L9.67886 3.76698V13.4H8.23486V0.0999756H9.14686L13.0609 6.46498Z" stroke="white" stroke-opacity="0.27" stroke-width="0.2"/>
<path d="M29.5307 13.4H27.9537L26.8517 10.075H21.6457L20.5437 13.4H18.9667L23.4317 0.0999756H25.0657L29.5307 13.4ZM24.2487 2.28498L22.1397 8.63098H26.3577L24.2487 2.28498Z" stroke="white" stroke-opacity="0.27" stroke-width="0.2"/>
<path d="M37.1972 13.4H32.3712L30.3762 11.405V2.09498L32.3712 0.0999756H37.1972L39.1922 2.09498V4.90698H37.7482V2.75998L36.5322 1.54398H33.0362L31.8202 2.75998V10.74L33.0362 11.956H36.5322L37.7482 10.74V8.59298H39.1922V11.405L37.1972 13.4Z" stroke="white" stroke-opacity="0.27" stroke-width="0.2"/>
<path d="M42.563 13.4H41.119V0.0999756H42.563V6.02798H48.491V0.0999756H49.935V13.4H48.491V7.47198H42.563V13.4Z" stroke="white" stroke-opacity="0.27" stroke-width="0.2"/>
<path d="M53.6542 13.4H52.2102V0.0999756H53.6542V13.4Z" stroke="white" stroke-opacity="0.27" stroke-width="0.2"/>
<path d="M63.0603 9.59998V0.0999756H64.5043V13.4H63.8203L57.3793 3.82398V13.4H55.9353V0.0999756H56.6193L63.0603 9.59998Z" stroke="white" stroke-opacity="0.27" stroke-width="0.2"/>
<path d="M75.9813 13.4H66.7853V0.0999756H75.9813V1.54398H68.2293V5.64798H72.1243V7.09198H68.2293V11.956H75.9813V13.4Z" stroke="white" stroke-opacity="0.27" stroke-width="0.2"/>
<path d="M14.0609 6.46498L17.8609 0.0999756H18.7729V13.4H17.3289V3.76698L14.0039 9.23898L10.6789 3.76698V13.4H9.23486V0.0999756H10.1469L14.0609 6.46498Z" fill="none"/>
<path d="M30.5307 13.4H28.9537L27.8517 10.075H22.6457L21.5437 13.4H19.9667L24.4317 0.0999756H26.0657L30.5307 13.4ZM25.2487 2.28498L23.1397 8.63098H27.3577L25.2487 2.28498Z" fill="none"/>
<path d="M38.1972 13.4H33.3712L31.3762 11.405V2.09498L33.3712 0.0999756H38.1972L40.1922 2.09498V4.90698H38.7482V2.75998L37.5322 1.54398H34.0362L32.8202 2.75998V10.74L34.0362 11.956H37.5322L38.7482 10.74V8.59298H40.1922V11.405L38.1972 13.4Z" fill="none"/>
<path d="M43.563 13.4H42.119V0.0999756H43.563V6.02798H49.491V0.0999756H50.935V13.4H49.491V7.47198H43.563V13.4Z" fill="none"/>
<path d="M54.6542 13.4H53.2102V0.0999756H54.6542V13.4Z" fill="none"/>
<path d="M64.0603 9.59998V0.0999756H65.5043V13.4H64.8203L58.3793 3.82398V13.4H56.9353V0.0999756H57.6193L64.0603 9.59998Z" fill="none"/>
<path d="M76.9813 13.4H67.7853V0.0999756H76.9813V1.54398H69.2293V5.64798H73.1243V7.09198H69.2293V11.956H76.9813V13.4Z" fill="none"/>
<path d="M14.0609 6.46498L17.8609 0.0999756H18.7729V13.4H17.3289V3.76698L14.0039 9.23898L10.6789 3.76698V13.4H9.23486V0.0999756H10.1469L14.0609 6.46498Z" stroke="white" stroke-opacity="0.3" stroke-width="0.2"/>
<path d="M30.5307 13.4H28.9537L27.8517 10.075H22.6457L21.5437 13.4H19.9667L24.4317 0.0999756H26.0657L30.5307 13.4ZM25.2487 2.28498L23.1397 8.63098H27.3577L25.2487 2.28498Z" stroke="white" stroke-opacity="0.3" stroke-width="0.2"/>
<path d="M38.1972 13.4H33.3712L31.3762 11.405V2.09498L33.3712 0.0999756H38.1972L40.1922 2.09498V4.90698H38.7482V2.75998L37.5322 1.54398H34.0362L32.8202 2.75998V10.74L34.0362 11.956H37.5322L38.7482 10.74V8.59298H40.1922V11.405L38.1972 13.4Z" stroke="white" stroke-opacity="0.3" stroke-width="0.2"/>
<path d="M43.563 13.4H42.119V0.0999756H43.563V6.02798H49.491V0.0999756H50.935V13.4H49.491V7.47198H43.563V13.4Z" stroke="white" stroke-opacity="0.3" stroke-width="0.2"/>
<path d="M54.6542 13.4H53.2102V0.0999756H54.6542V13.4Z" stroke="white" stroke-opacity="0.3" stroke-width="0.2"/>
<path d="M64.0603 9.59998V0.0999756H65.5043V13.4H64.8203L58.3793 3.82398V13.4H56.9353V0.0999756H57.6193L64.0603 9.59998Z" stroke="white" stroke-opacity="0.3" stroke-width="0.2"/>
<path d="M76.9813 13.4H67.7853V0.0999756H76.9813V1.54398H69.2293V5.64798H73.1243V7.09198H69.2293V11.956H76.9813V13.4Z" stroke="white" stroke-opacity="0.3" stroke-width="0.2"/>
<path d="M15.0609 6.46498L18.8609 0.0999756H19.7729V13.4H18.3289V3.76698L15.0039 9.23898L11.6789 3.76698V13.4H10.2349V0.0999756H11.1469L15.0609 6.46498Z" fill="none"/>
<path d="M31.5307 13.4H29.9537L28.8517 10.075H23.6457L22.5437 13.4H20.9667L25.4317 0.0999756H27.0657L31.5307 13.4ZM26.2487 2.28498L24.1397 8.63098H28.3577L26.2487 2.28498Z" fill="none"/>
<path d="M39.1972 13.4H34.3712L32.3762 11.405V2.09498L34.3712 0.0999756H39.1972L41.1922 2.09498V4.90698H39.7482V2.75998L38.5322 1.54398H35.0362L33.8202 2.75998V10.74L35.0362 11.956H38.5322L39.7482 10.74V8.59298H41.1922V11.405L39.1972 13.4Z" fill="none"/>
<path d="M44.563 13.4H43.119V0.0999756H44.563V6.02798H50.491V0.0999756H51.935V13.4H50.491V7.47198H44.563V13.4Z" fill="none"/>
<path d="M55.6542 13.4H54.2102V0.0999756H55.6542V13.4Z" fill="none"/>
<path d="M65.0603 9.59998V0.0999756H66.5043V13.4H65.8203L59.3793 3.82398V13.4H57.9353V0.0999756H58.6193L65.0603 9.59998Z" fill="none"/>
<path d="M77.9813 13.4H68.7853V0.0999756H77.9813V1.54398H70.2293V5.64798H74.1243V7.09198H70.2293V11.956H77.9813V13.4Z" fill="none"/>
<path d="M15.0609 6.46498L18.8609 0.0999756H19.7729V13.4H18.3289V3.76698L15.0039 9.23898L11.6789 3.76698V13.4H10.2349V0.0999756H11.1469L15.0609 6.46498Z" stroke="white" stroke-opacity="0.33" stroke-width="0.2"/>
<path d="M31.5307 13.4H29.9537L28.8517 10.075H23.6457L22.5437 13.4H20.9667L25.4317 0.0999756H27.0657L31.5307 13.4ZM26.2487 2.28498L24.1397 8.63098H28.3577L26.2487 2.28498Z" stroke="white" stroke-opacity="0.33" stroke-width="0.2"/>
<path d="M39.1972 13.4H34.3712L32.3762 11.405V2.09498L34.3712 0.0999756H39.1972L41.1922 2.09498V4.90698H39.7482V2.75998L38.5322 1.54398H35.0362L33.8202 2.75998V10.74L35.0362 11.956H38.5322L39.7482 10.74V8.59298H41.1922V11.405L39.1972 13.4Z" stroke="white" stroke-opacity="0.33" stroke-width="0.2"/>
<path d="M44.563 13.4H43.119V0.0999756H44.563V6.02798H50.491V0.0999756H51.935V13.4H50.491V7.47198H44.563V13.4Z" stroke="white" stroke-opacity="0.33" stroke-width="0.2"/>
<path d="M55.6542 13.4H54.2102V0.0999756H55.6542V13.4Z" stroke="white" stroke-opacity="0.33" stroke-width="0.2"/>
<path d="M65.0603 9.59998V0.0999756H66.5043V13.4H65.8203L59.3793 3.82398V13.4H57.9353V0.0999756H58.6193L65.0603 9.59998Z" stroke="white" stroke-opacity="0.33" stroke-width="0.2"/>
<path d="M77.9813 13.4H68.7853V0.0999756H77.9813V1.54398H70.2293V5.64798H74.1243V7.09198H70.2293V11.956H77.9813V13.4Z" stroke="white" stroke-opacity="0.33" stroke-width="0.2"/>
<path d="M16.0609 6.46498L19.8609 0.0999756H20.7729V13.4H19.3289V3.76698L16.0039 9.23898L12.6789 3.76698V13.4H11.2349V0.0999756H12.1469L16.0609 6.46498Z" fill="none"/>
<path d="M32.5307 13.4H30.9537L29.8517 10.075H24.6457L23.5437 13.4H21.9667L26.4317 0.0999756H28.0657L32.5307 13.4ZM27.2487 2.28498L25.1397 8.63098H29.3577L27.2487 2.28498Z" fill="none"/>
<path d="M40.1972 13.4H35.3712L33.3762 11.405V2.09498L35.3712 0.0999756H40.1972L42.1922 2.09498V4.90698H40.7482V2.75998L39.5322 1.54398H36.0362L34.8202 2.75998V10.74L36.0362 11.956H39.5322L40.7482 10.74V8.59298H42.1922V11.405L40.1972 13.4Z" fill="none"/>
<path d="M45.563 13.4H44.119V0.0999756H45.563V6.02798H51.491V0.0999756H52.935V13.4H51.491V7.47198H45.563V13.4Z" fill="none"/>
<path d="M56.6542 13.4H55.2102V0.0999756H56.6542V13.4Z" fill="none"/>
<path d="M66.0603 9.59998V0.0999756H67.5043V13.4H66.8203L60.3793 3.82398V13.4H58.9353V0.0999756H59.6193L66.0603 9.59998Z" fill="none"/>
<path d="M78.9813 13.4H69.7853V0.0999756H78.9813V1.54398H71.2293V5.64798H75.1243V7.09198H71.2293V11.956H78.9813V13.4Z" fill="none"/>
<path d="M16.0609 6.46498L19.8609 0.0999756H20.7729V13.4H19.3289V3.76698L16.0039 9.23898L12.6789 3.76698V13.4H11.2349V0.0999756H12.1469L16.0609 6.46498Z" stroke="white" stroke-opacity="0.36" stroke-width="0.2"/>
<path d="M32.5307 13.4H30.9537L29.8517 10.075H24.6457L23.5437 13.4H21.9667L26.4317 0.0999756H28.0657L32.5307 13.4ZM27.2487 2.28498L25.1397 8.63098H29.3577L27.2487 2.28498Z" stroke="white" stroke-opacity="0.36" stroke-width="0.2"/>
<path d="M40.1972 13.4H35.3712L33.3762 11.405V2.09498L35.3712 0.0999756H40.1972L42.1922 2.09498V4.90698H40.7482V2.75998L39.5322 1.54398H36.0362L34.8202 2.75998V10.74L36.0362 11.956H39.5322L40.7482 10.74V8.59298H42.1922V11.405L40.1972 13.4Z" stroke="white" stroke-opacity="0.36" stroke-width="0.2"/>
<path d="M45.563 13.4H44.119V0.0999756H45.563V6.02798H51.491V0.0999756H52.935V13.4H51.491V7.47198H45.563V13.4Z" stroke="white" stroke-opacity="0.36" stroke-width="0.2"/>
<path d="M56.6542 13.4H55.2102V0.0999756H56.6542V13.4Z" stroke="white" stroke-opacity="0.36" stroke-width="0.2"/>
<path d="M66.0603 9.59998V0.0999756H67.5043V13.4H66.8203L60.3793 3.82398V13.4H58.9353V0.0999756H59.6193L66.0603 9.59998Z" stroke="white" stroke-opacity="0.36" stroke-width="0.2"/>
<path d="M78.9813 13.4H69.7853V0.0999756H78.9813V1.54398H71.2293V5.64798H75.1243V7.09198H71.2293V11.956H78.9813V13.4Z" stroke="white" stroke-opacity="0.36" stroke-width="0.2"/>
<path d="M17.0609 6.46498L20.8609 0.0999756H21.7729V13.4H20.3289V3.76698L17.0039 9.23898L13.6789 3.76698V13.4H12.2349V0.0999756H13.1469L17.0609 6.46498Z" fill="none"/>
<path d="M33.5307 13.4H31.9537L30.8517 10.075H25.6457L24.5437 13.4H22.9667L27.4317 0.0999756H29.0657L33.5307 13.4ZM28.2487 2.28498L26.1397 8.63098H30.3577L28.2487 2.28498Z" fill="none"/>
<path d="M41.1972 13.4H36.3712L34.3762 11.405V2.09498L36.3712 0.0999756H41.1972L43.1922 2.09498V4.90698H41.7482V2.75998L40.5322 1.54398H37.0362L35.8202 2.75998V10.74L37.0362 11.956H40.5322L41.7482 10.74V8.59298H43.1922V11.405L41.1972 13.4Z" fill="none"/>
<path d="M46.563 13.4H45.119V0.0999756H46.563V6.02798H52.491V0.0999756H53.935V13.4H52.491V7.47198H46.563V13.4Z" fill="none"/>
<path d="M57.6542 13.4H56.2102V0.0999756H57.6542V13.4Z" fill="none"/>
<path d="M67.0603 9.59998V0.0999756H68.5043V13.4H67.8203L61.3793 3.82398V13.4H59.9353V0.0999756H60.6193L67.0603 9.59998Z" fill="none"/>
<path d="M79.9813 13.4H70.7853V0.0999756H79.9813V1.54398H72.2293V5.64798H76.1243V7.09198H72.2293V11.956H79.9813V13.4Z" fill="none"/>
<path d="M17.0609 6.46498L20.8609 0.0999756H21.7729V13.4H20.3289V3.76698L17.0039 9.23898L13.6789 3.76698V13.4H12.2349V0.0999756H13.1469L17.0609 6.46498Z" stroke="white" stroke-opacity="0.39" stroke-width="0.2"/>
<path d="M33.5307 13.4H31.9537L30.8517 10.075H25.6457L24.5437 13.4H22.9667L27.4317 0.0999756H29.0657L33.5307 13.4ZM28.2487 2.28498L26.1397 8.63098H30.3577L28.2487 2.28498Z" stroke="white" stroke-opacity="0.39" stroke-width="0.2"/>
<path d="M41.1972 13.4H36.3712L34.3762 11.405V2.09498L36.3712 0.0999756H41.1972L43.1922 2.09498V4.90698H41.7482V2.75998L40.5322 1.54398H37.0362L35.8202 2.75998V10.74L37.0362 11.956H40.5322L41.7482 10.74V8.59298H43.1922V11.405L41.1972 13.4Z" stroke="white" stroke-opacity="0.39" stroke-width="0.2"/>
<path d="M46.563 13.4H45.119V0.0999756H46.563V6.02798H52.491V0.0999756H53.935V13.4H52.491V7.47198H46.563V13.4Z" stroke="white" stroke-opacity="0.39" stroke-width="0.2"/>
<path d="M57.6542 13.4H56.2102V0.0999756H57.6542V13.4Z" stroke="white" stroke-opacity="0.39" stroke-width="0.2"/>
<path d="M67.0603 9.59998V0.0999756H68.5043V13.4H67.8203L61.3793 3.82398V13.4H59.9353V0.0999756H60.6193L67.0603 9.59998Z" stroke="white" stroke-opacity="0.39" stroke-width="0.2"/>
<path d="M79.9813 13.4H70.7853V0.0999756H79.9813V1.54398H72.2293V5.64798H76.1243V7.09198H72.2293V11.956H79.9813V13.4Z" stroke="white" stroke-opacity="0.39" stroke-width="0.2"/>
<path d="M18.0609 6.46498L21.8609 0.0999756H22.7729V13.4H21.3289V3.76698L18.0039 9.23898L14.6789 3.76698V13.4H13.2349V0.0999756H14.1469L18.0609 6.46498Z" fill="none"/>
<path d="M34.5307 13.4H32.9537L31.8517 10.075H26.6457L25.5437 13.4H23.9667L28.4317 0.0999756H30.0657L34.5307 13.4ZM29.2487 2.28498L27.1397 8.63098H31.3577L29.2487 2.28498Z" fill="none"/>
<path d="M42.1972 13.4H37.3712L35.3762 11.405V2.09498L37.3712 0.0999756H42.1972L44.1922 2.09498V4.90698H42.7482V2.75998L41.5322 1.54398H38.0362L36.8202 2.75998V10.74L38.0362 11.956H41.5322L42.7482 10.74V8.59298H44.1922V11.405L42.1972 13.4Z" fill="none"/>
<path d="M47.563 13.4H46.119V0.0999756H47.563V6.02798H53.491V0.0999756H54.935V13.4H53.491V7.47198H47.563V13.4Z" fill="none"/>
<path d="M58.6542 13.4H57.2102V0.0999756H58.6542V13.4Z" fill="none"/>
<path d="M68.0603 9.59998V0.0999756H69.5043V13.4H68.8203L62.3793 3.82398V13.4H60.9353V0.0999756H61.6193L68.0603 9.59998Z" fill="none"/>
<path d="M80.9813 13.4H71.7853V0.0999756H80.9813V1.54398H73.2293V5.64798H77.1243V7.09198H73.2293V11.956H80.9813V13.4Z" fill="none"/>
<path d="M18.0609 6.46498L21.8609 0.0999756H22.7729V13.4H21.3289V3.76698L18.0039 9.23898L14.6789 3.76698V13.4H13.2349V0.0999756H14.1469L18.0609 6.46498Z" stroke="white" stroke-opacity="0.42" stroke-width="0.2"/>
<path d="M34.5307 13.4H32.9537L31.8517 10.075H26.6457L25.5437 13.4H23.9667L28.4317 0.0999756H30.0657L34.5307 13.4ZM29.2487 2.28498L27.1397 8.63098H31.3577L29.2487 2.28498Z" stroke="white" stroke-opacity="0.42" stroke-width="0.2"/>
<path d="M42.1972 13.4H37.3712L35.3762 11.405V2.09498L37.3712 0.0999756H42.1972L44.1922 2.09498V4.90698H42.7482V2.75998L41.5322 1.54398H38.0362L36.8202 2.75998V10.74L38.0362 11.956H41.5322L42.7482 10.74V8.59298H44.1922V11.405L42.1972 13.4Z" stroke="white" stroke-opacity="0.42" stroke-width="0.2"/>
<path d="M47.563 13.4H46.119V0.0999756H47.563V6.02798H53.491V0.0999756H54.935V13.4H53.491V7.47198H47.563V13.4Z" stroke="white" stroke-opacity="0.42" stroke-width="0.2"/>
<path d="M58.6542 13.4H57.2102V0.0999756H58.6542V13.4Z" stroke="white" stroke-opacity="0.42" stroke-width="0.2"/>
<path d="M68.0603 9.59998V0.0999756H69.5043V13.4H68.8203L62.3793 3.82398V13.4H60.9353V0.0999756H61.6193L68.0603 9.59998Z" stroke="white" stroke-opacity="0.42" stroke-width="0.2"/>
<path d="M80.9813 13.4H71.7853V0.0999756H80.9813V1.54398H73.2293V5.64798H77.1243V7.09198H73.2293V11.956H80.9813V13.4Z" stroke="white" stroke-opacity="0.42" stroke-width="0.2"/>
<path d="M19.0609 6.46498L22.8609 0.0999756H23.7729V13.4H22.3289V3.76698L19.0039 9.23898L15.6789 3.76698V13.4H14.2349V0.0999756H15.1469L19.0609 6.46498Z" fill="none"/>
<path d="M35.5307 13.4H33.9537L32.8517 10.075H27.6457L26.5437 13.4H24.9667L29.4317 0.0999756H31.0657L35.5307 13.4ZM30.2487 2.28498L28.1397 8.63098H32.3577L30.2487 2.28498Z" fill="none"/>
<path d="M43.1972 13.4H38.3712L36.3762 11.405V2.09498L38.3712 0.0999756H43.1972L45.1922 2.09498V4.90698H43.7482V2.75998L42.5322 1.54398H39.0362L37.8202 2.75998V10.74L39.0362 11.956H42.5322L43.7482 10.74V8.59298H45.1922V11.405L43.1972 13.4Z" fill="none"/>
<path d="M48.563 13.4H47.119V0.0999756H48.563V6.02798H54.491V0.0999756H55.935V13.4H54.491V7.47198H48.563V13.4Z" fill="none"/>
<path d="M59.6542 13.4H58.2102V0.0999756H59.6542V13.4Z" fill="none"/>
<path d="M69.0603 9.59998V0.0999756H70.5043V13.4H69.8203L63.3793 3.82398V13.4H61.9353V0.0999756H62.6193L69.0603 9.59998Z" fill="none"/>
<path d="M81.9813 13.4H72.7853V0.0999756H81.9813V1.54398H74.2293V5.64798H78.1243V7.09198H74.2293V11.956H81.9813V13.4Z" fill="none"/>
<path d="M19.0609 6.46498L22.8609 0.0999756H23.7729V13.4H22.3289V3.76698L19.0039 9.23898L15.6789 3.76698V13.4H14.2349V0.0999756H15.1469L19.0609 6.46498Z" stroke="white" stroke-opacity="0.45" stroke-width="0.2"/>
<path d="M35.5307 13.4H33.9537L32.8517 10.075H27.6457L26.5437 13.4H24.9667L29.4317 0.0999756H31.0657L35.5307 13.4ZM30.2487 2.28498L28.1397 8.63098H32.3577L30.2487 2.28498Z" stroke="white" stroke-opacity="0.45" stroke-width="0.2"/>
<path d="M43.1972 13.4H38.3712L36.3762 11.405V2.09498L38.3712 0.0999756H43.1972L45.1922 2.09498V4.90698H43.7482V2.75998L42.5322 1.54398H39.0362L37.8202 2.75998V10.74L39.0362 11.956H42.5322L43.7482 10.74V8.59298H45.1922V11.405L43.1972 13.4Z" stroke="white" stroke-opacity="0.45" stroke-width="0.2"/>
<path d="M48.563 13.4H47.119V0.0999756H48.563V6.02798H54.491V0.0999756H55.935V13.4H54.491V7.47198H48.563V13.4Z" stroke="white" stroke-opacity="0.45" stroke-width="0.2"/>
<path d="M59.6542 13.4H58.2102V0.0999756H59.6542V13.4Z" stroke="white" stroke-opacity="0.45" stroke-width="0.2"/>
<path d="M69.0603 9.59998V0.0999756H70.5043V13.4H69.8203L63.3793 3.82398V13.4H61.9353V0.0999756H62.6193L69.0603 9.59998Z" stroke="white" stroke-opacity="0.45" stroke-width="0.2"/>
<path d="M81.9813 13.4H72.7853V0.0999756H81.9813V1.54398H74.2293V5.64798H78.1243V7.09198H74.2293V11.956H81.9813V13.4Z" stroke="white" stroke-opacity="0.45" stroke-width="0.2"/>
<path d="M20.0609 6.46498L23.8609 0.0999756H24.7729V13.4H23.3289V3.76698L20.0039 9.23898L16.6789 3.76698V13.4H15.2349V0.0999756H16.1469L20.0609 6.46498Z" fill="none"/>
<path d="M36.5307 13.4H34.9537L33.8517 10.075H28.6457L27.5437 13.4H25.9667L30.4317 0.0999756H32.0657L36.5307 13.4ZM31.2487 2.28498L29.1397 8.63098H33.3577L31.2487 2.28498Z" fill="none"/>
<path d="M44.1972 13.4H39.3712L37.3762 11.405V2.09498L39.3712 0.0999756H44.1972L46.1922 2.09498V4.90698H44.7482V2.75998L43.5322 1.54398H40.0362L38.8202 2.75998V10.74L40.0362 11.956H43.5322L44.7482 10.74V8.59298H46.1922V11.405L44.1972 13.4Z" fill="none"/>
<path d="M49.563 13.4H48.119V0.0999756H49.563V6.02798H55.491V0.0999756H56.935V13.4H55.491V7.47198H49.563V13.4Z" fill="none"/>
<path d="M60.6542 13.4H59.2102V0.0999756H60.6542V13.4Z" fill="none"/>
<path d="M70.0603 9.59998V0.0999756H71.5043V13.4H70.8203L64.3793 3.82398V13.4H62.9353V0.0999756H63.6193L70.0603 9.59998Z" fill="none"/>
<path d="M82.9813 13.4H73.7853V0.0999756H82.9813V1.54398H75.2293V5.64798H79.1243V7.09198H75.2293V11.956H82.9813V13.4Z" fill="none"/>
<path d="M20.0609 6.46498L23.8609 0.0999756H24.7729V13.4H23.3289V3.76698L20.0039 9.23898L16.6789 3.76698V13.4H15.2349V0.0999756H16.1469L20.0609 6.46498Z" stroke="white" stroke-opacity="0.48" stroke-width="0.2"/>
<path d="M36.5307 13.4H34.9537L33.8517 10.075H28.6457L27.5437 13.4H25.9667L30.4317 0.0999756H32.0657L36.5307 13.4ZM31.2487 2.28498L29.1397 8.63098H33.3577L31.2487 2.28498Z" stroke="white" stroke-opacity="0.48" stroke-width="0.2"/>
<path d="M44.1972 13.4H39.3712L37.3762 11.405V2.09498L39.3712 0.0999756H44.1972L46.1922 2.09498V4.90698H44.7482V2.75998L43.5322 1.54398H40.0362L38.8202 2.75998V10.74L40.0362 11.956H43.5322L44.7482 10.74V8.59298H46.1922V11.405L44.1972 13.4Z" stroke="white" stroke-opacity="0.48" stroke-width="0.2"/>
<path d="M49.563 13.4H48.119V0.0999756H49.563V6.02798H55.491V0.0999756H56.935V13.4H55.491V7.47198H49.563V13.4Z" stroke="white" stroke-opacity="0.48" stroke-width="0.2"/>
<path d="M60.6542 13.4H59.2102V0.0999756H60.6542V13.4Z" stroke="white" stroke-opacity="0.48" stroke-width="0.2"/>
<path d="M70.0603 9.59998V0.0999756H71.5043V13.4H70.8203L64.3793 3.82398V13.4H62.9353V0.0999756H63.6193L70.0603 9.59998Z" stroke="white" stroke-opacity="0.48" stroke-width="0.2"/>
<path d="M82.9813 13.4H73.7853V0.0999756H82.9813V1.54398H75.2293V5.64798H79.1243V7.09198H75.2293V11.956H82.9813V13.4Z" stroke="white" stroke-opacity="0.48" stroke-width="0.2"/>
<path d="M21.0609 6.46498L24.8609 0.0999756H25.7729V13.4H24.3289V3.76698L21.0039 9.23898L17.6789 3.76698V13.4H16.2349V0.0999756H17.1469L21.0609 6.46498Z" fill="none"/>
<path d="M37.5307 13.4H35.9537L34.8517 10.075H29.6457L28.5437 13.4H26.9667L31.4317 0.0999756H33.0657L37.5307 13.4ZM32.2487 2.28498L30.1397 8.63098H34.3577L32.2487 2.28498Z" fill="none"/>
<path d="M45.1972 13.4H40.3712L38.3762 11.405V2.09498L40.3712 0.0999756H45.1972L47.1922 2.09498V4.90698H45.7482V2.75998L44.5322 1.54398H41.0362L39.8202 2.75998V10.74L41.0362 11.956H44.5322L45.7482 10.74V8.59298H47.1922V11.405L45.1972 13.4Z" fill="none"/>
<path d="M50.563 13.4H49.119V0.0999756H50.563V6.02798H56.491V0.0999756H57.935V13.4H56.491V7.47198H50.563V13.4Z" fill="none"/>
<path d="M61.6542 13.4H60.2102V0.0999756H61.6542V13.4Z" fill="none"/>
<path d="M71.0603 9.59998V0.0999756H72.5043V13.4H71.8203L65.3793 3.82398V13.4H63.9353V0.0999756H64.6193L71.0603 9.59998Z" fill="none"/>
<path d="M83.9813 13.4H74.7853V0.0999756H83.9813V1.54398H76.2293V5.64798H80.1243V7.09198H76.2293V11.956H83.9813V13.4Z" fill="none"/>
<path d="M21.0609 6.46498L24.8609 0.0999756H25.7729V13.4H24.3289V3.76698L21.0039 9.23898L17.6789 3.76698V13.4H16.2349V0.0999756H17.1469L21.0609 6.46498Z" stroke="white" stroke-opacity="0.51" stroke-width="0.2"/>
<path d="M37.5307 13.4H35.9537L34.8517 10.075H29.6457L28.5437 13.4H26.9667L31.4317 0.0999756H33.0657L37.5307 13.4ZM32.2487 2.28498L30.1397 8.63098H34.3577L32.2487 2.28498Z" stroke="white" stroke-opacity="0.51" stroke-width="0.2"/>
<path d="M45.1972 13.4H40.3712L38.3762 11.405V2.09498L40.3712 0.0999756H45.1972L47.1922 2.09498V4.90698H45.7482V2.75998L44.5322 1.54398H41.0362L39.8202 2.75998V10.74L41.0362 11.956H44.5322L45.7482 10.74V8.59298H47.1922V11.405L45.1972 13.4Z" stroke="white" stroke-opacity="0.51" stroke-width="0.2"/>
<path d="M50.563 13.4H49.119V0.0999756H50.563V6.02798H56.491V0.0999756H57.935V13.4H56.491V7.47198H50.563V13.4Z" stroke="white" stroke-opacity="0.51" stroke-width="0.2"/>
<path d="M61.6542 13.4H60.2102V0.0999756H61.6542V13.4Z" stroke="white" stroke-opacity="0.51" stroke-width="0.2"/>
<path d="M71.0603 9.59998V0.0999756H72.5043V13.4H71.8203L65.3793 3.82398V13.4H63.9353V0.0999756H64.6193L71.0603 9.59998Z" stroke="white" stroke-opacity="0.51" stroke-width="0.2"/>
<path d="M83.9813 13.4H74.7853V0.0999756H83.9813V1.54398H76.2293V5.64798H80.1243V7.09198H76.2293V11.956H83.9813V13.4Z" stroke="white" stroke-opacity="0.51" stroke-width="0.2"/>
<path d="M22.0609 6.46498L25.8609 0.0999756H26.7729V13.4H25.3289V3.76698L22.0039 9.23898L18.6789 3.76698V13.4H17.2349V0.0999756H18.1469L22.0609 6.46498Z" fill="none"/>
<path d="M38.5307 13.4H36.9537L35.8517 10.075H30.6457L29.5437 13.4H27.9667L32.4317 0.0999756H34.0657L38.5307 13.4ZM33.2487 2.28498L31.1397 8.63098H35.3577L33.2487 2.28498Z" fill="none"/>
<path d="M46.1972 13.4H41.3712L39.3762 11.405V2.09498L41.3712 0.0999756H46.1972L48.1922 2.09498V4.90698H46.7482V2.75998L45.5322 1.54398H42.0362L40.8202 2.75998V10.74L42.0362 11.956H45.5322L46.7482 10.74V8.59298H48.1922V11.405L46.1972 13.4Z" fill="none"/>
<path d="M51.563 13.4H50.119V0.0999756H51.563V6.02798H57.491V0.0999756H58.935V13.4H57.491V7.47198H51.563V13.4Z" fill="none"/>
<path d="M62.6542 13.4H61.2102V0.0999756H62.6542V13.4Z" fill="none"/>
<path d="M72.0603 9.59998V0.0999756H73.5043V13.4H72.8203L66.3793 3.82398V13.4H64.9353V0.0999756H65.6193L72.0603 9.59998Z" fill="none"/>
<path d="M84.9813 13.4H75.7853V0.0999756H84.9813V1.54398H77.2293V5.64798H81.1243V7.09198H77.2293V11.956H84.9813V13.4Z" fill="none"/>
<path d="M22.0609 6.46498L25.8609 0.0999756H26.7729V13.4H25.3289V3.76698L22.0039 9.23898L18.6789 3.76698V13.4H17.2349V0.0999756H18.1469L22.0609 6.46498Z" stroke="white" stroke-opacity="0.54" stroke-width="0.2"/>
<path d="M38.5307 13.4H36.9537L35.8517 10.075H30.6457L29.5437 13.4H27.9667L32.4317 0.0999756H34.0657L38.5307 13.4ZM33.2487 2.28498L31.1397 8.63098H35.3577L33.2487 2.28498Z" stroke="white" stroke-opacity="0.54" stroke-width="0.2"/>
<path d="M46.1972 13.4H41.3712L39.3762 11.405V2.09498L41.3712 0.0999756H46.1972L48.1922 2.09498V4.90698H46.7482V2.75998L45.5322 1.54398H42.0362L40.8202 2.75998V10.74L42.0362 11.956H45.5322L46.7482 10.74V8.59298H48.1922V11.405L46.1972 13.4Z" stroke="white" stroke-opacity="0.54" stroke-width="0.2"/>
<path d="M51.563 13.4H50.119V0.0999756H51.563V6.02798H57.491V0.0999756H58.935V13.4H57.491V7.47198H51.563V13.4Z" stroke="white" stroke-opacity="0.54" stroke-width="0.2"/>
<path d="M62.6542 13.4H61.2102V0.0999756H62.6542V13.4Z" stroke="white" stroke-opacity="0.54" stroke-width="0.2"/>
<path d="M72.0603 9.59998V0.0999756H73.5043V13.4H72.8203L66.3793 3.82398V13.4H64.9353V0.0999756H65.6193L72.0603 9.59998Z" stroke="white" stroke-opacity="0.54" stroke-width="0.2"/>
<path d="M84.9813 13.4H75.7853V0.0999756H84.9813V1.54398H77.2293V5.64798H81.1243V7.09198H77.2293V11.956H84.9813V13.4Z" stroke="white" stroke-opacity="0.54" stroke-width="0.2"/>
<path d="M23.0609 6.46498L26.8609 0.0999756H27.7729V13.4H26.3289V3.76698L23.0039 9.23898L19.6789 3.76698V13.4H18.2349V0.0999756H19.1469L23.0609 6.46498Z" fill="none"/>
<path d="M39.5307 13.4H37.9537L36.8517 10.075H31.6457L30.5437 13.4H28.9667L33.4317 0.0999756H35.0657L39.5307 13.4ZM34.2487 2.28498L32.1397 8.63098H36.3577L34.2487 2.28498Z" fill="none"/>
<path d="M47.1972 13.4H42.3712L40.3762 11.405V2.09498L42.3712 0.0999756H47.1972L49.1922 2.09498V4.90698H47.7482V2.75998L46.5322 1.54398H43.0362L41.8202 2.75998V10.74L43.0362 11.956H46.5322L47.7482 10.74V8.59298H49.1922V11.405L47.1972 13.4Z" fill="none"/>
<path d="M52.563 13.4H51.119V0.0999756H52.563V6.02798H58.491V0.0999756H59.935V13.4H58.491V7.47198H52.563V13.4Z" fill="none"/>
<path d="M63.6542 13.4H62.2102V0.0999756H63.6542V13.4Z" fill="none"/>
<path d="M73.0603 9.59998V0.0999756H74.5043V13.4H73.8203L67.3793 3.82398V13.4H65.9353V0.0999756H66.6193L73.0603 9.59998Z" fill="none"/>
<path d="M85.9813 13.4H76.7853V0.0999756H85.9813V1.54398H78.2293V5.64798H82.1243V7.09198H78.2293V11.956H85.9813V13.4Z" fill="none"/>
<path d="M23.0609 6.46498L26.8609 0.0999756H27.7729V13.4H26.3289V3.76698L23.0039 9.23898L19.6789 3.76698V13.4H18.2349V0.0999756H19.1469L23.0609 6.46498Z" stroke="white" stroke-opacity="0.57" stroke-width="0.2"/>
<path d="M39.5307 13.4H37.9537L36.8517 10.075H31.6457L30.5437 13.4H28.9667L33.4317 0.0999756H35.0657L39.5307 13.4ZM34.2487 2.28498L32.1397 8.63098H36.3577L34.2487 2.28498Z" stroke="white" stroke-opacity="0.57" stroke-width="0.2"/>
<path d="M47.1972 13.4H42.3712L40.3762 11.405V2.09498L42.3712 0.0999756H47.1972L49.1922 2.09498V4.90698H47.7482V2.75998L46.5322 1.54398H43.0362L41.8202 2.75998V10.74L43.0362 11.956H46.5322L47.7482 10.74V8.59298H49.1922V11.405L47.1972 13.4Z" stroke="white" stroke-opacity="0.57" stroke-width="0.2"/>
<path d="M52.563 13.4H51.119V0.0999756H52.563V6.02798H58.491V0.0999756H59.935V13.4H58.491V7.47198H52.563V13.4Z" stroke="white" stroke-opacity="0.57" stroke-width="0.2"/>
<path d="M63.6542 13.4H62.2102V0.0999756H63.6542V13.4Z" stroke="white" stroke-opacity="0.57" stroke-width="0.2"/>
<path d="M73.0603 9.59998V0.0999756H74.5043V13.4H73.8203L67.3793 3.82398V13.4H65.9353V0.0999756H66.6193L73.0603 9.59998Z" stroke="white" stroke-opacity="0.57" stroke-width="0.2"/>
<path d="M85.9813 13.4H76.7853V0.0999756H85.9813V1.54398H78.2293V5.64798H82.1243V7.09198H78.2293V11.956H85.9813V13.4Z" stroke="white" stroke-opacity="0.57" stroke-width="0.2"/>
<path d="M24.0609 6.46498L27.8609 0.0999756H28.7729V13.4H27.3289V3.76698L24.0039 9.23898L20.6789 3.76698V13.4H19.2349V0.0999756H20.1469L24.0609 6.46498Z" fill="none"/>
<path d="M40.5307 13.4H38.9537L37.8517 10.075H32.6457L31.5437 13.4H29.9667L34.4317 0.0999756H36.0657L40.5307 13.4ZM35.2487 2.28498L33.1397 8.63098H37.3577L35.2487 2.28498Z" fill="none"/>
<path d="M48.1972 13.4H43.3712L41.3762 11.405V2.09498L43.3712 0.0999756H48.1972L50.1922 2.09498V4.90698H48.7482V2.75998L47.5322 1.54398H44.0362L42.8202 2.75998V10.74L44.0362 11.956H47.5322L48.7482 10.74V8.59298H50.1922V11.405L48.1972 13.4Z" fill="none"/>
<path d="M53.563 13.4H52.119V0.0999756H53.563V6.02798H59.491V0.0999756H60.935V13.4H59.491V7.47198H53.563V13.4Z" fill="none"/>
<path d="M64.6542 13.4H63.2102V0.0999756H64.6542V13.4Z" fill="none"/>
<path d="M74.0603 9.59998V0.0999756H75.5043V13.4H74.8203L68.3793 3.82398V13.4H66.9353V0.0999756H67.6193L74.0603 9.59998Z" fill="none"/>
<path d="M86.9813 13.4H77.7853V0.0999756H86.9813V1.54398H79.2293V5.64798H83.1243V7.09198H79.2293V11.956H86.9813V13.4Z" fill="none"/>
<path d="M24.0609 6.46498L27.8609 0.0999756H28.7729V13.4H27.3289V3.76698L24.0039 9.23898L20.6789 3.76698V13.4H19.2349V0.0999756H20.1469L24.0609 6.46498Z" stroke="white" stroke-opacity="0.6" stroke-width="0.2"/>
<path d="M40.5307 13.4H38.9537L37.8517 10.075H32.6457L31.5437 13.4H29.9667L34.4317 0.0999756H36.0657L40.5307 13.4ZM35.2487 2.28498L33.1397 8.63098H37.3577L35.2487 2.28498Z" stroke="white" stroke-opacity="0.6" stroke-width="0.2"/>
<path d="M48.1972 13.4H43.3712L41.3762 11.405V2.09498L43.3712 0.0999756H48.1972L50.1922 2.09498V4.90698H48.7482V2.75998L47.5322 1.54398H44.0362L42.8202 2.75998V10.74L44.0362 11.956H47.5322L48.7482 10.74V8.59298H50.1922V11.405L48.1972 13.4Z" stroke="white" stroke-opacity="0.6" stroke-width="0.2"/>
<path d="M53.563 13.4H52.119V0.0999756H53.563V6.02798H59.491V0.0999756H60.935V13.4H59.491V7.47198H53.563V13.4Z" stroke="white" stroke-opacity="0.6" stroke-width="0.2"/>
<path d="M64.6542 13.4H63.2102V0.0999756H64.6542V13.4Z" stroke="white" stroke-opacity="0.6" stroke-width="0.2"/>
<path d="M74.0603 9.59998V0.0999756H75.5043V13.4H74.8203L68.3793 3.82398V13.4H66.9353V0.0999756H67.6193L74.0603 9.59998Z" stroke="white" stroke-opacity="0.6" stroke-width="0.2"/>
<path d="M86.9813 13.4H77.7853V0.0999756H86.9813V1.54398H79.2293V5.64798H83.1243V7.09198H79.2293V11.956H86.9813V13.4Z" stroke="white" stroke-opacity="0.6" stroke-width="0.2"/>
</g>
<path d="M25.0609 6.46498L28.8609 0.0999756H29.7729V13.4H28.3289V3.76698L25.0039 9.23898L21.6789 3.76698V13.4H20.2349V0.0999756H21.1469L25.0609 6.46498Z" fill="white"/>
<path d="M41.5307 13.4H39.9537L38.8517 10.075H33.6457L32.5437 13.4H30.9667L35.4317 0.0999756H37.0657L41.5307 13.4ZM36.2487 2.28498L34.1397 8.63098H38.3577L36.2487 2.28498Z" fill="white"/>
<path d="M49.1972 13.4H44.3712L42.3762 11.405V2.09498L44.3712 0.0999756H49.1972L51.1922 2.09498V4.90698H49.7482V2.75998L48.5322 1.54398H45.0362L43.8202 2.75998V10.74L45.0362 11.956H48.5322L49.7482 10.74V8.59298H51.1922V11.405L49.1972 13.4Z" fill="white"/>
<path d="M54.563 13.4H53.119V0.0999756H54.563V6.02798H60.491V0.0999756H61.935V13.4H60.491V7.47198H54.563V13.4Z" fill="white"/>
<path d="M65.6542 13.4H64.2102V0.0999756H65.6542V13.4Z" fill="white"/>
<path d="M75.0603 9.59998V0.0999756H76.5043V13.4H75.8203L69.3793 3.82398V13.4H67.9353V0.0999756H68.6193L75.0603 9.59998Z" fill="white"/>
<path d="M87.9813 13.4H78.7853V0.0999756H87.9813V1.54398H80.2293V5.64798H84.1243V7.09198H80.2293V11.956H87.9813V13.4Z" fill="white"/>
<path d="M25.0609 6.46498L28.8609 0.0999756H29.7729V13.4H28.3289V3.76698L25.0039 9.23898L21.6789 3.76698V13.4H20.2349V0.0999756H21.1469L25.0609 6.46498Z" stroke="white" stroke-width="0.2"/>
<path d="M41.5307 13.4H39.9537L38.8517 10.075H33.6457L32.5437 13.4H30.9667L35.4317 0.0999756H37.0657L41.5307 13.4ZM36.2487 2.28498L34.1397 8.63098H38.3577L36.2487 2.28498Z" stroke="white" stroke-width="0.2"/>
<path d="M49.1972 13.4H44.3712L42.3762 11.405V2.09498L44.3712 0.0999756H49.1972L51.1922 2.09498V4.90698H49.7482V2.75998L48.5322 1.54398H45.0362L43.8202 2.75998V10.74L45.0362 11.956H48.5322L49.7482 10.74V8.59298H51.1922V11.405L49.1972 13.4Z" stroke="white" stroke-width="0.2"/>
<path d="M54.563 13.4H53.119V0.0999756H54.563V6.02798H60.491V0.0999756H61.935V13.4H60.491V7.47198H54.563V13.4Z" stroke="white" stroke-width="0.2"/>
<path d="M65.6542 13.4H64.2102V0.0999756H65.6542V13.4Z" stroke="white" stroke-width="0.2"/>
<path d="M75.0603 9.59998V0.0999756H76.5043V13.4H75.8203L69.3793 3.82398V13.4H67.9353V0.0999756H68.6193L75.0603 9.59998Z" stroke="white" stroke-width="0.2"/>
<path d="M87.9813 13.4H78.7853V0.0999756H87.9813V1.54398H80.2293V5.64798H84.1243V7.09198H80.2293V11.956H87.9813V13.4Z" stroke="white" stroke-width="0.2"/>
<path d="M0.765077 24.4H0V17.4H3.61398L4.671 18.45V20.43L3.61398 21.48H0.765077V24.4ZM0.765077 18.16V20.72H3.26165L3.90592 20.08V18.8L3.26165 18.16H0.765077Z" fill="white"/>
<path d="M9.87742 24.4H9.04188L8.458 22.65H5.6997L5.11582 24.4H4.28028L6.64598 17.4H7.51172L9.87742 24.4ZM7.07885 18.55L5.96144 21.89H8.19627L7.07885 18.55Z" fill="white"/>
<path d="M12.0739 24.4H11.3088V21.17L9.1545 17.4H10.0202L11.6913 20.4L13.3624 17.4H14.2282L12.0739 21.17V24.4Z" fill="white"/>
<path d="M17.4437 20.75L19.457 17.4H19.9402V24.4H19.1751V19.33L17.4135 22.21L15.6518 19.33V24.4H14.8867V17.4H15.3699L17.4437 20.75Z" fill="white"/>
<path d="M26.0189 24.4H21.1466V17.4H26.0189V18.16H21.9117V20.32H23.9754V21.08H21.9117V23.64H26.0189V24.4Z" fill="white"/>
<path d="M30.5819 22.4V17.4H31.3469V24.4H30.9845L27.5719 19.36V24.4H26.8068V17.4H27.1692L30.5819 22.4Z" fill="white"/>
<path d="M34.9715 24.4H34.2065V18.16H32.0522V17.4H37.1258V18.16H34.9715V24.4Z" fill="white"/>
<path d="M41.1572 24.4H38.6002L37.5432 23.35V22.45H38.3083V23L38.9526 23.64H40.8049L41.4491 23V21.92L40.8049 21.28H38.6002L37.5432 20.23V18.45L38.6002 17.4H41.1572L42.2142 18.45V19.35H41.4491V18.8L40.8049 18.16H38.9526L38.3083 18.8V19.88L38.9526 20.52H41.1572L42.2142 21.57V23.35L41.1572 24.4Z" fill="white"/>
<path d="M45.9068 24.4H45.1418V17.4H48.7557L49.8128 18.45V20.43L48.7557 21.48H45.9068V24.4ZM45.9068 18.16V20.72H48.4034L49.0477 20.08V18.8L48.4034 18.16H45.9068Z" fill="white"/>
<path d="M51.4393 24.4H50.6742V17.4H54.2882L55.3452 18.45V20.42L54.6707 21.09L55.3452 21.76V24.4H54.5801V22.11L53.9358 21.47H51.4393V24.4ZM51.4393 18.16V20.71H53.9358L54.5801 20.07V18.8L53.9358 18.16H51.4393Z" fill="white"/>
<path d="M59.9954 24.4H57.4384L56.3814 23.35V18.45L57.4384 17.4H59.9954L61.0524 18.45V23.35L59.9954 24.4ZM57.1465 18.8V23L57.7908 23.64H59.6431L60.2873 23V18.8L59.6431 18.16H57.7908L57.1465 18.8Z" fill="white"/>
<path d="M64.4303 24.4H63.6652V18.16H61.5109V17.4H66.5846V18.16H64.4303V24.4Z" fill="white"/>
<path d="M70.6473 24.4H68.0904L67.0334 23.35V18.45L68.0904 17.4H70.6473L71.7044 18.45V23.35L70.6473 24.4ZM67.7984 18.8V23L68.4427 23.64H70.295L70.9393 23V18.8L70.295 18.16H68.4427L67.7984 18.8Z" fill="white"/>
<path d="M76.3469 24.4H73.7899L72.7329 23.35V18.45L73.7899 17.4H76.3469L77.4039 18.45V19.93H76.6388V18.8L75.9946 18.16H74.1423L73.498 18.8V23L74.1423 23.64H75.9946L76.6388 23V21.87H77.4039V23.35L76.3469 24.4Z" fill="white"/>
<path d="M81.9481 24.4H79.3912L78.3341 23.35V18.45L79.3912 17.4H81.9481L83.0051 18.45V23.35L81.9481 24.4ZM79.0992 18.8V23L79.7435 23.64H81.5958L82.2401 23V18.8L81.5958 18.16H79.7435L79.0992 18.8Z" fill="white"/>
<path d="M88 24.4H84.1243V17.4H84.8894V23.64H88V24.4Z" fill="white"/>
</svg>
